<?xml version="1.0" standalone="no"?>
<!DOCTYPE svg PUBLIC "-//W3C//DTD SVG 1.1//EN" "http://www.w3.org/Graphics/SVG/1.1/DTD/svg11.dtd" >
<svg xmlns="http://www.w3.org/2000/svg">
<metadata>
Created by FontPrep 20130207 at Wed Aug  6 22:38:33 2014
 By caleb
Webtype Web Use Only
</metadata>
<defs>
<font id="3eba65d074713555164cdb0e4cef1807" horiz-adv-x='1024' >
  <font-face 
    font-family="WebtypeWebUseOnly"
    font-weight="800"
    font-style="italic"
    font-stretch="normal"
    units-per-em="2048"
    panose-1="2 0 5 4 9 0 0 2 0 4"
    ascent="1565"
    descent="-483"
    x-height="981"
    cap-height="1399"
    bbox="-502 -511.481 2519.17 1958"
    underline-thickness="40"
    underline-position="-231"
    slope="-12"
    unicode-range="U+0020-FB04"
  />
<missing-glyph horiz-adv-x="401" 
 />
    <glyph glyph-name="f_f" unicode="ff" horiz-adv-x="1357" 
d="M897 1258q0 48 22 83t45.5 60.5t24.5 34.5q-7 21 -30 32t-44 11q-51 0 -109.5 -58.5t-143.5 -386.5l-27 -102h326l16 61q16 62 43 133q-57 11 -90 47.5t-33 84.5zM448 -465q26 0 58 18.5t53 41t48.5 88.5t60.5 175q32 109 54 179q67 219 230 868h-323
q-166 -637 -211 -784q-45 -146 -103 -250q80 11 139.5 -28t59.5 -111t-55 -114t-62 -52q1 -11 13 -21t38 -10zM1673 1456q-14 43 -89 43q-36 0 -94.5 -58.5t-139.5 -385.5l-31 -123h217l-8 -27h-215q-166 -637 -221 -817q-132 -428 -350 -499.5t-318 -71.5t-166.5 50
t-71.5 132q-85 -85 -199.5 -133.5t-232.5 -48.5t-185 52.5t-67 130.5t47 125.5t117 47.5t117 -36.5t47 -106.5t-55 -112t-62 -52q1 -11 13 -21t38 -10t58 18.5t53 41t48.5 88.5t60.5 175q32 109 54 179q67 219 230 868h-172l8 27h172l17 61q31 118 84 206.5t143 168.5
q149 133 398 133q99 0 171 -32t107 -87q159 140 406 140q143 0 226 -62.5t83 -141.5t-46.5 -126t-119.5 -47t-118.5 38t-45.5 102t45.5 113t46.5 58z" />
    <glyph glyph-name="f_i" unicode="fi" horiz-adv-x="1337" 
d="M1024 1456q-14 43 -85 43q-112 0 -166 -125t-107 -327l-31 -115h219q126 33 210 33t128.5 -38t44.5 -109t-47 -214l-100 -301q-7 -20 -20.5 -58t-26.5 -76.5t-13 -66.5t12.5 -41.5t30.5 -13.5q125 0 221 248l25 -8q-63 -155 -142 -232.5t-207 -77.5t-209 46t-81 135
q0 60 29 149l135 389q45 118 45 174q0 11 -11.5 23t-33.5 12h-215q-166 -637 -221 -817q-132 -428 -350 -499.5t-320 -71.5t-169 52.5t-67 130.5t47 125.5t117 47.5t117 -36.5t47 -106.5t-55 -112t-62 -52q1 -11 13 -21t38 -10t58 18.5t53 41t48.5 88.5t60.5 175
q32 109 54 179q67 219 230 868h-172l8 27h172l17 61q70 257 227 396q70 63 184.5 98t252.5 35t221.5 -62.5t83.5 -154.5q0 -66 -47 -116t-119 -50t-118 40.5t-46 104.5t45.5 113.5t46.5 58.5z" />
    <glyph glyph-name="f_l" unicode="fl" horiz-adv-x="1341" 
d="M-498 -300q0 78 47 125.5t117 47.5t117 -36.5t47 -106.5t-55 -112t-62 -52q1 -11 13 -21t38 -10t58 18.5t53 41t48.5 88.5t60.5 175q32 109 54 179q67 219 230 868h-172l8 27h172l17 61q141 529 625 529q123 0 200 -52l369 50l-400 -1262q-55 -171 -55 -200t52 -29
t113 68t112 198l24 -8q-60 -160 -137.5 -235t-209.5 -75t-206.5 45t-74.5 136q0 57 28 149l266 842q-102 28 -102 141q0 58 45.5 107.5t46.5 58.5q-7 21 -30 32t-44 11q-74 0 -128 -95t-121 -349l-31 -123h217l-8 -27h-215q-166 -637 -221 -817q-132 -428 -350 -499.5
t-320 -71.5t-169 52.5t-67 130.5z" />
    <glyph glyph-name="f_f_i" unicode="ffi" horiz-adv-x="2021" 
d="M897 1258q0 48 22 83t45.5 60.5t24.5 34.5q-7 21 -30 32t-44 11q-51 0 -109.5 -58.5t-143.5 -386.5l-27 -102h326l16 61q16 62 43 133q-57 11 -90 47.5t-33 84.5zM448 -465q26 0 58 18.5t53 41t48.5 88.5t60.5 175q32 109 54 179q67 219 230 868h-323
q-166 -637 -211 -784q-45 -146 -103 -250q79 13 139 -27t60 -112t-55 -114t-62 -52q1 -11 13 -21t38 -10zM1746 965q175 -1 175 -159q0 -82 -47 -202l-100 -301q-25 -75 -35 -104t-17.5 -54.5t-7.5 -48.5q0 -22 12.5 -35.5t30.5 -13.5q125 0 221 248l25 -8
q-63 -155 -142 -232.5t-207 -77.5t-209 46t-81 135q0 60 29 149l135 389q45 118 45 174q0 11 -11.5 23t-33.5 12h-215q-166 -637 -221 -817q-132 -428 -350 -499.5t-318 -71.5t-166.5 50t-71.5 132q-95 -92 -216.5 -137t-227.5 -45t-173 52.5t-67 130.5t47 125.5t117 47.5
t117 -36.5t47 -106.5t-55 -112t-62 -52q1 -11 13 -21t38 -10t58 18.5t53 41t48.5 88.5t60.5 175q32 109 54 179q67 219 230 868h-172l8 27h172l17 61q31 118 84 206.5t143 168.5q149 133 398 133q99 0 171 -32t107 -87q159 140 445 140q138 0 221.5 -62.5t83.5 -154.5
q0 -66 -47 -116t-119 -50t-118 40.5t-46 104.5t45.5 113.5t46.5 58.5q-14 43 -85 43q-112 0 -166 -125t-107 -327l-31 -115h219q125 33 208 33z" />
    <glyph glyph-name="f_f_l" unicode="ffl" horiz-adv-x="2025" 
d="M897 1258q0 48 22 83t45.5 60.5t24.5 34.5q-7 21 -30 32t-44 11q-51 0 -109.5 -58.5t-143.5 -386.5l-27 -102h326l16 61q16 62 43 133q-57 11 -90 47.5t-33 84.5zM448 -465q26 0 58 18.5t53 41t48.5 88.5t60.5 175q32 109 54 179q67 219 230 868h-323
q-166 -637 -211 -784q-45 -146 -103 -250q80 13 139.5 -26.5t59.5 -111.5t-55 -114.5t-62 -52.5q1 -11 13 -21t38 -10zM-498 -300q0 78 47 125.5t117 47.5t117 -36.5t47 -106.5t-55 -112t-62 -52q1 -11 13 -21t38 -10t58 18.5t53 41t48.5 88.5t60.5 175q32 109 54 179
q67 219 230 868h-172l8 27h172l17 61q31 118 84 206.5t143 168.5q149 133 398 133q99 0 171 -32t107 -87q159 140 406 140q123 0 200 -52l369 50l-399 -1262q-56 -174 -56 -197q0 -32 52 -32t113 68t112 198l24 -8q-60 -161 -137.5 -235.5t-209.5 -74.5t-206.5 45t-74.5 136
q0 57 28 149l266 842q-102 28 -102 141q0 58 45.5 107.5t46.5 58.5q-7 21 -30 32t-44 11q-74 0 -128 -95t-121 -349l-31 -123h217l-8 -27h-215q-166 -637 -221 -817q-132 -428 -350 -499.5t-318 -71.5t-166.5 50t-71.5 132q-96 -94 -215 -138t-227 -44t-175 52.5t-67 130.5z
" />
    <glyph glyph-name="f_j" unicode="fj" horiz-adv-x="1277" 
d="M352 -432q2 -31 52 -31q54 0 109 67t142 373q34 119 62.5 218t44.5 158.5t44.5 169t55.5 207.5t27 124q0 50 -45 51h-215q-166 -637 -213 -788q-47 -150 -99 -244q64 -3 104 -44t40 -88t-14 -73.5t-31 -41.5t-37 -31.5t-27 -26.5zM145 -336q-185 -147 -407 -147
q-102 0 -169 52.5t-67 130.5t47 125.5t117 47.5t117 -36.5t47 -106.5t-55 -112t-62 -52q1 -11 13 -21t38 -10t58 18.5t53 41t48.5 88.5t60.5 175q32 109 54 179q67 219 230 868h-172l8 27h172l17 61q70 257 227 396q70 63 184.5 98t252.5 35t221.5 -62.5t83.5 -154.5
q0 -66 -47 -116t-119 -50t-118 40.5t-46 104.5t45.5 113.5t46.5 58.5q-14 43 -85 43q-112 0 -166 -125t-107 -327l-31 -115h219q126 33 206 33q172 0 171 -166q0 -90 -199 -754q-74 -243 -276 -399q-166 -129 -383 -129q-79 0 -144.5 40t-83.5 107z" />
    <glyph glyph-name="f_t" unicode="ft" horiz-adv-x="1409" 
d="M897 1290q0 58 45.5 107.5t46.5 58.5q-7 21 -30 32t-44 11q-50 0 -106.5 -58t-142.5 -386l-31 -123h299l63 221q-100 30 -100 137zM-498 -300q0 78 47 125.5t117 47.5t117 -36.5t47 -106.5t-55 -112t-62 -52q1 -11 13 -21t38 -10t58 18.5t53 41t48.5 88.5t60.5 175
q32 109 54 179q67 219 230 868h-172l8 27h172l17 61q141 529 625 529q143 0 226 -62.5t83 -154.5q0 -29 -10 -56h180l-94 -317h206l-8 -27h-205l-209 -706q-28 -101 -28 -131q-1 -39 51 -39t114.5 68.5t114.5 201.5l25 -8q-71 -174 -145.5 -244t-202.5 -70t-215.5 50
t-87.5 137q-1 35 17 97t105.5 348.5t90.5 295.5h-297q-166 -637 -221 -817q-132 -428 -350 -499.5t-320 -71.5t-169 52.5t-67 130.5z" />
    <glyph glyph-name=".notdef" horiz-adv-x="401" 
 />
    <glyph glyph-name=".null" horiz-adv-x="0" 
 />
    <glyph glyph-name="nonmarkingreturn" horiz-adv-x="682" 
 />
    <glyph glyph-name="NUL" horiz-adv-x="0" 
 />
    <glyph glyph-name="NUL" horiz-adv-x="0" 
 />
    <glyph glyph-name="space" unicode=" " horiz-adv-x="401" 
 />
    <glyph glyph-name="exclam" unicode="!" horiz-adv-x="675" 
d="M533 1434q91 0 133 -58t25 -140t-77.5 -188t-160 -268.5t-170.5 -308.5h-21q12 195 7 429.5t22 329.5q27 94 89 149t153 55zM0 162q0 79 57 133.5t136 54.5t135.5 -54.5t56.5 -133.5t-56.5 -134t-135.5 -55t-136 55t-57 134z" />
    <glyph glyph-name="quotedbl" unicode="&#x22;" horiz-adv-x="864" 
d="M858 1509q69 0 103.5 -38t21.5 -102t-129.5 -230t-144.5 -213h-21q-1 40 -6.5 113t-13 179t5.5 144q14 71 64.5 109t119.5 38zM457 1509q69 0 103.5 -38t21.5 -101t-130 -230t-145 -214h-20q-1 45 -12.5 195t-2.5 241q14 71 65 109t120 38z" />
    <glyph glyph-name="numbersign" unicode="#" horiz-adv-x="1081" 
d="M377 496l268 61l68 248l-269 -62zM31 180l65 248l236 55l67 248l-235 -55l65 248l238 57l80 303h41l-78 -293l268 64l62 229h41l-58 -219l238 57l-66 -248l-237 -57l-68 -248l238 58l-66 -248l-237 -57l-90 -336h-41l86 323l-269 -61l-69 -262h-41l65 250z" />
    <glyph glyph-name="dollar" unicode="$" horiz-adv-x="1239" 
d="M616 823l166 -24l117 442q-94 8 -174 -8zM608 27q93 19 151.5 94t68.5 157t-19.5 127.5t-85.5 57.5zM469 990q0 -73 34.5 -111t82.5 -48l104 394q-96 -27 -158.5 -94.5t-62.5 -140.5zM692 469l-166 25l-127 -482q102 -4 174 8zM1028 815q-100 0 -100 86q0 76 67 128.5
t90 96.5q-2 34 -41.5 67t-111.5 44l-119 -444q135 -26 214 -102t79 -190q0 -216 -146 -337.5t-360 -165.5l-78 -289h-33l76 283q-37 -4 -172 -4l-76 -279h-32l75 281q-163 13 -252.5 81t-89.5 167t59 178.5t150 79.5q48 0 73.5 -25t25.5 -67q0 -75 -77.5 -125.5
t-111.5 -90.5q-9 -62 55 -110.5t177 -61.5l127 484q-145 22 -224 100t-79 190q0 213 149 324.5t358 145.5l54 200h32l-53 -196q77 11 174 4l51 192h33l-51 -194q143 -16 210 -79t67 -149t-59.5 -154.5t-129.5 -68.5z" />
    <glyph glyph-name="percent" unicode="%" horiz-adv-x="1742" 
d="M1171 -4q63 0 123 106t114.5 334t-85.5 228q-57 0 -106 -60t-92 -189t-50 -274t96 -145zM1325 688q151 0 240.5 -73t85.5 -201t-72 -229.5t-179.5 -157.5t-249.5 -56t-223.5 73t-82.5 200q5 181 145.5 312.5t335.5 131.5zM582 1247q-57 0 -106.5 -60.5t-93 -191
t-48.5 -260.5q-11 -155 101 -155q58 0 118 106t114.5 333.5t-85.5 227.5zM195 -170l1298 1583l35 -27l-1297 -1583zM595 1272q139 0 228 -73t85 -201t-72.5 -229.5t-178 -157.5t-247.5 -56t-223 72.5t-83 195.5t67 225t175 163t249 61z" />
    <glyph glyph-name="ampersand" unicode="&#x26;" horiz-adv-x="1699" 
d="M1505 1366q-32 0 -53.5 -13.5t-21.5 -27.5q120 -25 120 -123q0 -57 -38 -86t-94 -29t-97.5 35.5t-38.5 105.5t62.5 114t161.5 44t160 -62.5t58 -190.5t-108.5 -203.5t-280.5 -77.5q106 -25 162 -109.5t53 -174.5t-53.5 -218.5t-248.5 -256.5t-508 -128q-311 0 -477 108
t-159 308q3 114 81 203t198 143q-98 69 -138 152t-38 147q6 131 97.5 207t233.5 76t237.5 -88.5t121.5 -210.5l-12 -4q-23 37 -88 63.5t-169 26.5t-179 -65t-78 -159t37 -131q140 76 228 76q168 0 163 -110q-2 -43 -32.5 -73t-76.5 -30q-83 0 -146 29.5t-105 55.5l-38 24
q-31 -47 -34 -119q-5 -154 139.5 -250t386.5 -96q159 0 290 43.5t211 127t84 193.5t-71 176t-195 66t-182 -52t-64 -134t41 -134.5t110 -52.5t95 31q-62 3 -105 39.5t-41 98.5t42 91t92 29t95 -36t41 -106t-56 -118.5t-156 -48.5t-178 68t-76 176q0 204 130 269.5t247 65.5
l217 -10q87 0 132.5 56t47.5 120t-35 112t-104 48z" />
    <glyph glyph-name="quotesingle" unicode="'" horiz-adv-x="462" 
d="M457 1509q69 0 103.5 -38t21.5 -101t-130 -230t-145 -214h-20q-1 45 -12.5 195t-2.5 241q14 71 65 109t120 38z" />
    <glyph glyph-name="parenleft" unicode="(" horiz-adv-x="727" 
d="M57 100q-74 260 -6 516q135 510 768 916l43 -53q-235 -150 -417 -389q-182 -240 -251 -484t-20 -496t203 -391l-53 -47q-193 168 -267 428z" />
    <glyph glyph-name="parenright" unicode=")" horiz-adv-x="727" 
d="M-158 -274q236 150 418 389t251 483t20 496t-203 391l53 47q193 -168 267 -428t7 -516q-134 -508 -770 -916z" />
    <glyph glyph-name="asterisk" unicode="*" horiz-adv-x="798" 
d="M287 979.5q-35 11.5 -49 54.5t12.5 71.5t63.5 28.5t98.5 -4t111.5 3q-29 19 -99.5 49.5t-94.5 42.5q-46 23 -54 58.5t26 68.5t68 27t50 -33t49.5 -98.5t65.5 -106.5q2 34 -12.5 116.5t-6.5 117.5t34 51.5t64 7.5t53 -36.5t6 -59.5t-60.5 -99t-65.5 -102q29 15 89.5 65
t93.5 68t63.5 6t42.5 -55t-12 -68.5t-58 -27.5t-113.5 2t-99.5 -3q24 -16 86.5 -43t102.5 -47t47 -59t-29 -69q-71 -59 -123 22q-11 18 -41.5 91t-52.5 99q-2 -25 14.5 -112.5t8.5 -121.5t-34 -51t-63 -8t-52 36t-7 59t60 102t60 100q-29 -14 -88.5 -66t-89.5 -70t-65 -6.5z
" />
    <glyph glyph-name="plus" unicode="+" 
d="M90 473v119h430v434h127v-434h430v-119h-430v-434h-127v434h-430z" />
    <glyph glyph-name="comma" unicode="," horiz-adv-x="550" 
d="M254 0q-120 0 -167.5 53t-36.5 133t69.5 130.5t136.5 50.5q109 0 159.5 -80.5t22.5 -222.5t-156.5 -271.5t-306.5 -198.5l-10 23q122 55 214 156.5t126 226.5h-51z" />
    <glyph glyph-name="hyphen" unicode="-" horiz-adv-x="811" 
d="M-4 391l74 258h690l-74 -258h-690z" />
    <glyph glyph-name="period" unicode="." horiz-adv-x="550" 
d="M53 172q0 84 59.5 141.5t143.5 57.5t143.5 -57.5t59.5 -141.5t-59.5 -141.5t-143.5 -57.5t-143.5 57.5t-59.5 141.5z" />
    <glyph glyph-name="slash" unicode="/" horiz-adv-x="835" 
d="M-266 -410l1163 1950l53 -31l-1163 -1949z" />
    <glyph glyph-name="zero" unicode="0" horiz-adv-x="1380" 
d="M541 -8q102 0 199 163t154.5 395.5t61.5 448.5q2 121 -29 184.5t-107 63.5t-149.5 -91t-156.5 -316t-106 -574q-9 -144 21.5 -209t111.5 -65zM37 444q0 161 64 313t170.5 265t254.5 181.5t308 68.5q230 0 359.5 -119t135.5 -328q6 -166 -56.5 -324t-171 -275t-259.5 -188
t-314 -71q-233 0 -362 129t-129 348z" />
    <glyph glyph-name="one" unicode="1" horiz-adv-x="940" 
d="M381 1096q-129 0 -223 114l10 11q64 -43 214 -43t289 29t203 61h27q-63 -118 -115 -307l-227 -822q-21 -72 33 -98q41 -21 147 -27l-4 -14h-825l4 14q175 9 214.5 45.5t49.5 69.5l268 971q-24 -4 -65 -4z" />
    <glyph glyph-name="two" unicode="2" horiz-adv-x="1243" 
d="M306 565q-216 -1 -215 201q1 102 71.5 202.5t176.5 165t224.5 101.5t212.5 37q184 0 308 -61.5t126 -204.5q0 -237 -241 -398.5t-658 -277.5l-73 -45h622q120 0 268 202l21 -6l-240 -481h-987l47 145q23 15 198 126t330 225q155 115 258 276t103 334q0 139 -123 139
q-70 0 -138 -44.5t-143 -149.5t-75 -225q0 -121 102 -121q57 0 87.5 19t40 24t40 30.5t33.5 28.5l10 -10q-76 -94 -178 -163t-208 -69z" />
    <glyph glyph-name="three" unicode="3" horiz-adv-x="1202" 
d="M674 895q-149 -176 -322 -176q-99 0 -152 52.5t-36 148.5t113.5 177t238.5 127t278 46t227.5 -22.5t148.5 -80t52 -135.5q-9 -145 -177 -228.5t-408 -111.5l-41 -24q36 6 92 6t107.5 -5.5t111 -23t100.5 -47t67.5 -83t23.5 -131.5t-77.5 -181.5t-291.5 -180.5t-420 -77
t-314 68t-93 218q12 100 93 167t163 67t121 -40.5t33 -90.5q-10 -89 -99.5 -148t-99.5 -94q-10 -45 35.5 -87t136.5 -42q133 0 251 129t166 316q54 231 -74 231q-73 0 -130 -40.5t-113 -82.5l-18 49q240 131 317 202.5t134.5 190.5t14 201t-128.5 82t-164 -81t-102 -173
q-17 -55 0 -102t64 -47q77 0 157 69z" />
    <glyph glyph-name="four" unicode="4" horiz-adv-x="1280" 
d="M394 178q61 0 181 -12l164 438h357l-168 -442q178 13 237 88l15 -12q-145 -220 -306 -252l-124 -348h-351l125 356q-58 10 -150 63.5t-192 53.5q-4 0 -61 -5q-15 -14 -80 -76.5t-98 -62.5q-97 0 -97 84q0 92 144 92l119 -10q134 120 256 408.5t251 728.5h379
q-73 -223 -219.5 -453t-311.5 -404t-325 -284q18 3 106 26t149 23z" />
    <glyph glyph-name="five" unicode="5" horiz-adv-x="1157" 
d="M580 918q-203 0 -275 8l-137 -297q197 166 424 166t348.5 -96t97.5 -281q-14 -110 -83 -197t-228 -168.5t-430 -81.5q-169 0 -274.5 62t-85.5 196q11 81 73.5 131t136.5 50t111 -47t30 -100t-31.5 -86.5t-59 -64t-47.5 -49.5q-3 -32 41.5 -51.5t107.5 -19.5
q114 0 209.5 118t123.5 294t-10.5 252.5t-152.5 76.5q-84 0 -177 -51t-149 -125l-34 10l305 695h24q15 -25 152 -52.5t254 -27.5q272 0 409 92l15 -12q-259 -344 -688 -344z" />
    <glyph glyph-name="six" unicode="6" horiz-adv-x="1304" 
d="M514 -6q59 0 107 41t91 135.5t62 222.5t18 215t-33 141t-93 54q-85 0 -169 -105.5t-110 -294.5q-54 -409 127 -409zM1226.5 1355q60.5 -79 44.5 -157q-31 -151 -173 -151q-111 0 -133 81.5t-7 176.5q4 51 -5 74.5t-48 23.5q-78 0 -197 -138.5t-249 -543.5l8 -4
q158 172 350 172t294.5 -120.5t64.5 -328.5t-215 -340.5t-474 -132.5q-170 0 -336.5 135.5t-100.5 499.5q26 144 97 288t165 243t261 200t380 101t273.5 -79z" />
    <glyph glyph-name="seven" unicode="7" horiz-adv-x="995" 
d="M410 924q-76 0 -149.5 -49.5t-162.5 -186.5l-26 8l325 635h21l6 -114h817l-8 -29q-129 -119 -220.5 -227t-217.5 -279q-189 -258 -334 -686q-82 -244 -246 -244q-76 0 -123.5 49t-23.5 145t99 201t199 233t202 201.5t192.5 175.5t185.5 167h-536z" />
    <glyph glyph-name="eight" unicode="8" horiz-adv-x="1157" 
d="M673 1255q-88 0 -156.5 -55t-82.5 -134t16 -131t104 -80t160.5 -56t100.5 -33q44 32 78.5 101.5t38.5 128.5t-7 101.5t-37 79t-76.5 57.5t-138.5 21zM492 -8q98 0 184.5 67.5t101.5 159.5t-19.5 147.5t-152.5 94.5q-204 64 -254 90q-58 -45 -99 -122t-48 -151t4.5 -119
t41 -83.5t86.5 -61t155 -22.5zM746 1284q170 0 275 -71t93 -197q-18 -158 -274 -264q144 -63 189.5 -148t30.5 -211q-15 -125 -110.5 -225t-235.5 -152.5t-316 -52.5t-293.5 77t-102.5 223t144 215t184 87q-101 60 -146 131.5t-34 188.5t90 207.5t207.5 141t298.5 50.5z" />
    <glyph glyph-name="nine" unicode="9" horiz-adv-x="1304" 
d="M618 434q85 0 169 105.5t110 294.5q54 409 -127 409q-59 0 -107 -41t-91 -135.5t-62 -222.5t-18 -215t33 -141t93 -54zM168 172q116 0 136.5 -82t6.5 -176q-4 -51 5.5 -74.5t48.5 -23.5q121 0 246.5 194.5t213.5 505.5l-8 4q-157 -172 -349 -172t-293 120t-69 324
t204 341t474 137q171 0 343.5 -136t106.5 -502q-26 -146 -129.5 -354.5t-339.5 -350.5t-489 -142q-86 0 -147.5 23.5t-103.5 79.5t-26 133t62.5 114t106.5 37z" />
    <glyph glyph-name="colon" unicode=":" horiz-adv-x="634" 
d="M197 766q0 84 59 141.5t143 57.5t143.5 -57.5t59.5 -141.5t-59.5 -141.5t-143.5 -57.5t-143 57.5t-59 141.5zM66 170q0 84 59 141.5t143 57.5t143.5 -57.5t59.5 -141.5t-59.5 -141.5t-143.5 -57.5t-143 57.5t-59 141.5z" />
    <glyph glyph-name="semicolon" unicode=";" horiz-adv-x="636" 
d="M197 766q0 84 59 141.5t143 57.5t143.5 -57.5t59.5 -141.5t-59.5 -141.5t-143.5 -57.5t-143 57.5t-59 141.5zM285 0q-120 0 -167.5 53t-36.5 133t69.5 130.5t136.5 50.5q109 0 159 -80.5t22 -222.5t-156 -271.5t-306 -198.5l-10 23q122 55 214 156.5t126 226.5h-51z" />
    <glyph glyph-name="less" unicode="&#x3c;" 
d="M123 481v103l905 420v-127l-747 -345l747 -344v-127z" />
    <glyph glyph-name="equal" unicode="=" 
d="M131 637v119h905v-119h-905zM131 309v119h905v-119h-905z" />
    <glyph glyph-name="greater" unicode="&#x3e;" 
d="M139 61v127l748 344l-748 345v127l905 -420v-103z" />
    <glyph glyph-name="question" unicode="?" horiz-adv-x="1114" 
d="M213 582q0 213 270 342q50 24 70 33.5t58 30t74.5 50.5t53.5 72.5t14 113.5q-2 71 -50.5 120t-153.5 49t-183.5 -59.5t-78.5 -136.5t45.5 -118t101.5 -41t78 11v12q-70 -2 -112 29.5t-42 89.5t38 97.5t104 39.5t106.5 -38t40.5 -113t-58 -117.5t-139 -42.5t-134.5 48
t-53.5 144t92.5 165t249.5 69q212 0 340.5 -90t128.5 -222q0 -238 -301 -368q-188 -81 -260 -137.5t-72 -133.5q0 -31 21.5 -48t46.5 -17q59 0 103.5 46.5t58.5 119.5l16 -7q-15 -92 -71.5 -146t-156.5 -54t-172.5 52.5t-72.5 154.5zM125 162q0 79 56.5 133.5t135.5 54.5
t136 -54.5t57 -133.5t-57 -134t-136 -55t-135.5 55t-56.5 134z" />
    <glyph glyph-name="at" unicode="@" horiz-adv-x="2023" 
d="M938 119q69 0 170 178l133 397q-23 148 -104 148q-50 0 -98.5 -62.5t-102 -208t-57.5 -321.5q-1 -67 16 -99t43 -32zM1315 172q0 -76 69 -76q62 0 124.5 45.5t112.5 122.5t81 191t31 246t-50.5 243t-181 218.5t-371.5 107.5q-132 0 -259.5 -61t-230.5 -171.5t-166.5 -283
t-63.5 -366.5q0 -378 184.5 -559t478.5 -181q244 0 400.5 100t244 217.5t142.5 274.5l20 -7q-123 -416 -393 -544.5t-518 -128.5t-444 99.5t-306 283.5t-110 424q0 185 85.5 411.5t355.5 395.5t558 169q287 0 429 -118.5t196.5 -247.5t54.5 -293t-53 -304t-152 -226
t-215 -86t-186 43t-76 120l-6 2q-103 -161 -221 -161q-93 0 -157.5 70t-64.5 181t38 207t100 171.5t149.5 123t159.5 47.5q129 0 149 -122h7l40 110h236l-197 -565q-24 -66 -24 -123z" />
    <glyph glyph-name="A" unicode="A" horiz-adv-x="1398" 
d="M279 537h413l-57 534zM733 102q0 18 -2 35l-35 361h-444l-168 -273q-59 -95 -59 -123q0 -51 79 -69.5t142 -18.5l-6 -14h-508l6 14q5 1 22 2t25.5 2.5t29 5t44.5 17.5q83 47 153 160q65 94 431 646.5t380 573.5h156q17 -129 84 -688.5t72 -597.5t23.5 -76.5t133.5 -44.5
l-6 -14h-797l7 14q207 10 230 56q7 14 7 32z" />
    <glyph glyph-name="B" unicode="B" horiz-adv-x="1509" 
d="M694 752q151 0 249.5 82t127.5 231q12 56 12 114t-24 110q-40 87 -146 87q-34 0 -84 -4l-174 -620h39zM479 105q-1 -33 31 -56t94 -24q115 0 211 95.5t131 257.5t-18 256q-54 92 -201 91q-34 0 -82 -6l-166 -608v-6zM1010 1399q493 0 493 -255q0 -27 -6 -57
q-26 -141 -161 -217t-365 -108l-4 -19q193 -10 302 -90.5t109 -215.5t-139 -286t-651 -151h-764l4 14q133 9 166 19q66 21 86 94l315 1137q6 22 6 39q0 47 -35 59t-161 22l4 15h801z" />
    <glyph glyph-name="C" unicode="C" horiz-adv-x="1400" 
d="M39 518q0 199 82 372t219 291t317.5 185.5t376.5 67.5q112 0 211 -27t164 -66l84 76h23l-119 -524h-25q-15 231 -111.5 373.5t-232.5 142.5q-210 0 -373 -274q-89 -149 -139.5 -343t-50.5 -366t77.5 -270.5t223.5 -98.5t282.5 86t254.5 240l22 -16q-110 -174 -282.5 -287
t-391.5 -113q-271 0 -441.5 139.5t-170.5 411.5z" />
    <glyph glyph-name="D" unicode="D" horiz-adv-x="1626" 
d="M483 97q0 -75 84 -74q130 0 243.5 95.5t195.5 264.5q110 224 145 532q7 58 7 110q0 137 -49 227q-67 124 -212 124q-44 0 -68 -4l-333 -1208q-13 -38 -13 -67zM401 1303q0 47 -35 59t-161 22l4 15h782q293 0 408 -106.5t149 -192.5t36 -189q0 -201 -83.5 -379
t-216.5 -294q-272 -238 -686 -238h-774l4 14q133 9 166 19q66 21 86 94l315 1137q6 22 6 39z" />
    <glyph glyph-name="E" unicode="E" horiz-adv-x="1396" 
d="M401 1303q0 47 -35 59t-161 22l4 15h1229l-103 -367h-22q-51 161 -80 219q-50 99 -113 113q-45 10 -151 10h-142l-178 -637h84q100 0 136.5 21.5t66.5 44.5t82 91t82 118h22l-161 -584h-23q-4 56 -18 128t-32 98q-39 59 -163 59h-84l-145 -531q-29 -104 -9 -131
q19 -26 107 -26t162.5 3t140.5 54t181 163t175 183h21l-148 -428h-1302l4 14q133 9 166 19q66 21 86 94l315 1137q6 22 6 39z" />
    <glyph glyph-name="F" unicode="F" horiz-adv-x="1304" 
d="M401 1303q0 47 -35 59t-161 22l4 15h1290l-102 -371h-23q-23 91 -76.5 209.5t-128.5 126.5q-75 10 -159 10h-179l-182 -647h135q51 0 96 16t61.5 27.5t50.5 38.5t79 87.5t70 109.5h22l-164 -592h-20q0 51 -12.5 118t-30.5 95q-41 75 -160 75h-133l-158 -571
q-6 -22 -6 -39q0 -44 39 -59q19 -7 164 -19l-4 -14h-854l4 14q133 9 166 19q66 21 86 94l315 1137q6 22 6 39z" />
    <glyph glyph-name="G" unicode="G" horiz-adv-x="1579" 
d="M39 542q0 144 79 353t344 374t591 165q116 0 219 -26t168 -67l84 76h28l-116 -518h-27q-23 235 -123 372.5t-242 137.5t-258.5 -111.5t-191.5 -279.5q-150 -335 -150 -677q0 -343 238 -343q160 0 250 152q84 307 88 325t3 35q0 18 -6 38q-7 20 -39 36t-138 22l4 17h755
l-4 -17q-93 -8 -128 -20t-52.5 -37.5t-28.5 -65.5l-129 -501l-22 -9l-111 127q-208 -103 -298 -117t-172 -14t-169.5 16t-170.5 56t-143 101t-96 158.5t-36 241.5z" />
    <glyph glyph-name="H" unicode="H" horiz-adv-x="1789" 
d="M401 1303q0 47 -35 59t-161 22l4 15h821l-4 -15q-122 -14 -137 -18q-68 -18 -90 -100l-144 -518h500l143 516q6 21 6 38q0 45 -40 62q-21 9 -125 20l4 15h819l-4 -15q-133 -11 -164 -18q-69 -15 -92 -100l-313 -1133q-6 -23 -6 -41q0 -46 40 -59q25 -9 156 -19l-4 -14
h-819l4 14q79 4 141 20t82 93l162 582h-500l-160 -578q-7 -23 -7 -41q0 -44 36 -56t133 -20l-4 -14h-819l4 14q133 9 166 19q66 21 86 94l315 1137q6 22 6 39z" />
    <glyph glyph-name="I" unicode="I" horiz-adv-x="890" 
d="M403 1303q0 47 -35 59t-161 22l4 15h842l-4 -15q-10 -1 -70.5 -6t-87.5 -12q-68 -18 -90 -100l-314 -1135q-6 -22 -6 -39q-1 -44 31 -56t158 -22l-4 -14h-840l4 14q133 9 166 19q66 21 86 94l315 1137q6 22 6 39z" />
    <glyph glyph-name="J" unicode="J" horiz-adv-x="1474" 
d="M362 -70q0 -102 -100 -178q0 -40 28 -61t72 -21t93 18.5t111 154.5t218 839l-270 -2l6 31l271 8q39 116 125.5 208t203.5 150q-87 -10 -180 -10t-161 28.5t-126 69.5t-154 111t-206 70q-28 0 -51 -29t-23 -65t43 -83q113 -3 180.5 -39.5t67.5 -95.5t-39.5 -100t-95.5 -41
q-90 0 -150.5 76.5t-60.5 177.5q0 154 93 235.5t242 81.5t245.5 -59t152.5 -119t108.5 -112.5t129.5 -65.5h34q66 113 138 186.5t133 73.5q31 0 53.5 -25t22.5 -57q0 -63 -81 -117.5t-202 -85.5q-16 -28 -29 -171.5t-22 -186.5l268 8l-16 -47l-258 -2q-67 -322 -148 -541
q-46 -123 -126.5 -222.5t-222 -190t-314.5 -90.5q-255 0 -302 108t-47 171t48 116t128 53t125 -46t45 -112z" />
    <glyph glyph-name="K" unicode="K" horiz-adv-x="1630" 
d="M401 1303q0 47 -35 59t-161 22l4 15h821l-4 -15q-122 -14 -137 -18q-68 -18 -90 -100l-156 -559h31q242 171 470.5 366t241.5 244q8 30 -56 45.5t-173 21.5l4 15h631l-4 -15q-126 -7 -207 -35.5t-171 -98.5t-214.5 -177t-206.5 -170q149 -294 314 -696q48 -127 106 -162
q41 -23 115 -31l-6 -14h-797l6 14q93 10 115 20q46 18 46 72t-55 212t-163 358h-33l-152 -545q-7 -23 -7 -41q0 -44 36 -56t133 -20l-4 -14h-819l4 14q133 9 166 19q66 21 86 94l315 1137q6 22 6 39z" />
    <glyph glyph-name="L" unicode="L" horiz-adv-x="1333" 
d="M401 1303q0 47 -35 59t-161 22l4 15h838l-5 -15q-9 -1 -67 -6t-86 -12q-68 -18 -90 -100l-299 -1065q-33 -122 -12.5 -146.5t66 -27t116.5 -2.5q162 1 227 51t183 168.5t186 197.5h22l-151 -442h-1313l4 14q133 9 166 19q66 21 86 94l315 1137q6 22 6 39z" />
    <glyph glyph-name="M" unicode="M" horiz-adv-x="1980" 
d="M380 1258q0 46 -34 80q-34 36 -156 46l5 15h608l117 -930l479 756q67 103 92 174h661l-4 -15q-7 -1 -69.5 -5.5t-96.5 -14.5q-69 -21 -90 -100l-313 -1131q-5 -19 -5 -35q0 -64 53 -71t92 -9.5t48 -3.5l-4 -14h-852l4 14q7 1 76 6t94 15q80 36 97 104l327 1186
l-833 -1302h-96v26q0 93 -17 258l-117 1004l-272 -981q-34 -120 -35 -156t-2 -41q1 -59 21 -75t46.5 -23.5t45 -10t58 -6t44.5 -4.5l-2 -14h-551l2 14q6 1 76.5 4.5t114.5 32.5q80 49 143 279l234 837q11 45 11 91z" />
    <glyph glyph-name="N" unicode="N" horiz-adv-x="1556" 
d="M366 1180q0 72 -38 123q-44 65 -152 81l4 15h531l508 -959l172 623q32 119 32 197t-41 95t-99.5 23t-61.5 6l6 15h549l-7 -15q-8 -1 -79 -4.5t-117 -31.5q-82 -52 -143 -279l-300 -1075h-118l-611 1161l-227 -821q-34 -123 -34 -189t15 -83t33 -23.5t43 -10.5t45 -6.5
t44.5 -4.5t29.5 -3l-6 -14h-545l6 14q9 1 82.5 8t108.5 31q82 55 141 281l221 794q8 29 8 52z" />
    <glyph glyph-name="O" unicode="O" horiz-adv-x="1622" 
d="M442 271q0 -279 201 -279q216 0 373 366q72 176 118 387t46 360v19q-7 283 -199 283q-121 0 -218.5 -110.5t-166.5 -280.5t-109 -363t-45 -356v-26zM39 545q0 146 57.5 289.5t161.5 261.5q136 155 329 245.5t404 90.5q261 0 426.5 -139.5t165.5 -412.5v-6
q0 -175 -68.5 -338.5t-200.5 -293.5t-310.5 -202.5t-378.5 -72.5q-271 -1 -429 147t-157 421v10z" />
    <glyph glyph-name="P" unicode="P" horiz-adv-x="1431" 
d="M1076 1222q0 152 -181 152h-66l-204 -743h37q162 0 261 95.5t136 264.5q17 79 17 231zM401 1303q0 47 -35 59t-161 22l4 15h829q250 0 370 -104q98 -85 98 -217t-83 -231t-244 -171t-450 -72h-113l-127 -465q-5 -20 -5 -36q0 -44 34 -61t108.5 -22.5t78.5 -5.5l-5 -14
h-876l4 14q133 9 166 19q66 21 86 94l315 1137q6 22 6 39z" />
    <glyph glyph-name="Q" unicode="Q" horiz-adv-x="1564" 
d="M276 244q-137 0 -176 -138q12 -50 69 -86.5t173 -36.5q34 -1 91 9q58 10 93 28q-133 224 -250 224zM-66 98q0 66 85 116t249 50q358 0 533 -129q102 74 209.5 239t107.5 609q0 208 -81.5 316t-201.5 108t-219.5 -88t-159 -233t-59.5 -293t61.5 -233t175.5 -85t187.5 89.5
t73.5 250.5q0 83 -44.5 134.5t-94.5 56.5q22 -46 22 -71q0 -75 -40 -110q-40 -34 -82 -34h-3q-50 2 -79 33t-29 87t54.5 105t134.5 49t153.5 -51.5t73.5 -176.5q0 -126 -56 -218t-142 -140.5t-181 -48.5q-229 0 -349 112t-120 300t122 342.5t298 201t319 46.5t306.5 -42.5
t267.5 -178.5t104 -308q0 -525 -312.5 -646t-392.5 -146q75 -69 144 -200.5t102 -177.5t91.5 -100.5t189.5 -54.5q81 0 143 27v10q-50 17 -78 57t-28 95t43.5 95t109.5 40t99.5 -39.5t33.5 -90.5t-44.5 -101.5t-151 -105t-221.5 -54.5t-198.5 15t-143 36t-113.5 62.5t-87 74
t-77 102.5t-74 130q-29 60 -29.5 61t-0.5 2q-138 -41 -291 -41t-231.5 39.5t-78.5 105.5z" />
    <glyph glyph-name="R" unicode="R" horiz-adv-x="1619" 
d="M1104 1152q0 222 -201 222h-74l-182 -669h33q355 0 414 339q10 59 10 108zM707 678h-68l-150 -539q-5 -20 -5 -36q0 -44 34 -61t108.5 -22.5t78.5 -5.5l-5 -14h-876l4 14q133 9 166 19q66 21 86 94l315 1137q6 22 6 39q0 47 -35 59t-161 22l4 15h823q246 1 374 -77
t128 -205q0 -103 -51.5 -176t-160.5 -133.5t-341 -94.5l-4 -15q142 -6 225.5 -75.5t83.5 -180.5q0 -164 2 -224q3 -115 80 -114q47 0 89 56.5t69 179.5l24 -4q-42 -201 -132 -281t-246 -80t-228 79t-70 245v27l7 159q0 97 -39 145t-135 48z" />
    <glyph glyph-name="S" unicode="S" horiz-adv-x="1232" 
d="M492 -4q202 0 249 108.5t47 173.5q1 141 -184 232q-34 17 -110 50t-103 46q-234 116 -236 330q0 47 11 100q37 180 191 289t382 109q121 0 232 -28.5t162 -64.5l77 76h27l-88 -485h-21q-67 240 -156.5 357.5t-232.5 117.5q-110 0 -188.5 -74t-78.5 -193q0 -142 166 -220
q84 -40 228 -101q261 -111 261 -352q0 -170 -97.5 -280.5t-232.5 -164t-286 -53.5t-268.5 33.5t-181.5 73.5l-90 -92h-24l90 516h22q76 -241 182 -372.5t251 -131.5z" />
    <glyph glyph-name="T" unicode="T" horiz-adv-x="1366" 
d="M627 1374q-79 0 -121 -4q-74 -8 -203.5 -152t-189.5 -221h-21l113 402h1341l-112 -402h-21q-85 358 -178 371q-47 6 -123 6h-41l-346 -1243q-6 -22 -6 -39q0 -44 39 -59q17 -6 170 -19l-4 -14h-861l5 14q132 9 165 19q66 21 86 94l349 1247h-41z" />
    <glyph glyph-name="U" unicode="U" horiz-adv-x="1603" 
d="M379 1303q0 47 -35 59t-162 22l4 15h832l-4 -15q-9 -1 -62.5 -5.5t-85.5 -12.5q-68 -18 -90 -100l-213 -779q-26 -91 -26 -165q0 -232 272 -232q363 0 471 387l162 586q32 119 32 197t-41 95t-99.5 23t-61.5 6l6 15h549l-6 -15q-8 -1 -79.5 -4.5t-117.5 -31.5
q-78 -50 -143 -279l-168 -602q-68 -242 -233.5 -371t-411.5 -129q-246 -1 -391 99q-144 100 -144 269q0 61 19 132l221 797q6 22 6 39z" />
    <glyph glyph-name="V" unicode="V" horiz-adv-x="1411" 
d="M673 1282q0 -32 5 -68l98 -868l506 764q88 133 107 199q12 40 -59 54t-163 19l4 17h506l-4 -17q-115 -6 -168 -53t-119 -141l-815 -1204h-135l-147 1255q-6 59 -20 87t-50 40t-102 18l4 15h788l-4 -15q-119 -11 -166 -21.5t-57 -29.5t-9 -51z" />
    <glyph glyph-name="W" unicode="W" horiz-adv-x="2099" 
d="M682 1270q0 -36 17 -383t26 -500l379 592q0 77 -16 211t-60 166q-26 21 -51 24t-51 4l4 15h733l-4 -15q-169 -13 -182 -61q-11 -34 -9 -62q29 -538 56 -880q120 179 459 735q99 162 83.5 201t-87 49t-167.5 18l5 15h550l-4 -15q-9 -1 -45.5 -3t-78.5 -22
q-81 -39 -185 -210q-17 -27 -348 -545t-399 -620h-156q-4 75 -22.5 474t-22.5 464l-604 -938h-152q-44 1015 -61 1265q-4 77 -39 104t-115 31l4 15h705l-4 -15q-137 -4 -152 -61q-6 -17 -6 -53z" />
    <glyph glyph-name="X" unicode="X" horiz-adv-x="1523" 
d="M767 1295q0 -62 46 -189l94 -260q34 33 236 227t217 252q6 25 -59 37.5t-171 21.5l5 15h575l-4 -15q-142 -9 -260.5 -93t-527.5 -476q199 -567 222.5 -618.5t32.5 -68.5t13.5 -23t13.5 -19t37 -37.5t135 -34.5l-4 -14h-868l4 14q120 7 183.5 26.5t69.5 40.5
q17 58 -139 503q-93 -86 -278 -267q-220 -211 -220 -246q0 -36 236 -57l-4 -14h-577l4 14q82 6 129 23q107 42 242 162q252 225 456 417l-211 580q-44 107 -70.5 131.5t-54.5 36.5t-106 20l4 15h868l-4 -15q-249 -15 -262 -61q-3 -12 -3 -28z" />
    <glyph glyph-name="Y" unicode="Y" horiz-adv-x="1583" 
d="M520 1423q243 0 337.5 -115.5t94.5 -299.5q0 -131 -24 -267h20q79 289 174 437q157 247 379 247q89 0 148 -53t59 -147t-56 -148.5t-130 -54.5t-117 49t-43 107q0 114 92 188l-10 12q-165 -16 -299 -227q-45 -70 -97.5 -215.5t-89.5 -294.5l-124 -500q-4 -17 -4 -32
q0 -49 44 -68q15 -8 76 -18.5t90 -10.5l-4 -12h-848l5 12q97 6 154 25t75 96l131 533q20 82 20 215t-59.5 217t-154.5 84t-165.5 -39t-103.5 -115l-18 6q67 187 192.5 288t255.5 101z" />
    <glyph glyph-name="Z" unicode="Z" horiz-adv-x="1343" 
d="M756 1368q-150 0 -210 -24t-173 -126t-217 -231h-23l141 412h1217l-6 -23l-1194 -1345h272q162 0 231 13t107 48q209 188 361 365h22l-162 -457h-1298l6 20l1186 1348h-260z" />
    <glyph glyph-name="bracketleft" unicode="[" horiz-adv-x="1271" 
d="M770 -291q-4 82 -170 82t-280.5 -23t-360.5 -77l-51 -17l483 1815l43 -16q50 -12 155.5 -39t197.5 -44.5t214 -17.5q254 0 254 137q0 34 -14 62l10 4q9 -11 19 -40.5t10 -59.5q0 -136 -94 -227t-234 -91t-256 77.5t-250 203.5l-458 -1712q282 175 334.5 199.5t133.5 59.5
t171 35q215 0 211 -186q0 -69 -31 -136.5t-84 -109.5l-10 9q57 57 57 112z" />
    <glyph glyph-name="backslash" unicode="\" horiz-adv-x="835" 
d="M348 1524l62 4l118 -1950l-61 -4z" />
    <glyph glyph-name="bracketright" unicode="]" horiz-adv-x="1171" 
d="M473 1143q-215 0 -211 186q0 69 31 136.5t84 109.5l10 -8q-57 -57 -57 -113q4 -82 170 -82t280.5 23.5t213.5 45.5t147 32l51 16l-483 -1815l-43 17q-47 11 -155.5 38.5t-200 44.5t-212.5 17q-254 0 -254 -137q0 -32 15 -62l-11 -4q-9 11 -18.5 40.5t-9.5 60.5
q0 136 94.5 226.5t234.5 90.5t254 -76.5t250 -203.5l459 1712q-250 -157 -350 -207q-174 -88 -289 -88z" />
    <glyph glyph-name="asciicircum" unicode="^" horiz-adv-x="942" 
d="M538 1272q52 0 77.5 -6t37 -17t34.5 -61t93 -213.5t113 -255.5l-19 -10l-342 333l-432 -335l-14 14q263 398 332 500q21 29 44.5 40t75.5 11z" />
    <glyph glyph-name="underscore" unicode="_" horiz-adv-x="1228" 
d="M-215 -213h1249v-117h-1249v117z" />
    <glyph glyph-name="grave" unicode="`" horiz-adv-x="1024" 
d="M381 1412q0 52 40.5 90t102.5 38q98 0 168 -141l160 -316l-12 -12q-67 38 -178.5 96.5t-162.5 88.5t-84.5 67t-33.5 89z" />
    <glyph glyph-name="a" unicode="a" horiz-adv-x="1271" 
d="M406 182q0 -79 18 -102t50 -23t86.5 42.5t98.5 117.5l185 578q-11 77 -36.5 102t-62.5 25t-94.5 -75t-114.5 -195t-93.5 -255.5t-36.5 -214.5zM37 289q0 271 203 477q100 102 224.5 160.5t211.5 58.5q163 0 182 -143h6l41 131h357l-230 -701q-61 -177 -61 -213t33 -36
q131 0 237 272l25 -8q-59 -147 -110.5 -209t-101.5 -84.5t-106 -22.5q-111 0 -195.5 48t-84.5 153l-9 2q-132 -203 -307 -203q-129 0 -222 76.5t-93 241.5z" />
    <glyph glyph-name="b" unicode="b" horiz-adv-x="1173" 
d="M434 -4q58 0 131 123t143 333t70 373q0 25 -11.5 47.5t-31.5 22.5q-89 0 -192 -147l-193 -607q0 -145 84 -145zM51 272q0 79 31 174l264 824q31 94 31 137q0 55 -82 66q-35 4 -131 8v18l629 21l-228 -699l6 -2q71 86 129.5 126t128.5 40q145 0 231.5 -81t86.5 -264
t-125.5 -367.5t-282.5 -243t-271 -58.5t-210 44.5t-151.5 111t-55.5 145.5z" />
    <glyph glyph-name="c" unicode="c" horiz-adv-x="942" 
d="M23 338q0 124 55.5 242.5t148 207.5t221 143t250.5 54t196.5 -58.5t74.5 -143.5t-48 -138t-117 -53t-109 36.5t-40 102.5t52 113t133 51q-6 28 -41 49t-87 21t-103.5 -70.5t-94.5 -190.5t-70.5 -270t-27.5 -252q0 -159 98 -159q104 0 195 77.5t159 204.5l23 -10
q-91 -175 -199 -249.5t-243 -74.5q-205 0 -315.5 97t-110.5 270z" />
    <glyph glyph-name="d" unicode="d" horiz-adv-x="1271" 
d="M406 178q0 -120 61 -121q38 0 93 42.5t99 117.5l181 578q-11 77 -34.5 102t-61.5 25t-102 -85t-118 -209t-86 -250t-32 -200zM37 289q0 283 219 495q99 94 217.5 147.5t203.5 53.5q158 0 177 -143h6l125 428q31 109 31 137q0 55 -82 66q-23 3 -152 8v18l641 21
l-391 -1248q-61 -190 -61 -213q0 -36 33 -36q131 0 237 272l25 -8q-59 -147 -110.5 -209t-101.5 -84.5t-106 -22.5q-111 0 -195.5 48t-84.5 153l-9 2q-132 -203 -307 -203q-129 0 -222 76.5t-93 241.5z" />
    <glyph glyph-name="e" unicode="e" horiz-adv-x="921" 
d="M713 885q0 76 -39 76q-55 0 -119 -146.5t-106 -335.5q129 22 185 119.5t72 217.5q6 50 7 69zM697 985q118 0 194 -48.5t76 -125.5q0 -277 -521 -354q-30 -161 -30 -271q0 -163 98 -163q203 0 356 282l23 -10q-90 -171 -203.5 -247.5t-277.5 -76.5t-276.5 94t-112.5 279
t129 359.5t278 228t267 53.5z" />
    <glyph glyph-name="f" unicode="f" horiz-adv-x="673" 
d="M-498 -300q0 78 47 125.5t117 47.5t117 -36.5t47 -106.5t-55 -112t-62 -52q1 -11 13 -21t38 -10t58 18.5t53 41t48.5 88.5t60.5 175q32 109 54 179q67 219 230 868h-172l8 27h172l17 61q141 529 625 529q143 0 226 -62.5t83 -141.5t-46.5 -126t-119.5 -47t-118.5 38
t-45.5 102t45.5 113t46.5 58q-7 21 -30 32t-44 11q-50 0 -106.5 -58t-142.5 -386l-31 -123h217l-8 -27h-215q-166 -637 -221 -817q-132 -428 -350 -499.5t-320 -71.5t-169 52.5t-67 130.5z" />
    <glyph glyph-name="g" unicode="g" horiz-adv-x="1116" 
d="M442.5 441.5q12.5 -56.5 59.5 -56.5q34 0 64.5 46.5t61.5 152t31 213.5q0 170 -75 170q-35 0 -66 -44.5t-59.5 -145t-28.5 -190.5q0 -89 12.5 -145.5zM174 -258q0 -90 50 -150.5t136 -60.5q165 0 246.5 92t81.5 199q0 43 -47 83.5t-344 51.5q-50 -12 -86.5 -68.5
t-36.5 -146.5zM1004 723q0 -86 -43 -155t-152.5 -134t-302.5 -65h-158q-26 -9 -47.5 -28t-21.5 -43t21 -45t213.5 -35t215.5 -17q119 -18 189 -99t70 -185q0 -138 -138.5 -272t-532.5 -134q-232 0 -341 60.5t-109 158.5t108.5 161t298.5 82v15q-241 36 -241 196
q0 121 117.5 151.5t166.5 41.5v10q-97 22 -158 84.5t-61 146.5q0 153 143 260t335 107t315 -49q145 145 215 145h2q62 -1 99.5 -46t37.5 -101t-37.5 -97.5t-83.5 -41.5t-85 47.5t-62 130.5q-28 -11 -64 -47v-17q91 -68 91 -186z" />
    <glyph glyph-name="h" unicode="h" horiz-adv-x="1263" 
d="M1014 47q125 0 221 248l25 -8q-63 -155 -142.5 -232.5t-211.5 -77.5t-208.5 48.5t-76.5 132.5q0 59 34 149l138 361q59 156 59 180q0 25 -14.5 41t-38.5 16q-65 0 -123 -60t-135 -181l-207 -664h-373l401 1270q31 94 31 137q0 55 -82 66q-35 4 -131 8v18l629 21
l-244 -756l10 -2q147 223 338 223q106 0 192.5 -66t86.5 -163q0 -49 -41 -152l-115 -301q-65 -168 -65 -217q0 -15 12.5 -27t30.5 -12z" />
    <glyph glyph-name="i" unicode="i" horiz-adv-x="753" 
d="M356 1288q0 87 65 154t171 67q65 0 109 -55.5t44 -139.5t-58 -151t-149 -67t-136.5 52.5t-45.5 139.5zM391 985q112 0 194.5 -58t82.5 -138t-41 -185l-115 -301q-66 -171 -66 -201q0 -54 43 -55q125 0 222 248l24 -8q-63 -155 -142 -232.5t-207 -77.5t-209 46t-81 135
q0 58 35 149l150 389q53 139 53 168q0 49 -37 49q-55 0 -111.5 -61t-105.5 -186l-25 8q62 151 143 231t193 80z" />
    <glyph glyph-name="j" unicode="j" horiz-adv-x="700" 
d="M336 1288q0 88 64.5 154.5t170.5 66.5q65 0 109.5 -55.5t44.5 -139.5t-58 -151t-149 -67t-136.5 52t-45.5 140zM-227 -438q2 -31 52 -31q54 0 110.5 68.5t142.5 382.5q69 228 152 542t83 351q0 38 -37 38q-55 0 -111.5 -61t-105.5 -186l-24 8q62 151 143 231t194 80
t197 -53t84 -139q-1 -51 -37 -190t-163 -564q-74 -242 -277 -399q-167 -129 -383 -129q-92 0 -161.5 51.5t-69.5 127.5t45.5 126.5t116.5 50.5t114 -41.5t43 -94.5t-20.5 -82.5t-50.5 -53t-37 -33.5z" />
    <glyph glyph-name="k" unicode="k" 
d="M606 480q0 69 -42 69q-20 0 -60 -4l-170 -545h-373l401 1270q31 94 31 137q0 55 -82 66q-35 4 -131 8v18l629 21l-297 -945l39 -2q71 0 111.5 59t85.5 136.5t111.5 147t171.5 69.5q194 -1 194 -167q0 -78 -48 -133.5t-119 -55.5t-107 32.5t-36 74.5t14.5 72t48 55
t84 38.5t52.5 28.5q-16 35 -69 35t-89.5 -34t-69 -85.5t-68.5 -106t-92 -104t-124 -70.5q154 -5 242 -52t88 -138q0 -50 -32 -157t-32 -134q0 -45 37 -45q71 0 136.5 72.5t107.5 183.5l25 -8q-60 -147 -143 -228.5t-230 -81.5q-262 0 -262 181q0 41 33.5 164.5t33.5 157.5z
" />
    <glyph glyph-name="l" unicode="l" horiz-adv-x="684" 
d="M49 158q0 54 29 149l305 963q31 94 31 137q0 55 -82 66q-35 4 -131 8v18l628 21l-397 -1262q-55 -171 -55 -200t52 -29t112.5 68t111.5 198l25 -8q-60 -160 -139 -235t-209 -75t-205.5 45t-75.5 136z" />
    <glyph glyph-name="m" unicode="m" horiz-adv-x="1906" 
d="M1657 47q125 0 221 248l25 -8q-63 -155 -142 -232.5t-211 -77.5t-206 48t-74 133q0 57 35 149l129 334q55 140 59 168.5t4 46.5t-14.5 33.5t-47.5 15.5t-88.5 -46.5t-113.5 -141.5l-238 -717h-368l237 696q43 115 43 143q0 66 -53 66q-58 0 -110.5 -48.5t-108.5 -139.5
l-240 -717h-372l223 655q7 22 37 106t30 108q0 44 -37 44q-55 0 -111.5 -61t-105.5 -186l-24 8q62 151 143 231t182 80t190 -46t89 -151l8 -2q145 199 316 199q128 0 198.5 -54.5t75.5 -142.5l8 -2q113 145 189.5 172t128.5 27q106 0 189 -65.5t83 -163.5q0 -49 -41 -152
l-115 -301q-65 -168 -65 -217q0 -15 12.5 -27t30.5 -12z" />
    <glyph glyph-name="n" unicode="n" horiz-adv-x="1325" 
d="M913 848q0 57 -68 57q-85 0 -204 -188l-240 -717h-378l223 655q7 22 37 106t30 108q0 44 -37 44q-55 0 -111.5 -61t-105.5 -186l-24 8q62 151 143 231t182 80t193 -46t92 -151l8 -2q142 199 322 199q106 0 192 -66t86 -163q0 -49 -41 -152l-114 -301q-66 -171 -66 -201
q0 -54 43 -55q125 0 221 248l25 -8q-63 -155 -142 -232.5t-211 -77.5t-209 48.5t-77 132.5q0 57 35 149l137 361q59 155 59 180z" />
    <glyph glyph-name="o" unicode="o" horiz-adv-x="1173" 
d="M387 103q0 -111 68 -111q90 0 188 235q57 137 94.5 311.5t40.5 311.5v8q0 107 -57 107t-120.5 -94.5t-115.5 -245.5q-95 -283 -98 -516v-6zM33 388q0 108 59.5 222t159.5 198q212 177 477 177q175 0 293.5 -109.5t118.5 -291.5q0 -122 -55.5 -233t-153.5 -197
t-224 -134.5t-232 -48.5t-180 28t-132.5 78t-94.5 126.5t-36 184.5z" />
    <glyph glyph-name="p" unicode="p" horiz-adv-x="1284" 
d="M557 27q48 0 108 97.5t115 248.5q101 284 101 469q0 63 -45 63t-88 -39.5t-111 -128.5l-184 -583q32 -127 104 -127zM313 880q0 12 -10.5 22.5t-23.5 10.5q-123 0 -220 -247l-24 8q124 311 334 311q256 0 256 -209l8 -2q117 159 185 185t122 26q114 0 208.5 -73.5
t94.5 -258.5q0 -243 -168 -440q-96 -112 -224.5 -176t-254.5 -64q-59 0 -99.5 40t-52.5 91h-8l-106 -352q-29 -91 -29 -137q0 -55 84 -66q40 -5 121 -8l-6 -20h-770l6 18q106 -1 138 37q26 29 35 48.5t15.5 33.5t9.5 23l14 41q11 33 11 34l289 903q9 29 24 73.5t22 66
t13 45.5t6 36z" />
    <glyph glyph-name="q" unicode="q" horiz-adv-x="1220" 
d="M406 173q0 -116 61 -116q38 0 93 42.5t99 117.5l187 586q-24 119 -103 119q-93 0 -211 -277q-55 -127 -90.5 -264.5t-35.5 -207.5zM854 -385q0 -55 84 -66q40 -5 121 -8l-6 -20h-797l6 18q133 0 172 45q19 21 28 40.5t15.5 33.5t9.5 23l14 41q11 33 11 34l117 363l-8 2
q-120 -150 -258 -150t-232 74t-94 238t72 302t178 226q210 174 411 174q138 0 162 -143h8l199 131h195l-379 -1221q-29 -91 -29 -137z" />
    <glyph glyph-name="r" unicode="r" horiz-adv-x="1034" 
d="M313 880q0 12 -11 22.5t-26 10.5q-55 0 -111.5 -61t-105.5 -186l-24 8q62 151 143 231t215 80t190 -68t56 -139l8 -2q62 96 123.5 150.5t135.5 54.5t124.5 -47t50.5 -127t-42.5 -136.5t-116.5 -56.5t-112 36t-38 93v9q3 58 52.5 108t49.5 74q-55 0 -121.5 -67.5
t-115.5 -157.5l-236 -709h-378l223 655q7 22 20 58.5t19.5 56t14 43.5t10.5 39.5t3 27.5z" />
    <glyph glyph-name="s" unicode="s" horiz-adv-x="958" 
d="M82 135q0 -50 84 -95.5t183 -45.5t160.5 51t61.5 115t-35.5 99t-56 51t-113.5 85q-93 68 -143.5 134.5t-50.5 154.5q0 145 122 223t335 78q148 0 233.5 -60.5t85.5 -140.5t-44 -127t-106 -47t-98 31t-36 81t29 80t63.5 40t65.5 17t34 13q-6 29 -65.5 60t-136.5 31
t-126 -38.5t-49 -111.5t54 -120t156 -124q103 -77 144 -136.5t41 -149.5q0 -139 -127 -225.5t-374 -86.5q-167 0 -269 67t-102 169q0 78 52 136t124 58t109 -41t37 -87t-33 -87t-109 -41l-50 3q-50 4 -50 -13z" />
    <glyph glyph-name="t" unicode="t" horiz-adv-x="755" 
d="M59 164q0 40 99 368.5t114 372.5h-186l8 27h187l92 317h370l-94 -317h207l-8 -27h-205l-209 -706q-28 -101 -28 -131q0 -39 52 -39t114 68.5t114 201.5l25 -8q-71 -174 -145.5 -244t-202.5 -70t-216 50t-88 137z" />
    <glyph glyph-name="u" unicode="u" horiz-adv-x="1325" 
d="M428 115q0 -58 68 -58q84 0 204 189l240 717h379l-223 -656q-8 -24 -38 -110.5t-30 -106.5t11 -30.5t26 -10.5q55 0 111.5 61.5t105.5 186.5l25 -8q-62 -151 -142.5 -231.5t-182.5 -80.5t-194 46t-92 151l-8 2q-142 -199 -321 -199q-106 0 -192.5 66.5t-86.5 163.5
q0 48 41 151l115 301q65 168 65 218q0 15 -12.5 26.5t-30.5 11.5q-125 0 -221 -247l-25 8q63 155 142.5 232t211.5 77t208.5 -48t76.5 -120t-34 -162l-138 -360q-59 -155 -59 -180z" />
    <glyph glyph-name="v" unicode="v" horiz-adv-x="1095" 
d="M240 713q-76 0 -125 30l-49 -135l-23 8l125 365h16q25 -50 82.5 -72t112.5 -22q227 0 330 92l18 -18q-61 -59 -121 -183.5t-98.5 -276t-38.5 -259.5t41 -145.5t101 -37.5t131.5 40.5t129.5 108.5q125 145 125 298q0 81 -56.5 124t-113.5 84t-57 108q0 68 42 109.5
t122 41.5q145 0 145 -252q0 -319 -186 -535q-190 -215 -463 -215q-162 0 -252 71t-90 214t119 273.5t399 318.5l-12 10q-202 -145 -354 -145z" />
    <glyph glyph-name="w" unicode="w" horiz-adv-x="1634" 
d="M991 420q0 -86 4 -133q68 106 117 247.5t49 245.5q0 74 -49 74q-34 0 -53.5 -17t-33.5 -60t-24 -157t-10 -200zM469 203q-1 -156 113 -156q54 0 116 51q-34 56 -34 151t35 205t89 200t115 164t118 115.5t95 41.5t71.5 -50t33.5 -137t-64 -248.5t-160 -285.5
q12 -110 47.5 -155.5t103.5 -45.5t146 49.5t138 128.5q104 135 104 275q0 82 -57 124.5t-113.5 83.5t-56.5 108t39.5 109t95.5 42q102 0 138 -80t36 -172q0 -300 -170 -514q-91 -112 -214.5 -174t-264.5 -62q-196 0 -258 105q-129 -105 -281 -105t-247 73.5t-95 215.5
t123.5 274.5t394.5 313.5l-12 10q-202 -145 -354 -145q-76 0 -125 30l-49 -135l-23 8l125 365h16q25 -50 82.5 -72t112.5 -22q227 0 330 92l16 -16q-111 -125 -183.5 -345t-72.5 -415z" />
    <glyph glyph-name="x" unicode="x" horiz-adv-x="1236" 
d="M1135 865q0 73 -53 73t-129.5 -148t-124.5 -330t-48 -306q0 -123 92 -123q73 0 125.5 66t110.5 212l22 -8q-59 -148 -87 -195q-79 -131 -234 -131q-272 0 -325.5 108t-53.5 177h-12q-45 -112 -83 -171t-76 -86.5t-107 -27.5q-70 0 -119 39.5t-49 95.5q0 102 68 174.5
t147 135.5l12 -10q-47 -97 -47 -237t47 -140q107 0 224.5 359t117.5 458q0 41 -15 64.5t-40 23.5q-77 0 -149 -76t-126 -213l-22 10q95 243 191 283.5t151 40.5t123 -9.5t142.5 -69t74.5 -181.5h12q98 260 217 260q63 0 115.5 -38.5t52.5 -117.5q0 -103 -89 -178.5
t-95 -81.5l-13 8q21 48 36.5 132.5t15.5 157.5z" />
    <glyph glyph-name="y" unicode="y" horiz-adv-x="1277" 
d="M428 115q0 -58 68 -58q84 0 204 189l240 717h379l-248 -738q-156 -471 -408.5 -592.5t-496.5 -121.5q-117 0 -198 57.5t-81 151.5t61.5 149t135.5 55t120 -43t46 -105t-41.5 -107.5t-108.5 -45.5q-12 -1 -52.5 0.5t-49.5 -10.5q8 -34 55.5 -58t108.5 -24q177 0 302 155.5
t232 487.5l-8 2q-142 -199 -321 -199q-106 0 -192.5 66.5t-86.5 163.5q0 48 41 151l115 301q65 168 65 218q0 15 -12.5 26.5t-30.5 11.5q-125 0 -221 -247l-25 8q63 155 142.5 232t211.5 77t208.5 -48t76.5 -120t-34 -162l-138 -360q-59 -155 -59 -180z" />
    <glyph glyph-name="z" unicode="z" horiz-adv-x="989" 
d="M724 272q101 0 101 52q0 24 -21.5 46.5t-64.5 30.5l9 21q95 -18 145.5 -64.5t50.5 -107.5q0 -106 -67.5 -192.5t-182.5 -86.5t-183.5 61t-101.5 121t-61 109t-61 49q-60 -14 -67 -76t-7 -106v-47q0 -113 -133 -113t-133 97q0 31 23.5 60.5t89.5 77.5t181.5 122.5
t266 167.5t203.5 127l-4 12q-21 -2 -71 -2q-50 1 -176 21t-153 20q-57 0 -57 -43q0 -23 33 -48.5t88 -39.5l-11 -23q-121 36 -181 89t-60 141t70.5 167.5t146.5 79.5t131.5 -24t112 -79.5t107 -139.5t88.5 -84q49 0 49 22l-5 172q0 61 37 98t102 37q119 0 119 -88
q0 -45 -24 -77t-79 -74t-311 -201.5t-333 -210.5l2 -12q78 4 146 -11t133 -33t113 -18z" />
    <glyph glyph-name="braceleft" unicode="{" horiz-adv-x="880" 
d="M578 282q0 -65 -34 -156t-70 -180t-38 -148t33 -91.5t98 -36.5l-4 -16q-255 0 -375.5 91.5t-11.5 310t109 329.5q-2 83 -60.5 112.5t-177.5 37.5l31 108q131 4 208 44t116 120.5t53 220.5q23 273 172 387t438 109l-4 -17q-106 0 -148.5 -45t-67.5 -118.5t-30.5 -131.5
t-7 -66.5t-9.5 -65.5t-53 -171t-166.5 -176.5t-342.5 -97.5l-27 -92q215 -26 292 -87.5t77 -173.5z" />
    <glyph glyph-name="bar" unicode="|" horiz-adv-x="577" 
d="M242 -424v1952h94v-1952h-94z" />
    <glyph glyph-name="braceright" unicode="}" horiz-adv-x="880" 
d="M419 1247.5q118 245.5 -108 259.5l4 17q255 0 366 -84.5t45 -242.5t-99 -243.5t-33 -151.5t30 -97.5t77.5 -44t129.5 -17.5l-30 -108q-131 -4 -208 -44t-116 -120.5t-53 -220.5q-23 -273 -172 -387t-438 -109l4 16q106 0 164 61.5t88 280.5q29 213 96.5 311t178 144
t298.5 76l27 92q-215 26 -292 87.5t-77 170.5t118 354.5z" />
    <glyph glyph-name="asciitilde" unicode="~" horiz-adv-x="1105" 
d="M406 731q68 0 136 -25.5t126 -51t118 -25.5q129 0 201 131l12 -6q-44 -141 -119.5 -233.5t-174.5 -92.5q-70 0 -138.5 25.5t-125.5 51t-119 25.5q-135 0 -205 -127l-13 5q58 188 146 255.5t156 67.5z" />
    <glyph glyph-name="DEL" horiz-adv-x="0" 
 />
    <glyph glyph-name="nbspace" unicode="&#xa0;" horiz-adv-x="200" 
 />
    <glyph glyph-name="exclamdown" unicode="&#xa1;" horiz-adv-x="675" 
d="M326 1235q0 79 56.5 133.5t135.5 54.5t136 -54.5t57 -133.5t-57 -133.5t-136 -54.5t-135.5 54.5t-56.5 133.5zM178 -37q-92 0 -134 58t-25 140t78 188.5t160.5 268.5t170.5 308h21q-12 -195 -7 -429.5t-22 -329.5q-27 -94 -88.5 -149t-153.5 -55z" />
    <glyph glyph-name="cent" unicode="&#xa2;" horiz-adv-x="1009" 
d="M389 488q0 -111 29 -164l352 763q-86 1 -175.5 -95t-147.5 -244.5t-58 -259.5zM725 1114q29 0 53 -4l123 264l31 -8l-119 -260q100 -20 157.5 -80t57.5 -132t-37 -117.5t-102 -45.5t-103.5 30t-37.5 83q3 99 141 168q-26 53 -88 67l-365 -786q42 -64 142 -64
q191 0 321 183l19 -13q-83 -126 -208.5 -207t-258.5 -81q-56 0 -103 8l-168 -365l-28 6l163 367q-118 32 -192.5 120.5t-71.5 209.5q0 167 91.5 318.5t248 245t334.5 93.5z" />
    <glyph glyph-name="sterling" unicode="&#xa3;" horiz-adv-x="1556" 
d="M58 -160q88 0 178.5 40t152.5 106q-180 86 -336 86q-72 0 -118.5 -32t-51.5 -84t41 -84t134 -32zM1389 311q-107 -483 -510 -483q-78 0 -167 23.5t-145.5 48t-144.5 67.5q-70 -72 -168 -117t-199 -45q-228 0 -217 177q6 68 59 133t142 108t211 43t260 -41q5 25 3.5 70
t-1.5 59h-350l6 33h344q-6 148 -4 184h-318l7 35h313q16 228 108.5 405t245.5 276t356 99t304.5 -98.5t89.5 -236.5q-12 -139 -125 -230.5t-297 -91.5q-119 0 -173.5 61.5t-46.5 157.5t56 187l21 -5q-39 -74 -47 -158t35 -140t129 -56t142 67t66 179t-4.5 182t-57.5 115
t-110 45q-159 0 -230.5 -135t-97.5 -432q-7 -105 -32 -191h325l-4 -35h-332q-22 -90 -96 -184h400l-5 -33h-417q-52 -70 -146 -149q40 -15 120 -48t200 -80.5t264 -7.5t172.5 119.5t40.5 126.5z" />
    <glyph glyph-name="currency" unicode="&#xa4;" horiz-adv-x="1280" 
d="M1030 1270q145 0 234.5 -65t89.5 -159t-56 -165.5t-143 -71.5q-53 0 -82 27.5t-29 65.5q0 67 66.5 125.5t85.5 109.5q3 43 -42 76.5t-124 33.5q-244 0 -418 -532h400l-11 -35h-401q-33 -111 -41 -160h359l-9 -35h-356q-34 -174 -3 -265.5t76.5 -125t112.5 -33.5
q216 0 396 244l18 -12q-103 -151 -233.5 -236.5t-309.5 -85.5q-241 0 -364 134t-90 380h-152l8 35h150q14 83 45 160h-152l11 35h155q97 240 318 397.5t491 157.5z" />
    <glyph glyph-name="yen" unicode="&#xa5;" horiz-adv-x="1212" 
d="M39 305l8 35h309l50 168h-312l10 35h302l-134 526q-20 94 -66 125t-106 35l4 14h736l-4 -14q-169 -11 -183 -55q-8 -34 131 -586q23 27 64 76.5t67.5 81t65.5 78t64.5 78t103 127.5t84.5 122q7 25 -23 48.5t-125 29.5l5 14h399l-4 -14q-120 -18 -228 -135
q-250 -279 -471 -551h318l-10 -35h-320l-49 -168h322l-9 -35h-321l-47 -164q-17 -74 29 -97t135 -30l-5 -14h-780l4 14q107 6 147 18q79 24 99 99l49 174h-309z" />
    <glyph glyph-name="brokenbar" unicode="&#xa6;" horiz-adv-x="577" 
d="M242 745v783h96v-783h-96zM242 379h96v-803h-96v803z" />
    <glyph glyph-name="section" unicode="&#xa7;" horiz-adv-x="1091" 
d="M330 734q0 -51 9.5 -89t30.5 -79t36 -67t47 -73.5t43 -65.5l139 -223q57 23 92 77.5t35 105.5t-8.5 86.5t-33.5 84.5t-105 168t-162 256q-55 -25 -89 -77.5t-34 -103.5zM399 1114q0 183 125.5 290t311.5 107t214 -92t27 -127q0 -81 -59.5 -145t-133.5 -64t-103.5 41.5
t-19.5 87.5t40.5 81t59.5 61.5t35 55.5t-15.5 53t-65.5 24q-83 0 -136.5 -69t-52.5 -155t36 -150t53 -92.5t53.5 -79.5t47.5 -69t54 -80.5t83.5 -143t42.5 -170.5q1 -91 -69.5 -200t-277.5 -163q49 -83 49 -187q0 -175 -119 -284t-308 -109t-221 91.5t-32 127.5
q0 82 59 146.5t133 64.5t104 -44.5t20 -88.5t-41.5 -79t-61 -61t-35.5 -54t18.5 -53t66.5 -25q78 0 131 71.5t53 153.5q2 44 -8 74.5t-14 46t-18 41t-19.5 36.5t-24 39.5t-22.5 35t-26 37.5t-30 43t-59.5 87t-96.5 160t-47 182q0 140 94.5 234t247.5 139q-43 75 -43 174z
" />
    <glyph glyph-name="dieresis" unicode="&#xa8;" horiz-adv-x="1024" 
d="M750 1264q0 68 46 118t110 50t111.5 -50t47.5 -118t-47.5 -118t-111.5 -50t-110 50t-46 118zM295 1264q0 68 46.5 118t110.5 50t111 -50t47 -118t-47 -118t-111 -50t-110.5 50t-46.5 118z" />
    <glyph glyph-name="copyright" unicode="&#xa9;" horiz-adv-x="1945" 
d="M457 506q0 224 138 361t396 137q67 0 149 -23t101 -39l62 76h16l8 -371h-20q-42 127 -118.5 229.5t-182.5 102.5q-107 0 -166.5 -122t-59.5 -341q0 -420 258 -420q90 0 168.5 64t128.5 166l23 -13q-60 -136 -151 -211t-240 -75q-242 0 -376 127.5t-134 351.5zM133 512
q0 -220 106.5 -405.5t291.5 -293.5t403 -108t401.5 108t289.5 293.5t106 405.5t-106 404.5t-289.5 292.5t-401.5 108t-403 -108t-291.5 -292.5t-106.5 -404.5zM39 513q0 179 70.5 342t190 281.5t286 188.5t348.5 70t347 -70t284 -188.5t189.5 -281.5t70.5 -342t-70.5 -342.5
t-189.5 -282t-284 -189t-347 -70.5t-348 70.5t-286 189t-190.5 282t-70.5 342.5z" />
    <glyph glyph-name="ordfeminine" unicode="&#xaa;" horiz-adv-x="798" 
d="M317 800q0 -58 12 -70.5t31 -12.5t52 26.5t59 71.5l104 330q-6 52 -23 64t-34 12q-38 0 -86 -74.5t-81.5 -181.5t-33.5 -165zM94 837q0 85 36.5 178.5t147 172t209.5 78.5q42 0 68.5 -23t32.5 -63h2l24 77h215l-135 -413q-37 -107 -37.5 -126.5t27.5 -23.5t66 40t67 118
l21 -8q-38 -92 -84 -139.5t-114 -47.5t-117.5 30t-49.5 91h-6q-77 -121 -184 -121q-81 0 -135 47.5t-54 132.5zM68 469l20 82h623l-21 -82h-622z" />
    <glyph glyph-name="guillemotleft" unicode="&#xab;" horiz-adv-x="1191" 
d="M528 394q-4 14 6 60t24 64q14 17 50 39q273 157 590 334l10 -12l-370 -420l145 -422l-14 -10q-193 152 -408 329q-29 24 -33 38zM74 394q-4 14 7 60t25 64q14 17 50 39q303 174 589 334l11 -12l-371 -420l145 -422l-14 -10q-94 73 -240 193t-172 139q-26 21 -30 35z" />
    <glyph glyph-name="logicalnot" unicode="&#xac;" 
d="M90 502v119h959v-541h-134v422h-825z" />
    <glyph glyph-name="registered" unicode="&#xae;" horiz-adv-x="970" 
d="M553 1061h14q45 0 62.5 23.5t17.5 73.5t-22 78t-60 28h-12v-203zM553 868q0 -41 53 -41v-12h-244v12q66 0 66 41v355q0 29 -20 34q-18 9 -46 9v12h248q174 0 174 -104t-168 -117v-6q133 -18 146 -88l16 -78q8 -31 23 -31q28 0 28 49h19q0 -94 -104 -94q-116 0 -118.5 107
t-23.5 116.5t-43 9.5h-6v-174zM223 1030q0 -156 103.5 -262t257.5 -106t257 106t103 262t-103 262.5t-257 106.5t-257.5 -106.5t-103.5 -262.5zM174 1030q0 173 118.5 291.5t291.5 118.5t291 -118.5t118 -291.5t-118 -291t-291 -118t-291.5 118t-118.5 291z" />
    <glyph glyph-name="macron" unicode="&#xaf;" horiz-adv-x="1024" 
d="M307 1157l60 227h675l-59 -227h-676z" />
    <glyph glyph-name="degree" unicode="&#xb0;" horiz-adv-x="798" 
d="M479 868q61 -1 95.5 75t39.5 196q11 288 -118 293q-128 4 -137 -278q-9 -281 120 -286zM154 1157q3 87 51.5 157t125 106.5t163.5 33.5q148 -5 239.5 -86.5t87.5 -219.5t-106 -221.5t-245 -78.5t-231.5 86t-84.5 223z" />
    <glyph glyph-name="plusminus" unicode="&#xb1;" 
d="M92 0v113h963v-113h-963zM80 596v119h430v413h127v-413h430v-119h-430v-414h-127v414h-430z" />
    <glyph glyph-name="twosuperior" unicode="&#xb2;" horiz-adv-x="946" 
d="M727 1417q0 88 -82 88q-61 0 -117 -48t-87 -112t-31 -116q0 -78 67 -78q32 0 50.5 10t24 12.5t16.5 11.5t20 15t22 19l8 -9q-48 -61 -117 -106t-141 -45t-107.5 33t-34.5 93t43 136.5t171 141.5t227 65t159.5 -16.5t102.5 -57t42 -102.5q0 -287 -594 -451l-50 -31h410
q51 0 91.5 41.5t82.5 96.5l19 -7l-160 -319h-658l33 96q261 168 357 238t164.5 178t68.5 223z" />
    <glyph glyph-name="threesuperior" unicode="&#xb3;" horiz-adv-x="956" 
d="M293 1001q55 0 81 -26.5t22 -58.5q-7 -58 -67 -95t-67 -63q-7 -28 24 -54t91 -26q89 0 167 83t111 204q39 151 -55 151q-50 0 -156 -80l-12 35q219 114 256.5 173.5t53.5 118.5t-7 99.5t-79 40.5t-109 -50.5t-67 -98.5t-2 -78.5t54 -30.5t95 45l8 -10
q-100 -113 -203 -113q-75 0 -110.5 34.5t-24.5 96.5q17 95 145.5 162.5t269.5 67.5q299 0 287 -164q-3 -57 -82 -122.5t-305 -92.5l-28 -14q16 4 57 4q286 0 277 -187q-3 -68 -56 -125t-176.5 -111t-276.5 -54q-310 0 -286 186q7 67 61 110t109 43z" />
    <glyph glyph-name="acute" unicode="&#xb4;" horiz-adv-x="1024" 
d="M883 1548q63 0 99 -34t36 -88t-37 -95.5t-91 -72.5t-165 -92t-172 -95l-14 16q31 63 86.5 167t72.5 139q78 155 185 155z" />
    <glyph glyph-name="mu" unicode="&#xb5;" horiz-adv-x="1325" 
d="M432 134q0 -74 52 -75q52 0 101.5 42t114.5 145l240 717h379l-223 -656q-8 -24 -38 -110.5t-30 -106.5t11 -30.5t26 -10.5q55 0 111.5 61.5t105.5 186.5l25 -8q-62 -151 -142.5 -231.5t-182.5 -80.5t-194 46t-92 151l-8 2q-142 -199 -332 -199t-262 173h-4l-35 -99
q-25 -71 -32 -217t-23 -196t-52 -75.5t-80 -25.5t-66 39.5t1 110.5q17 44 100.5 159.5t141.5 282.5l295 832h383l-246 -666q-45 -117 -45 -161z" />
    <glyph glyph-name="paragraph" unicode="&#xb6;" horiz-adv-x="1265" 
d="M764 1399h616l-10 -29h-250l-450 -1626h-45l446 1626h-180l-451 -1626h-45l232 834h-62q-245 0 -312 116.5t-63 223.5t52.5 199t171 187t350.5 95z" />
    <glyph glyph-name="periodcentered" unicode="&#xb7;" horiz-adv-x="550" 
d="M82 555q0 84 59.5 141.5t143.5 57.5t143 -57.5t59 -141.5t-59 -141.5t-143 -57.5t-143.5 57.5t-59.5 141.5z" />
    <glyph glyph-name="cedilla" unicode="&#xb8;" horiz-adv-x="1024" 
d="M72 -483l8 30q166 0 231.5 32t73.5 102q4 41 -23 62t-71 21l67 236h31l-24 -88q131 3 202 -41.5t62 -138.5q-13 -133 -162 -186t-395 -29z" />
    <glyph glyph-name="onesuperior" unicode="&#xb9;" horiz-adv-x="737" 
d="M412 1421q-89 0 -148 76l6 8q40 -28 142 -28t193 19t132 40h21q-46 -85 -76 -203l-152 -545q-13 -49 23 -65q18 -11 96 -18l-2 -11h-549l2 11q80 7 122 19t54 58l179 643q-16 -4 -43 -4z" />
    <glyph glyph-name="ordmasculine" unicode="&#xba;" horiz-adv-x="778" 
d="M382 674q44 0 90 87.5t76 207t31 201.5t-36 83q-44 0 -91.5 -83.5t-78.5 -203.5t-33 -223q-2 -69 42 -69zM125 893q0 103 58.5 189t156.5 137t206 51t180.5 -66t72.5 -172t-59.5 -191t-156.5 -134.5t-201 -49.5t-180.5 66.5t-76.5 169.5zM68 469l20 82h602l-20 -82h-602z
" />
    <glyph glyph-name="guillemotright" unicode="&#xbb;" horiz-adv-x="1191" 
d="M432 37l375 422l-150 420l19 12q271 -216 409 -334q27 -21 31 -37t-8 -62t-25 -62q-14 -16 -57 -40q-385 -219 -584 -329zM-18 37l372 422l-149 420l18 12q285 -227 410 -334q25 -21 29 -37t-6 -62q-12 -46 -26 -62t-57 -40q-487 -276 -581 -329z" />
    <glyph glyph-name="onequarter" unicode="&#xbc;" horiz-adv-x="1177" 
d="M662 1421q-89 0 -148 76l6 8q40 -28 141 -28t193 19t133 40h21q-46 -85 -76 -203l-152 -545q-14 -46 16 -62t103 -21l-2 -11h-549l2 11q80 7 122 19t54 58l179 643q-16 -4 -43 -4zM68 487l20 84h1002l-21 -84h-1001zM53 -270q-63 0 -63 55q0 61 96 61q24 0 78 -4
q63 62 118.5 142t147.5 397h252q-90 -192 -188.5 -295.5t-171.5 -153.5t-134 -92q7 1 69.5 17t133.5 16t125 -12l109 291h237l-112 -293q117 6 157 57l13 -10q-97 -144 -205 -164l-84 -234h-232l82 238q-23 4 -115.5 41t-152.5 37l-37 -2q-92 -92 -123 -92z" />
    <glyph glyph-name="onehalf" unicode="&#xbd;" horiz-adv-x="1177" 
d="M662 1421q-89 0 -148 76l6 8q40 -28 141 -28t193 19t133 40h21q-46 -85 -76 -203l-152 -545q-13 -49 23 -65q18 -11 96 -18l-2 -11h-549l2 11q80 7 122 19t54 58l179 643q-16 -4 -43 -4zM68 487l20 84h1002l-21 -84h-1001zM670 268q0 88 -82 88q-61 0 -117.5 -48
t-87.5 -112t-31 -116q0 -78 68 -78q32 0 50.5 10t24 12.5t16.5 11.5t20 15t22 19l8 -9q-48 -61 -116.5 -106t-140.5 -45t-108 33t-35 93t43 136.5t171 141.5t227 65t159 -16.5t102 -57t42 -102.5q0 -287 -594 -451l-49 -31h410q51 0 91.5 41.5t82.5 96.5l18 -6l-159 -320
h-658l33 96q260 169 356 239t165 177.5t69 222.5z" />
    <glyph glyph-name="threequarters" unicode="&#xbe;" horiz-adv-x="1177" 
d="M768 1139q284 0 276 -187q-3 -68 -55.5 -125t-176 -111t-276.5 -54q-310 0 -286 186q7 67 61 110t109 43t81 -26.5t22 -58.5q-7 -58 -67 -95t-67 -63q-7 -28 24 -54t91 -26q89 0 167 83t111 204q39 151 -55 151q-50 0 -156 -80l-12 35q219 114 256 173.5t53 118.5
t-6 99.5t-78 40.5t-109 -50.5t-67 -98.5t-2 -78.5t54 -30.5t94 45l8 -10q-100 -113 -203 -113q-75 0 -110.5 34.5t-24.5 96.5q17 95 145.5 162.5t269.5 67.5q299 0 287 -164q-3 -57 -82 -122.5t-305 -92.5l-28 -14q16 4 57 4zM68 487l20 84h1002l-21 -84h-1001zM53 -270
q-63 0 -63 55q0 61 96 61q24 0 78 -4q63 62 118.5 142t147.5 397h252q-90 -192 -188.5 -295.5t-171.5 -153.5t-134 -92q7 1 69.5 17t133.5 16t125 -12l109 291h237l-112 -293q117 6 157 57l13 -10q-97 -144 -205 -164l-84 -234h-232l82 238q-23 4 -115.5 41t-152.5 37
l-37 -2q-92 -92 -123 -92z" />
    <glyph glyph-name="questiondown" unicode="&#xbf;" horiz-adv-x="1114" 
d="M625 1235q0 79 56.5 133.5t135.5 54.5t136 -54.5t57 -133.5t-57 -133.5t-136 -54.5t-135.5 54.5t-56.5 133.5zM61 276q0 239 301 369q188 82 260 137.5t72 132.5q0 31 -21 48.5t-46 17.5q-59 0 -103.5 -46.5t-58.5 -119.5l-16 6q15 92 71.5 146.5t156.5 54.5t172.5 -52.5
t72.5 -154.5q0 -213 -271 -342q-38 -18 -55 -26t-48 -24t-44.5 -25t-36.5 -25t-46 -46t-32.5 -62t-7.5 -77q6 -184 204 -184q105 0 184 59.5t79 136.5t-46 117.5t-102 40.5t-77 -10v-12q70 2 111.5 -29.5t41.5 -89.5t-37.5 -97.5t-103.5 -39.5t-107 37.5t-41 112.5t58.5 118
t139.5 43t134 -48t53 -144t-92.5 -165t-249.5 -69q-212 0 -340.5 89.5t-128.5 221.5z" />
    <glyph glyph-name="Agrave" unicode="&#xc0;" horiz-adv-x="1398" 
d="M602 1822q0 52 40.5 90t102.5 38q97 0 168 -142l160 -315l-12 -12q-67 38 -178.5 96.5t-162.5 88.5t-84.5 67t-33.5 89zM279 537h413l-57 534zM25 102q0 -51 79 -69.5t142 -18.5l-6 -14h-508l6 14q5 1 22 2t25.5 2.5t29 5t44.5 17.5q83 47 153 160q65 94 431 646.5
t380 573.5h156q17 -129 84 -688.5t72 -597.5t23.5 -76.5t133.5 -44.5l-6 -14h-797l7 14q146 7 185 24.5t47 34.5t3 64l-35 361h-444l-168 -273q-59 -95 -59 -123z" />
    <glyph glyph-name="Aacute" unicode="&#xc1;" horiz-adv-x="1398" 
d="M1057 1958q63 0 99 -33.5t36 -88.5t-36 -96t-90 -72t-165 -91.5t-174 -95.5l-14 16q31 63 86.5 166.5t72.5 138.5q78 156 185 156zM279 537h413l-57 534zM25 102q0 -51 79 -69.5t142 -18.5l-6 -14h-508l6 14q5 1 22 2t25.5 2.5t29 5t44.5 17.5q83 47 153 160
q65 94 431 646.5t380 573.5h156q17 -129 84 -688.5t72 -597.5t23.5 -76.5t133.5 -44.5l-6 -14h-797l7 14q146 7 185 24.5t47 34.5t3 64l-35 361h-444l-168 -273q-59 -95 -59 -123z" />
    <glyph glyph-name="Acircumflex" unicode="&#xc2;" horiz-adv-x="1398" 
d="M1004 1942q74 0 90 -37q70 -182 133 -394l-27 -16l-280 217l-394 -215l-18 14q148 174 342 390q23 24 51.5 32.5t102.5 8.5zM279 537h413l-57 534zM25 102q0 -51 79 -69.5t142 -18.5l-6 -14h-508l6 14q5 1 22 2t25.5 2.5t29 5t44.5 17.5q83 47 153 160q65 94 431 646.5
t380 573.5h156q17 -129 84 -688.5t72 -597.5t23.5 -76.5t133.5 -44.5l-6 -14h-797l7 14q146 7 185 24.5t47 34.5t3 64l-35 361h-444l-168 -273q-59 -95 -59 -123z" />
    <glyph glyph-name="Atilde" unicode="&#xc3;" horiz-adv-x="1398" 
d="M1034.5 1828q66.5 -52 136.5 -52q116 0 201 127l23 -9q-188 -352 -379 -352q-94 0 -164 53.5t-137 53.5q-108 0 -209 -129l-23 10q120 198 212 274t183 76q90 0 156.5 -52zM279 537h413l-57 534zM25 102q0 -51 79 -69.5t142 -18.5l-6 -14h-508l6 14q5 1 22 2t25.5 2.5
t29 5t44.5 17.5q83 47 153 160q65 94 431 646.5t380 573.5h156q17 -129 84 -688.5t72 -597.5t23.5 -76.5t133.5 -44.5l-6 -14h-797l7 14q146 7 185 24.5t47 34.5t3 64l-35 361h-444l-168 -273q-59 -95 -59 -123z" />
    <glyph glyph-name="Adieresis" unicode="&#xc4;" horiz-adv-x="1398" 
d="M975 1673q0 68 46.5 118t110.5 50t111 -50t47 -118t-47 -118t-111 -50t-110.5 50t-46.5 118zM520 1673q0 68 47 118t111 50t111 -50t47 -118t-47 -118t-111 -50t-111 50t-47 118zM279 537h413l-57 534zM25 102q0 -51 79 -69.5t142 -18.5l-6 -14h-508l6 14q5 1 22 2
t25.5 2.5t29 5t44.5 17.5q83 47 153 160q65 94 431 646.5t380 573.5h156q17 -129 84 -688.5t72 -597.5t23.5 -76.5t133.5 -44.5l-6 -14h-797l7 14q146 7 185 24.5t47 34.5t3 64l-35 361h-444l-168 -273q-59 -95 -59 -123z" />
    <glyph glyph-name="Aring" unicode="&#xc5;" horiz-adv-x="1398" 
d="M989 1894q-93 0 -127 -190t64 -191q99 0 133 191q14 85 -2.5 137.5t-67.5 52.5zM998 1923q116 0 190 -61t56 -157t-111.5 -158t-215.5 -62t-191.5 60.5t-51.5 156.5t113 158.5t211 62.5zM279 537h413l-57 534zM25 102q0 -51 79 -69.5t142 -18.5l-6 -14h-508l6 14
q5 1 22 2t25.5 2.5t29 5t44.5 17.5q83 47 153 160q65 94 431 646.5t380 573.5h156q17 -129 84 -688.5t72 -597.5t23.5 -76.5t133.5 -44.5l-6 -14h-797l7 14q146 7 185 24.5t47 34.5t3 64l-35 361h-444l-168 -273q-59 -95 -59 -123z" />
    <glyph glyph-name="AE" unicode="&#xc6;" horiz-adv-x="2095" 
d="M487 641h437l198 721h-24zM1667 1374h-141l-178 -637h84q97 0 155 32t119.5 112.5t91.5 130.5h23l-162 -584h-23q-4 56 -18 128t-32 98q-39 58 -163 59h-84l-145 -531q-29 -103 -9 -130t108 -27t162 3t140 54q67 51 182 163t175 183h20l-147 -428h-1303l4 14
q132 10 168 20q65 19 86 93l131 475h-456l-308 -366q-105 -124 -62 -168.5t179 -53.5l-4 -14h-526l2 10q130 8 219.5 90t220.5 236l885 1030q-28 10 -195 18l4 15h1266l-102 -367h-23q-50 159 -77 214q-51 103 -115 118q-45 10 -152 10z" />
    <glyph glyph-name="Ccedilla" unicode="&#xc7;" horiz-adv-x="1400" 
d="M39 518q0 199 82 372t219 291t317.5 185.5t376.5 67.5q112 0 211 -27t164 -66l84 76h23l-119 -524h-25q-15 231 -111.5 373.5t-226.5 142.5t-237 -96.5t-181 -249.5q-151 -312 -151 -639q0 -170 77.5 -268.5t223.5 -98.5t282.5 86t254.5 240l22 -16
q-110 -174 -282.5 -287t-391.5 -113q-35 0 -53 2l-25 -78q131 3 203.5 -42t63.5 -138q-13 -133 -162 -186t-395 -29l8 31q166 0 232 32t73 101q4 41 -23 62.5t-71 21.5l67 227q-242 21 -386 160.5t-144 386.5z" />
    <glyph glyph-name="Egrave" unicode="&#xc8;" horiz-adv-x="1396" 
d="M682 1822q0 52 40.5 90t102.5 38q97 0 168 -142l160 -315l-12 -12q-67 38 -178.5 96.5t-162.5 88.5t-84.5 67t-33.5 89zM969 1374h-142l-178 -637h84q100 0 136.5 21.5t66.5 44.5t82 91t82 118h22l-161 -584h-23q-4 56 -18 128t-32 98q-39 59 -163 59h-84l-145 -531
q-29 -103 -9.5 -130t107.5 -27t162.5 3t140.5 54t181 163t175 183h21l-148 -428h-1302l4 14q133 9 166 19q66 21 86 94l315 1137q21 80 -35 100q-29 10 -155 20l4 15h1229l-103 -367h-22q-51 161 -80 219q-50 99 -113 113q-45 10 -151 10z" />
    <glyph glyph-name="Eacute" unicode="&#xc9;" horiz-adv-x="1396" 
d="M1100 1958q63 0 99 -33.5t36 -88.5t-36.5 -96t-90.5 -72t-164.5 -91.5t-173.5 -95.5l-14 16q31 63 86.5 166.5t72.5 138.5q78 156 185 156zM969 1374h-142l-178 -637h84q100 0 136.5 21.5t66.5 44.5t82 91t82 118h22l-161 -584h-23q-4 56 -18 128t-32 98q-39 59 -163 59
h-84l-145 -531q-29 -103 -9.5 -130t107.5 -27t162.5 3t140.5 54t181 163t175 183h21l-148 -428h-1302l4 14q133 9 166 19q66 21 86 94l315 1137q21 80 -35 100q-29 10 -155 20l4 15h1229l-103 -367h-22q-51 161 -80 219q-50 99 -113 113q-45 10 -151 10z" />
    <glyph glyph-name="Ecircumflex" unicode="&#xca;" horiz-adv-x="1396" 
d="M934.5 1933.5q28.5 8.5 102.5 8.5t89 -37q75 -194 134 -394l-27 -16l-281 217l-393 -215l-18 14q148 174 342 390q23 24 51.5 32.5zM969 1374h-142l-178 -637h84q100 0 136.5 21.5t66.5 44.5t82 91t82 118h22l-161 -584h-23q-4 56 -18 128t-32 98q-39 59 -163 59h-84
l-145 -531q-29 -103 -9.5 -130t107.5 -27t162.5 3t140.5 54t181 163t175 183h21l-148 -428h-1302l4 14q133 9 166 19q66 21 86 94l315 1137q21 80 -35 100q-29 10 -155 20l4 15h1229l-103 -367h-22q-51 161 -80 219q-50 99 -113 113q-45 10 -151 10z" />
    <glyph glyph-name="Edieresis" unicode="&#xcb;" horiz-adv-x="1396" 
d="M987 1673q0 68 46.5 118t110.5 50t111.5 -50t47.5 -118t-47.5 -118t-111.5 -50t-110.5 50t-46.5 118zM532 1673q0 68 47 118t111 50t111 -50t47 -118t-47 -118t-111 -50t-111 50t-47 118zM969 1374h-142l-178 -637h84q100 0 136.5 21.5t66.5 44.5t82 91t82 118h22
l-161 -584h-23q-4 56 -18 128t-32 98q-39 59 -163 59h-84l-145 -531q-29 -103 -9.5 -130t107.5 -27t162.5 3t140.5 54t181 163t175 183h21l-148 -428h-1302l4 14q133 9 166 19q66 21 86 94l315 1137q21 80 -35 100q-29 10 -155 20l4 15h1229l-103 -367h-22q-51 161 -80 219
q-50 99 -113 113q-45 10 -151 10z" />
    <glyph glyph-name="Igrave" unicode="&#xcc;" horiz-adv-x="890" 
d="M367 1822q0 52 40.5 90t102.5 38q97 0 168 -142l160 -315l-13 -12q-67 37 -178 96t-162 89t-84.5 67t-33.5 89zM-174 0l4 14q133 9 166 19q66 21 86 94l315 1137q21 80 -35 100q-29 10 -155 20l4 15h842l-4 -15q-10 -1 -70.5 -6t-87.5 -12q-68 -18 -90 -100l-314 -1135
q-21 -78 33 -98q24 -8 150 -19l-4 -14h-840z" />
    <glyph glyph-name="Iacute" unicode="&#xcd;" horiz-adv-x="890" 
d="M831 1958q63 0 99.5 -34t36.5 -88t-37 -95.5t-91 -72.5t-165 -92t-172 -95l-15 16q31 63 86.5 166.5t73.5 138.5q78 156 184 156zM-174 0l4 14q133 9 166 19q66 21 86 94l315 1137q21 80 -35 100q-29 10 -155 20l4 15h842l-4 -15q-10 -1 -70.5 -6t-87.5 -12
q-68 -18 -90 -100l-314 -1135q-21 -78 33 -98q24 -8 150 -19l-4 -14h-840z" />
    <glyph glyph-name="Icircumflex" unicode="&#xce;" horiz-adv-x="890" 
d="M792 1942q74 0 89 -37q70 -182 133 -394l-27 -16l-280 217l-394 -215l-18 14q148 174 342 390q23 24 52 32.5t103 8.5zM-174 0l4 14q133 9 166 19q66 21 86 94l315 1137q21 80 -35 100q-29 10 -155 20l4 15h842l-4 -15q-10 -1 -70.5 -6t-87.5 -12q-68 -18 -90 -100
l-314 -1135q-21 -78 33 -98q24 -8 150 -19l-4 -14h-840z" />
    <glyph glyph-name="Idieresis" unicode="&#xcf;" horiz-adv-x="890" 
d="M737 1673q0 68 46.5 118t110.5 50t111.5 -50t47.5 -118t-47.5 -118t-111.5 -50t-110.5 50t-46.5 118zM283 1673q0 68 46.5 118t110.5 50t111 -50t47 -118t-47 -118t-111 -50t-110.5 50t-46.5 118zM-174 0l4 14q133 9 166 19q66 21 86 94l315 1137q21 80 -35 100
q-29 10 -155 20l4 15h842l-4 -15q-10 -1 -70.5 -6t-87.5 -12q-68 -18 -90 -100l-314 -1135q-21 -78 33 -98q24 -8 150 -19l-4 -14h-840z" />
    <glyph glyph-name="Eth" unicode="&#xd0;" horiz-adv-x="1626" 
d="M897 1376q-44 0 -68 -4l-172 -620h220l-15 -47h-217l-149 -541q-49 -141 69 -141q119 0 222.5 76.5t183.5 215.5q138 243 180 600q25 214 -42 337.5t-212 123.5zM991 1399q293 0 408 -106.5t151.5 -197.5t32.5 -206q-6 -197 -88.5 -370.5t-220.5 -291.5
q-267 -227 -690 -227h-760l4 14q133 9 166 19q66 21 86 94l160 578h-146l15 47h143l143 512q21 80 -35 100q-29 10 -155 20l4 15h782z" />
    <glyph glyph-name="Ntilde" unicode="&#xd1;" horiz-adv-x="1556" 
d="M1155.5 1828q66.5 -52 136.5 -52q116 0 201 127l23 -9q-188 -352 -379 -352q-94 0 -164 53.5t-137 53.5q-108 0 -209 -129l-23 10q120 198 212 274t183 76q90 0 156.5 -52zM-201 0l6 14q9 1 82.5 8t108.5 31q82 55 141 281l221 794q27 99 -30 175q-44 65 -152 81l4 15
h531l508 -959l172 623q70 258 10 283.5t-118.5 31.5t-61.5 6l6 15h549l-7 -15q-8 -1 -79 -4.5t-117 -31.5q-82 -52 -143 -279l-300 -1075h-118l-611 1161l-227 -821q-62 -222 -12 -281q25 -25 104 -31.5t84 -7.5l-6 -14h-545z" />
    <glyph glyph-name="Ograve" unicode="&#xd2;" horiz-adv-x="1622" 
d="M641 1822q0 52 40.5 90t102.5 38q97 0 168 -142l160 -315l-12 -12q-67 38 -178.5 96.5t-162.5 88.5t-84.5 67t-33.5 89zM981 1407q-121 0 -218.5 -110.5t-166.5 -280.5t-109 -363t-45 -346q-10 -315 201 -315q216 0 373 366q73 177 167 613t-202 436zM991 1432
q261 0 427.5 -140.5t164.5 -417.5q0 -175 -68.5 -338.5t-200.5 -293.5t-310.5 -202.5t-378.5 -72.5q-271 0 -430 149.5t-156 428.5q0 146 57.5 289.5t161.5 261.5q136 155 329 245.5t404 90.5z" />
    <glyph glyph-name="Oacute" unicode="&#xd3;" horiz-adv-x="1622" 
d="M1130 1958q63 0 99.5 -34t36.5 -88t-37 -95.5t-91 -72.5t-165 -92t-172 -95l-15 16q31 63 86.5 166.5t73.5 138.5q78 156 184 156zM981 1407q-121 0 -218.5 -110.5t-166.5 -280.5t-109 -363t-45 -346q-10 -315 201 -315q216 0 373 366q73 177 167 613t-202 436zM991 1432
q261 0 427.5 -140.5t164.5 -417.5q0 -175 -68.5 -338.5t-200.5 -293.5t-310.5 -202.5t-378.5 -72.5q-271 0 -430 149.5t-156 428.5q0 146 57.5 289.5t161.5 261.5q136 155 329 245.5t404 90.5z" />
    <glyph glyph-name="Ocircumflex" unicode="&#xd4;" horiz-adv-x="1622" 
d="M1128 1942q74 0 89 -37q70 -182 133 -394l-27 -16l-281 217l-393 -215l-18 14q148 174 342 390q23 24 52 32.5t103 8.5zM981 1407q-121 0 -218.5 -110.5t-166.5 -280.5t-109 -363t-45 -346q-10 -315 201 -315q216 0 373 366q73 177 167 613t-202 436zM991 1432
q261 0 427.5 -140.5t164.5 -417.5q0 -175 -68.5 -338.5t-200.5 -293.5t-310.5 -202.5t-378.5 -72.5q-271 0 -430 149.5t-156 428.5q0 146 57.5 289.5t161.5 261.5q136 155 329 245.5t404 90.5z" />
    <glyph glyph-name="Otilde" unicode="&#xd5;" horiz-adv-x="1622" 
d="M1137.5 1828q66.5 -52 136.5 -52q116 0 201 127l22 -9q-188 -352 -379 -352q-94 0 -164 53.5t-137 53.5q-108 0 -209 -129l-22 10q120 198 212 274t183 76q90 0 156.5 -52zM981 1407q-121 0 -218.5 -110.5t-166.5 -280.5t-109 -363t-45 -346q-10 -315 201 -315
q216 0 373 366q73 177 167 613t-202 436zM991 1432q261 0 427.5 -140.5t164.5 -417.5q0 -175 -68.5 -338.5t-200.5 -293.5t-310.5 -202.5t-378.5 -72.5q-271 0 -430 149.5t-156 428.5q0 146 57.5 289.5t161.5 261.5q136 155 329 245.5t404 90.5z" />
    <glyph glyph-name="Odieresis" unicode="&#xd6;" horiz-adv-x="1622" 
d="M1085 1673q0 68 46.5 118t110.5 50t111.5 -50t47.5 -118t-47.5 -118t-111.5 -50t-110.5 50t-46.5 118zM631 1673q0 68 46.5 118t110.5 50t111 -50t47 -118t-47 -118t-111 -50t-110.5 50t-46.5 118zM981 1407q-121 0 -218.5 -110.5t-166.5 -280.5t-109 -363t-45 -346
q-10 -315 201 -315q216 0 373 366q73 177 167 613t-202 436zM991 1432q261 0 427.5 -140.5t164.5 -417.5q0 -175 -68.5 -338.5t-200.5 -293.5t-310.5 -202.5t-378.5 -72.5q-271 0 -430 149.5t-156 428.5q0 146 57.5 289.5t161.5 261.5q136 155 329 245.5t404 90.5z" />
    <glyph glyph-name="multiply" unicode="&#xd7;" 
d="M143 166l367 362l-354 355l84 84l354 -355l348 353l76 -76l-352 -350l360 -359l-84 -84l-360 359l-361 -367z" />
    <glyph glyph-name="Oslash" unicode="&#xd8;" horiz-adv-x="1622" 
d="M985 1407q-76 0 -142.5 -43t-146 -156.5t-156.5 -356.5t-94 -456l732 680q9 73 -7 153t-63 129.5t-123 49.5zM459 156q41 -164 173 -164t281 176.5t240 671.5q16 85 23 182l-734 -680q0 -114 17 -186zM991 1432q274 0 424 -138l225 209l27 -26l-225 -209
q141 -163 141 -378t-83.5 -390.5t-221.5 -293.5q-281 -239 -653 -239q-278 0 -430 146l-244 -226l-25 25l244 227q-134 163 -131 406q3 177 81 338t212 285t305 194t354 70z" />
    <glyph glyph-name="Ugrave" unicode="&#xd9;" horiz-adv-x="1603" 
d="M809 1822q0 52 40.5 90t102.5 38q97 0 168 -142l160 -315l-12 -12q-67 38 -178.5 96.5t-162.5 88.5t-84.5 67t-33.5 89zM537 322q0 -232 272 -232q363 0 471 387l162 586q70 258 10 283.5t-118.5 31.5t-61.5 6l6 15h549l-6 -15q-8 -1 -79.5 -4.5t-117.5 -31.5
q-78 -50 -143 -279l-168 -602q-68 -242 -233.5 -371t-411.5 -129t-391.5 100t-143.5 273q0 56 19 127l221 797q21 80 -35 100q-29 10 -156 20l4 15h832l-4 -15q-9 -1 -62.5 -5.5t-85.5 -12.5q-68 -18 -90 -100l-213 -779q-26 -91 -26 -165z" />
    <glyph glyph-name="Uacute" unicode="&#xda;" horiz-adv-x="1603" 
d="M1300 1958q63 0 99.5 -34t36.5 -88t-37 -95.5t-91 -72.5t-165 -92t-172 -95l-15 16q31 63 86.5 166.5t73.5 138.5q78 156 184 156zM537 322q0 -232 272 -232q363 0 471 387l162 586q70 258 10 283.5t-118.5 31.5t-61.5 6l6 15h549l-6 -15q-8 -1 -79.5 -4.5t-117.5 -31.5
q-78 -50 -143 -279l-168 -602q-68 -242 -233.5 -371t-411.5 -129t-391.5 100t-143.5 273q0 56 19 127l221 797q21 80 -35 100q-29 10 -156 20l4 15h832l-4 -15q-9 -1 -62.5 -5.5t-85.5 -12.5q-68 -18 -90 -100l-213 -779q-26 -91 -26 -165z" />
    <glyph glyph-name="Ucircumflex" unicode="&#xdb;" horiz-adv-x="1603" 
d="M1228 1942q74 0 89 -37q70 -182 133 -394l-27 -16l-280 217l-393 -215l-19 14q148 174 342 390q23 24 52 32.5t103 8.5zM537 322q0 -232 272 -232q363 0 471 387l162 586q70 258 10 283.5t-118.5 31.5t-61.5 6l6 15h549l-6 -15q-8 -1 -79.5 -4.5t-117.5 -31.5
q-78 -50 -143 -279l-168 -602q-68 -242 -233.5 -371t-411.5 -129t-391.5 100t-143.5 273q0 56 19 127l221 797q21 80 -35 100q-29 10 -156 20l4 15h832l-4 -15q-9 -1 -62.5 -5.5t-85.5 -12.5q-68 -18 -90 -100l-213 -779q-26 -91 -26 -165z" />
    <glyph glyph-name="Udieresis" unicode="&#xdc;" horiz-adv-x="1603" 
d="M1178 1673q0 68 46 118t110 50t111.5 -50t47.5 -118t-47.5 -118t-111.5 -50t-110 50t-46 118zM723 1673q0 68 46.5 118t110.5 50t111 -50t47 -118t-47 -118t-111 -50t-110.5 50t-46.5 118zM537 322q0 -232 272 -232q363 0 471 387l162 586q70 258 10 283.5t-118.5 31.5
t-61.5 6l6 15h549l-6 -15q-8 -1 -79.5 -4.5t-117.5 -31.5q-78 -50 -143 -279l-168 -602q-68 -242 -233.5 -371t-411.5 -129t-391.5 100t-143.5 273q0 56 19 127l221 797q21 80 -35 100q-29 10 -156 20l4 15h832l-4 -15q-9 -1 -62.5 -5.5t-85.5 -12.5q-68 -18 -90 -100
l-213 -779q-26 -91 -26 -165z" />
    <glyph glyph-name="Yacute" unicode="&#xdd;" horiz-adv-x="1462" 
d="M1276 1958q63 0 99 -33.5t36 -88.5t-36.5 -96t-90.5 -72t-164.5 -91.5t-173.5 -95.5l-14 16q31 63 86.5 166.5t73.5 138.5q78 156 184 156zM600 1423q242 0 337 -115t95 -300q0 -131 -24 -267h20q79 289 174 437q157 247 379 247q89 0 148 -53t59 -147t-56 -148.5
t-130 -54.5t-117 49t-43 107q0 114 92 188l-10 12q-165 -16 -299 -227q-45 -70 -97.5 -215.5t-89.5 -294.5l-125 -500q-17 -74 41 -100q15 -8 76 -18.5t90 -10.5l-4 -12h-848l4 12q98 6 155 25t75 96l131 533q20 82 20 215t-59.5 217t-154.5 84t-165.5 -39t-103.5 -115
l-18 6q67 187 192.5 288t255.5 101z" />
    <glyph glyph-name="Thorn" unicode="&#xde;" horiz-adv-x="1411" 
d="M582 342q162 0 261 95.5t136 264.5q37 151 8 232.5t-71.5 111t-104.5 29.5h-66l-200 -733h37zM954 1100q252 0 372.5 -100t94.5 -257q-18 -114 -89.5 -199t-232.5 -157t-450 -72h-112l-48 -176q-19 -73 33 -100q29 -14 104 -19.5t79 -5.5l-5 -14h-876l4 14q133 9 166 19
q66 21 86 94l315 1137q21 80 -35 100q-29 10 -155 20l4 15h833l-4 -15q-111 -6 -145 -16q-73 -22 -92 -94l-47 -174h200z" />
    <glyph glyph-name="germandbls" unicode="&#xdf;" horiz-adv-x="1310" 
d="M578 109q0 -43 69 -79t151 -36t130.5 42.5t48.5 102.5t-39.5 116t-119.5 131t-110 110q-73 88 -73 184t68 159t198 130q133 110 143 407q3 131 -88 131q-84 0 -152.5 -100t-129.5 -328q-22 -80 -116 -446t-150 -545q-132 -428 -350 -499.5t-320 -71.5t-169 52.5
t-67 130.5t47 125.5t117 47.5t117 -36.5t47 -106.5t-55 -112t-62 -52q1 -11 13 -21t38 -10t58 18.5t53 41t48.5 88.5t60.5 175q34 110 60 196t71.5 254.5t100 383t75.5 293.5q66 251 247 398t461 147q144 0 239.5 -56t95.5 -146t-37 -157t-93 -100q-154 -32 -227.5 -81
t-73.5 -124t55.5 -134.5t103.5 -105.5t154.5 -152t8 -304.5t-405.5 -198.5q-147 0 -235 58t-88 149t51 147t116 56t101.5 -41.5t36.5 -87.5t-32.5 -89.5t-100.5 -43.5l-45 3q-45 4 -45 -13z" />
    <glyph glyph-name="agrave" unicode="&#xe0;" horiz-adv-x="1271" 
d="M526 1412q0 52 41 90t103 38q98 0 168 -141l159 -316l-12 -12q-67 37 -178 96t-163 89t-85 67t-33 89zM406 182q0 -79 18 -102t50 -23t86.5 42.5t98.5 117.5l185 578q-11 77 -36.5 102t-62.5 25t-94.5 -75t-114.5 -195t-93.5 -255.5t-36.5 -214.5zM37 289q0 271 203 477
q100 102 224.5 160.5t211.5 58.5q163 0 182 -143h6l41 131h357l-230 -701q-61 -177 -61 -213t33 -36q131 0 237 272l25 -8q-59 -147 -110.5 -209t-101.5 -84.5t-106 -22.5q-111 0 -195.5 48t-84.5 153l-9 2q-132 -203 -307 -203q-129 0 -222 76.5t-93 241.5z" />
    <glyph glyph-name="aacute" unicode="&#xe1;" horiz-adv-x="1271" 
d="M997 1548q63 0 99.5 -34t36.5 -88t-37 -95.5t-91 -72.5t-165 -92t-172 -95l-15 16q31 63 86.5 167t73.5 139q77 155 184 155zM406 182q0 -79 18 -102t50 -23t86.5 42.5t98.5 117.5l185 578q-11 77 -36.5 102t-62.5 25t-94.5 -75t-114.5 -195t-93.5 -255.5t-36.5 -214.5z
M37 289q0 271 203 477q100 102 224.5 160.5t211.5 58.5q163 0 182 -143h6l41 131h357l-230 -701q-61 -177 -61 -213t33 -36q131 0 237 272l25 -8q-59 -147 -110.5 -209t-101.5 -84.5t-106 -22.5q-111 0 -195.5 48t-84.5 153l-9 2q-132 -203 -307 -203q-129 0 -222 76.5
t-93 241.5z" />
    <glyph glyph-name="acircumflex" unicode="&#xe2;" horiz-adv-x="1271" 
d="M850.5 1523.5q28.5 8.5 102.5 8.5t89 -37q76 -197 134 -393l-27 -17l-281 218l-393 -216l-18 15q133 157 342 389q23 24 51.5 32.5zM406 182q0 -79 18 -102t50 -23t86.5 42.5t98.5 117.5l185 578q-11 77 -36.5 102t-62.5 25t-94.5 -75t-114.5 -195t-93.5 -255.5
t-36.5 -214.5zM37 289q0 271 203 477q100 102 224.5 160.5t211.5 58.5q163 0 182 -143h6l41 131h357l-230 -701q-61 -177 -61 -213t33 -36q131 0 237 272l25 -8q-59 -147 -110.5 -209t-101.5 -84.5t-106 -22.5q-111 0 -195.5 48t-84.5 153l-9 2q-132 -203 -307 -203
q-129 0 -222 76.5t-93 241.5z" />
    <glyph glyph-name="atilde" unicode="&#xe3;" horiz-adv-x="1271" 
d="M406 182q0 -79 18 -102t50 -23t86.5 42.5t98.5 117.5l185 578q-11 77 -36.5 102t-62.5 25t-94.5 -75t-114.5 -195t-93.5 -255.5t-36.5 -214.5zM946.5 1418q66.5 -52 136.5 -52q116 0 201 127l23 -8q-188 -352 -379 -352q-92 0 -164 53t-137 53q-108 0 -209 -129l-23 10
q120 198 212 274t183 76q90 0 156.5 -52zM37 289q0 271 203 477q100 102 224.5 160.5t211.5 58.5q163 0 182 -143h6l41 131h357l-230 -701q-61 -177 -61 -213t33 -36q131 0 237 272l25 -8q-59 -147 -110.5 -209t-101.5 -84.5t-106 -22.5q-111 0 -195.5 48t-84.5 153l-9 2
q-132 -203 -307 -203q-129 0 -222 76.5t-93 241.5z" />
    <glyph glyph-name="adieresis" unicode="&#xe4;" horiz-adv-x="1271" 
d="M870 1264q0 68 47 118t111 50t111 -50t47 -118t-47 -118t-111 -50t-111 50t-47 118zM416 1264q0 68 46 118t110 50t111.5 -50t47.5 -118t-47.5 -118t-111.5 -50t-110 50t-46 118zM406 182q0 -79 18 -102t50 -23t86.5 42.5t98.5 117.5l185 578q-11 77 -36.5 102t-62.5 25
t-94.5 -75t-114.5 -195t-93.5 -255.5t-36.5 -214.5zM37 289q0 271 203 477q100 102 224.5 160.5t211.5 58.5q163 0 182 -143h6l41 131h357l-230 -701q-61 -177 -61 -213t33 -36q131 0 237 272l25 -8q-59 -147 -110.5 -209t-101.5 -84.5t-106 -22.5q-111 0 -195.5 48
t-84.5 153l-9 2q-132 -203 -307 -203q-129 0 -222 76.5t-93 241.5z" />
    <glyph glyph-name="aring" unicode="&#xe5;" horiz-adv-x="1271" 
d="M823 1104q101 0 135 190q28 191 -69 191q-93 -1 -127 -191t61 -190zM898 1513q116 0 190 -61t56 -157t-112 -158t-216 -62t-191 60.5t-51 156.5t113 158.5t211 62.5zM406 182q0 -79 18 -102t50 -23t86.5 42.5t98.5 117.5l185 578q-11 77 -36.5 102t-62.5 25t-94.5 -75
t-114.5 -195t-93.5 -255.5t-36.5 -214.5zM37 289q0 271 203 477q100 102 224.5 160.5t211.5 58.5q163 0 182 -143h6l41 131h357l-230 -701q-61 -177 -61 -213t33 -36q131 0 237 272l25 -8q-59 -147 -110.5 -209t-101.5 -84.5t-106 -22.5q-111 0 -195.5 48t-84.5 153l-9 2
q-132 -203 -307 -203q-129 0 -222 76.5t-93 241.5z" />
    <glyph glyph-name="ae" unicode="&#xe6;" horiz-adv-x="1609" 
d="M1362 961q-55 0 -119 -146.5t-106 -335.5q129 22 185.5 119.5t74.5 239.5q13 88 -5.5 105.5t-29.5 17.5zM406 182q0 -78 18 -101.5t50 -23.5t86.5 42.5t98.5 117.5l185 578q-11 77 -36.5 102t-62.5 25t-95 -74t-114 -196t-93 -257t-37 -213zM1373 985q130 0 206 -48.5
t76 -125.5q0 -277 -520 -354q-31 -167 -31 -271q0 -163 98 -163q110 0 199.5 78.5t157.5 203.5l22 -10q-90 -171 -203.5 -247.5t-255.5 -76.5t-258.5 65.5t-142.5 239.5l-4 3q-151 -308 -365 -308q-129 0 -222 76.5t-93 243.5t76.5 307t184.5 224q208 162 394 163
q71 0 114 -38t52 -105h6l41 131h230l-17 -64q125 76 255 76z" />
    <glyph glyph-name="ccedilla" unicode="&#xe7;" horiz-adv-x="942" 
d="M23 326q0 136 55.5 254.5t148 207.5t221 143t250.5 54t196.5 -58.5t74.5 -143.5t-48 -138t-117 -53t-109 36.5t-40 102.5t52 113t133 51q-6 28 -41.5 49t-89.5 21t-110.5 -85.5t-96.5 -213.5q-86 -273 -86 -484q0 -159 98 -159q104 0 195 77.5t159 204.5l23 -10
q-91 -175 -199 -249.5t-243 -74.5q-47 0 -91 6l-22 -75q131 3 203 -42t63 -139q-13 -133 -162 -186t-395 -29l8 31q166 0 232 32t73 101q4 41 -23 62.5t-71 21.5l66 228q-150 25 -228.5 116.5t-78.5 227.5z" />
    <glyph glyph-name="egrave" unicode="&#xe8;" horiz-adv-x="921" 
d="M674 961q-55 0 -119 -146.5t-106 -335.5q129 22 185.5 119.5t74.5 239.5q13 88 -5.5 105.5t-29.5 17.5zM362 1412q0 52 41 90t103 38q98 0 168 -141l160 -316l-13 -12q-67 37 -178 96t-163 89t-85 67t-33 89zM697 985q118 0 194 -48.5t76 -125.5q0 -277 -521 -354
q-30 -161 -30 -271q0 -163 98 -163q203 0 356 282l23 -10q-90 -171 -203.5 -247.5t-277.5 -76.5t-276.5 94t-112.5 279t129 359.5t278 228t267 53.5z" />
    <glyph glyph-name="eacute" unicode="&#xe9;" horiz-adv-x="921" 
d="M858 1548q63 0 99 -33.5t36 -88.5t-36.5 -96t-90.5 -72t-164.5 -91.5t-173.5 -95.5l-14 16q31 63 86.5 167t73.5 139q78 155 184 155zM674 961q-55 0 -119 -146.5t-106 -335.5q129 22 185.5 119.5t74.5 239.5q13 88 -5.5 105.5t-29.5 17.5zM697 985q118 0 194 -48.5
t76 -125.5q0 -277 -521 -354q-30 -161 -30 -271q0 -163 98 -163q203 0 356 282l23 -10q-90 -171 -203.5 -247.5t-277.5 -76.5t-276.5 94t-112.5 279t129 359.5t278 228t267 53.5z" />
    <glyph glyph-name="ecircumflex" unicode="&#xea;" horiz-adv-x="921" 
d="M674 961q-55 0 -119 -146.5t-106 -335.5q129 22 185.5 119.5t74.5 239.5q13 88 -5.5 105.5t-29.5 17.5zM682.5 1523.5q28.5 8.5 102.5 8.5t89 -37q76 -197 134 -393l-27 -17l-281 218l-393 -216l-18 15q133 157 342 389q23 24 51.5 32.5zM697 985q118 0 194 -48.5
t76 -125.5q0 -277 -521 -354q-30 -161 -30 -271q0 -163 98 -163q203 0 356 282l23 -10q-90 -171 -203.5 -247.5t-277.5 -76.5t-276.5 94t-112.5 279t129 359.5t278 228t267 53.5z" />
    <glyph glyph-name="edieresis" unicode="&#xeb;" horiz-adv-x="921" 
d="M748 1264q0 68 46 118t110 50t111.5 -50t47.5 -118t-47.5 -118t-111.5 -50t-110 50t-46 118zM674 961q-55 0 -119 -146.5t-106 -335.5q129 22 185.5 119.5t74.5 239.5q13 88 -5.5 105.5t-29.5 17.5zM293 1264q0 68 46.5 118t110.5 50t111 -50t47 -118t-47 -118t-111 -50
t-110.5 50t-46.5 118zM697 985q118 0 194 -48.5t76 -125.5q0 -277 -521 -354q-30 -161 -30 -271q0 -163 98 -163q203 0 356 282l23 -10q-90 -171 -203.5 -247.5t-277.5 -76.5t-276.5 94t-112.5 279t129 359.5t278 228t267 53.5z" />
    <glyph glyph-name="igrave" unicode="&#xec;" horiz-adv-x="753" 
d="M211 1412q0 52 40.5 90t102.5 38q98 0 168 -141l160 -316l-12 -12q-67 38 -178.5 96.5t-162.5 88.5t-84.5 67t-33.5 89zM391 985q112 0 194.5 -58t82.5 -138t-41 -185l-115 -301q-66 -171 -66 -201q0 -54 43 -55q125 0 222 248l24 -8q-63 -155 -142 -232.5t-207 -77.5
t-209 46t-81 135q0 58 35 149l150 389q53 139 53 168q0 49 -37 49q-55 0 -111.5 -61t-105.5 -186l-25 8q62 151 143 231t193 80z" />
    <glyph glyph-name="iacute" unicode="&#xed;" horiz-adv-x="753" 
d="M672 1548q63 0 99 -33.5t36 -88.5t-36.5 -96t-90.5 -72t-164.5 -91.5t-173.5 -95.5l-14 16q31 63 86.5 167t72.5 139q77 155 185 155zM391 985q112 0 194.5 -58t82.5 -138t-41 -185l-115 -301q-66 -171 -66 -201q0 -54 43 -55q125 0 222 248l24 -8q-63 -155 -142 -232.5
t-207 -77.5t-209 46t-81 135q0 58 35 149l150 389q53 139 53 168q0 49 -37 49q-55 0 -111.5 -61t-105.5 -186l-25 8q62 151 143 231t193 80z" />
    <glyph glyph-name="icircumflex" unicode="&#xee;" horiz-adv-x="753" 
d="M584 1532q74 0 90 -37q72 -186 133 -393l-27 -17l-280 218l-394 -216l-18 15q133 157 342 389q23 24 51.5 32.5t102.5 8.5zM391 985q112 0 194.5 -58t82.5 -138t-41 -185l-115 -301q-66 -171 -66 -201q0 -54 43 -55q125 0 222 248l24 -8q-63 -155 -142 -232.5t-207 -77.5
t-209 46t-81 135q0 58 35 149l150 389q53 139 53 168q0 49 -37 49q-55 0 -111.5 -61t-105.5 -186l-25 8q62 151 143 231t193 80z" />
    <glyph glyph-name="idieresis" unicode="&#xef;" horiz-adv-x="753" 
d="M555 1264q0 68 46.5 118t110.5 50t111 -50t47 -118t-47 -118t-111 -50t-110.5 50t-46.5 118zM100 1264q0 68 47 118t111 50t111 -50t47 -118t-47 -118t-111 -50t-111 50t-47 118zM391 985q112 0 194.5 -58t82.5 -138t-41 -185l-115 -301q-66 -171 -66 -201q0 -54 43 -55
q125 0 222 248l24 -8q-63 -155 -142 -232.5t-207 -77.5t-209 46t-81 135q0 58 35 149l150 389q53 139 53 168q0 49 -37 49q-55 0 -111.5 -61t-105.5 -186l-25 8q62 151 143 231t193 80z" />
    <glyph glyph-name="eth" unicode="&#xf0;" horiz-adv-x="1173" 
d="M455 -8q94 0 192 246q55 135 92 302.5t39 291.5t-56 124t-120.5 -90.5t-114.5 -236.5q-97 -279 -100 -520q-2 -117 68 -117zM449 -29q-161 0 -288.5 109.5t-127.5 311.5q0 112 63.5 232t173.5 207q191 150 428 150q47 0 80 -22t43 -50l8 2q3 75 -13.5 172.5t-43.5 171.5
l-276 -143l-17 47l275 141q-54 125 -133 220l12 14q124 -64 250 -164l231 117l19 -43l-207 -109q238 -245 225 -608q-6 -174 -81.5 -328.5t-199.5 -261.5q-193 -166 -421 -166z" />
    <glyph glyph-name="ntilde" unicode="&#xf1;" horiz-adv-x="1325" 
d="M989.5 1418q66.5 -52 136.5 -52q116 0 201 127l23 -8q-188 -352 -379 -352q-92 0 -164 53t-137 53q-108 0 -209 -129l-23 10q120 198 212 274t183 76q90 0 156.5 -52zM913 848q0 57 -68 57q-85 0 -204 -188l-240 -717h-378l223 655q7 22 37 106t30 108q0 44 -37 44
q-55 0 -111.5 -61t-105.5 -186l-24 8q62 151 143 231t182 80t193 -46t92 -151l8 -2q142 199 322 199q106 0 192 -66t86 -163q0 -49 -41 -152l-114 -301q-66 -171 -66 -201q0 -54 43 -55q125 0 221 248l25 -8q-63 -155 -142 -232.5t-211 -77.5t-209 48.5t-77 132.5
q0 57 35 149l137 361q59 155 59 180z" />
    <glyph glyph-name="ograve" unicode="&#xf2;" horiz-adv-x="1173" 
d="M430 1412q0 52 40.5 90t102.5 38q97 0 168 -141l160 -316l-12 -12q-67 38 -178.5 96.5t-162.5 88.5t-84.5 67t-33.5 89zM428 -8q90 0 188 235q57 138 95.5 312t40.5 300t-56 126t-121.5 -94.5t-115.5 -245.5q-96 -287 -99 -516q-2 -117 68 -117zM6 388q0 108 59 222
t159 198q212 176 478 177q175 0 293.5 -109.5t118.5 -291.5q0 -122 -55.5 -233t-153.5 -197t-223.5 -134.5t-231.5 -48.5t-180.5 28t-133 78t-94.5 126.5t-36 184.5z" />
    <glyph glyph-name="oacute" unicode="&#xf3;" horiz-adv-x="1173" 
d="M897 1548q63 0 99 -33.5t36 -88.5t-36 -96t-90 -72t-165 -91.5t-174 -95.5l-14 16q31 63 86.5 167t73.5 139q77 155 184 155zM428 -8q90 0 188 235q57 138 95.5 312t40.5 300t-56 126t-121.5 -94.5t-115.5 -245.5q-96 -287 -99 -516q-2 -117 68 -117zM6 388q0 108 59 222
t159 198q212 176 478 177q175 0 293.5 -109.5t118.5 -291.5q0 -122 -55.5 -233t-153.5 -197t-223.5 -134.5t-231.5 -48.5t-180.5 28t-133 78t-94.5 126.5t-36 184.5z" />
    <glyph glyph-name="ocircumflex" unicode="&#xf4;" horiz-adv-x="1173" 
d="M428 -8q90 0 188 235q57 138 95.5 312t40.5 300t-56 126t-121.5 -94.5t-115.5 -245.5q-96 -287 -99 -516q-2 -117 68 -117zM723.5 1523.5q28.5 8.5 102.5 8.5t89 -37q76 -197 134 -393l-27 -17l-281 218l-393 -216l-18 15q133 157 342 389q23 24 51.5 32.5zM6 388
q0 108 59 222t159 198q212 176 478 177q175 0 293.5 -109.5t118.5 -291.5q0 -122 -55.5 -233t-153.5 -197t-223.5 -134.5t-231.5 -48.5t-180.5 28t-133 78t-94.5 126.5t-36 184.5z" />
    <glyph glyph-name="otilde" unicode="&#xf5;" horiz-adv-x="1173" 
d="M428 -8q90 0 188 235q57 138 95.5 312t40.5 300t-56 126t-121.5 -94.5t-115.5 -245.5q-96 -287 -99 -516q-2 -117 68 -117zM844.5 1418q66.5 -52 136.5 -52q116 0 201 127l22 -8q-188 -352 -379 -352q-92 0 -164 53t-137 53q-108 0 -209 -129l-22 10q120 198 212 274
t183 76q90 0 156.5 -52zM6 388q0 108 59 222t159 198q212 176 478 177q175 0 293.5 -109.5t118.5 -291.5q0 -122 -55.5 -233t-153.5 -197t-223.5 -134.5t-231.5 -48.5t-180.5 28t-133 78t-94.5 126.5t-36 184.5z" />
    <glyph glyph-name="odieresis" unicode="&#xf6;" horiz-adv-x="1173" 
d="M784 1264q0 68 47 118t111 50t111 -50t47 -118t-47 -118t-111 -50t-111 50t-47 118zM428 -8q90 0 188 235q57 138 95.5 312t40.5 300t-56 126t-121.5 -94.5t-115.5 -245.5q-96 -287 -99 -516q-2 -117 68 -117zM330 1264q0 68 46 118t110 50t111.5 -50t47.5 -118
t-47.5 -118t-111.5 -50t-110 50t-46 118zM6 388q0 108 59 222t159 198q212 176 478 177q175 0 293.5 -109.5t118.5 -291.5q0 -122 -55.5 -233t-153.5 -197t-223.5 -134.5t-231.5 -48.5t-180.5 28t-133 78t-94.5 126.5t-36 184.5z" />
    <glyph glyph-name="divide" unicode="&#xf7;" 
d="M444 820q0 58 40.5 97t99.5 39t99 -39t40 -97t-40.5 -98t-98.5 -40t-99 40t-41 98zM444 244q0 58 41 97.5t99 39.5t98.5 -40t40.5 -98t-40.5 -98.5t-98.5 -40.5t-99 41t-41 99zM102 473v119h963v-119h-963z" />
    <glyph glyph-name="oslash" unicode="&#xf8;" horiz-adv-x="1173" 
d="M723 965q-52 0 -140.5 -122.5t-158.5 -432.5q-17 -77 -25 -136l365 412q23 130 14 187.5t-22 74.5t-33 17zM455 -8q66 0 157.5 175.5t143.5 463.5l-363 -410q-26 -229 62 -229zM33 371q0 133 68.5 254.5t185.5 210.5q199 149 442 149q149 0 260 -82l96 101l23 -23
l-94 -98q127 -114 127 -299q0 -236 -197 -420q-94 -88 -225 -140.5t-265 -52.5t-249 72l-101 -104l-24 20l100 104q-147 114 -147 308z" />
    <glyph glyph-name="ugrave" unicode="&#xf9;" horiz-adv-x="1325" 
d="M520 1412q0 52 41 90t103 38q96 0 167 -141l160 -316l-12 -12q-67 38 -178.5 96.5t-162.5 88.5t-84.5 67t-33.5 89zM428 115q0 -58 68 -58q84 0 204 189l240 717h379l-223 -656q-8 -24 -38 -110.5t-30 -106.5t11 -30.5t26 -10.5q55 0 111.5 61.5t105.5 186.5l25 -8
q-62 -151 -142.5 -231.5t-182.5 -80.5t-194 46t-92 151l-8 2q-142 -199 -321 -199q-106 0 -192.5 66.5t-86.5 163.5q0 48 41 151l115 301q65 168 65 218q0 15 -12.5 26.5t-30.5 11.5q-125 0 -221 -247l-25 8q63 155 142.5 232t211.5 77t208.5 -48t76.5 -120t-34 -162
l-138 -360q-59 -155 -59 -180z" />
    <glyph glyph-name="uacute" unicode="&#xfa;" horiz-adv-x="1325" 
d="M1032 1548q63 0 99 -33.5t36 -88.5t-36.5 -96t-90.5 -72t-164.5 -91.5t-173.5 -95.5l-14 16q31 63 86.5 167t73.5 139q78 155 184 155zM428 115q0 -58 68 -58q84 0 204 189l240 717h379l-223 -656q-8 -24 -38 -110.5t-30 -106.5t11 -30.5t26 -10.5q55 0 111.5 61.5
t105.5 186.5l25 -8q-62 -151 -142.5 -231.5t-182.5 -80.5t-194 46t-92 151l-8 2q-142 -199 -321 -199q-106 0 -192.5 66.5t-86.5 163.5q0 48 41 151l115 301q65 168 65 218q0 15 -12.5 26.5t-30.5 11.5q-125 0 -221 -247l-25 8q63 155 142.5 232t211.5 77t208.5 -48
t76.5 -120t-34 -162l-138 -360q-59 -155 -59 -180z" />
    <glyph glyph-name="ucircumflex" unicode="&#xfb;" horiz-adv-x="1325" 
d="M928 1532q74 0 90 -37q72 -186 133 -393l-27 -17l-280 218l-393 -216l-19 15q133 157 342 389q23 24 51.5 32.5t102.5 8.5zM428 115q0 -58 68 -58q84 0 204 189l240 717h379l-223 -656q-8 -24 -38 -110.5t-30 -106.5t11 -30.5t26 -10.5q55 0 111.5 61.5t105.5 186.5
l25 -8q-62 -151 -142.5 -231.5t-182.5 -80.5t-194 46t-92 151l-8 2q-142 -199 -321 -199q-106 0 -192.5 66.5t-86.5 163.5q0 48 41 151l115 301q65 168 65 218q0 15 -12.5 26.5t-30.5 11.5q-125 0 -221 -247l-25 8q63 155 142.5 232t211.5 77t208.5 -48t76.5 -120t-34 -162
l-138 -360q-59 -155 -59 -180z" />
    <glyph glyph-name="udieresis" unicode="&#xfc;" horiz-adv-x="1325" 
d="M870 1264q0 68 47 118t111 50t111 -50t47 -118t-47 -118t-111 -50t-111 50t-47 118zM416 1264q0 68 46 118t110 50t111.5 -50t47.5 -118t-47.5 -118t-111.5 -50t-110 50t-46 118zM428 115q0 -58 68 -58q84 0 204 189l240 717h379l-223 -656q-8 -24 -38 -110.5t-30 -106.5
t11 -30.5t26 -10.5q55 0 111.5 61.5t105.5 186.5l25 -8q-62 -151 -142.5 -231.5t-182.5 -80.5t-194 46t-92 151l-8 2q-142 -199 -321 -199q-106 0 -192.5 66.5t-86.5 163.5q0 48 41 151l115 301q65 168 65 218q0 15 -12.5 26.5t-30.5 11.5q-125 0 -221 -247l-25 8
q63 155 142.5 232t211.5 77t208.5 -48t76.5 -120t-34 -162l-138 -360q-59 -155 -59 -180z" />
    <glyph glyph-name="yacute" unicode="&#xfd;" horiz-adv-x="1277" 
d="M1061 1548q63 0 99 -33.5t36 -88.5t-36 -96t-90 -72t-165 -91.5t-174 -95.5l-14 16q31 63 86.5 167t73.5 139q77 155 184 155zM428 115q0 -58 68 -58q84 0 204 189l240 717h379l-248 -738q-156 -471 -408.5 -592.5t-496.5 -121.5q-117 0 -198 57.5t-81 151.5t61.5 149
t135.5 55t120 -43t46 -105t-41.5 -107.5t-108.5 -45.5q-12 -1 -52.5 0.5t-49.5 -10.5q8 -34 55.5 -58t108.5 -24q177 0 302 155.5t232 487.5l-8 2q-142 -199 -321 -199q-106 0 -192.5 66.5t-86.5 163.5q0 48 41 151l115 301q65 168 65 218q0 15 -12.5 26.5t-30.5 11.5
q-125 0 -221 -247l-25 8q63 155 142.5 232t211.5 77t208.5 -48t76.5 -120t-34 -162l-138 -360q-59 -155 -59 -180z" />
    <glyph glyph-name="thorn" unicode="&#xfe;" horiz-adv-x="1228" 
d="M685 268q54 120 97 287t43 287q0 63 -45 63t-87 -39t-111 -129l-185 -583q32 -127 106 -127q73 1 182 241zM414 1407q0 55 -82 66q-35 4 -131 8v18l628 21l-167 -531q-27 -96 -74 -194l6 -4q112 153 175 173.5t117 20.5q114 0 208 -73.5t94 -238.5t-59 -291t-156 -218
t-209.5 -141.5t-222.5 -49.5q-59 0 -99.5 40t-52.5 91h-8l-107 -352q-28 -88 -28 -137q0 -55 84 -66q40 -5 121 -8l-7 -20h-770l7 18q107 -1 139 37q26 29 34.5 48.5t15 33.5t9.5 23l14 41q11 33 11 34l479 1514q31 94 31 137z" />
    <glyph glyph-name="ydieresis" unicode="&#xff;" horiz-adv-x="1277" 
d="M885 1264q0 68 46.5 118t110.5 50t111 -50t47 -118t-47 -118t-111 -50t-110.5 50t-46.5 118zM430 1264q0 68 47 118t111 50t110.5 -50t46.5 -118t-46.5 -118t-110.5 -50t-111 50t-47 118zM428 115q0 -58 68 -58q84 0 204 189l240 717h379l-248 -738
q-156 -471 -408.5 -592.5t-496.5 -121.5q-117 0 -198 57.5t-81 151.5t61.5 149t135.5 55t120 -43t46 -105t-41.5 -107.5t-108.5 -45.5q-12 -1 -52.5 0.5t-49.5 -10.5q8 -34 55.5 -58t108.5 -24q177 0 302 155.5t232 487.5l-8 2q-142 -199 -321 -199q-106 0 -192.5 66.5
t-86.5 163.5q0 48 41 151l115 301q65 168 65 218q0 15 -12.5 26.5t-30.5 11.5q-125 0 -221 -247l-25 8q63 155 142.5 232t211.5 77t208.5 -48t76.5 -120t-34 -162l-138 -360q-59 -155 -59 -180z" />
    <glyph glyph-name="dotlessi" unicode="&#x131;" horiz-adv-x="753" 
d="M391 985q112 0 194.5 -58t82.5 -138t-41 -185l-115 -301q-66 -171 -66 -201q0 -54 43 -55q125 0 222 248l24 -8q-63 -155 -142 -232.5t-207 -77.5t-209 46t-81 135q0 58 35 149l150 389q53 139 53 168q0 49 -37 49q-55 0 -111.5 -61t-105.5 -186l-25 8q62 151 143 231
t193 80z" />
    <glyph glyph-name="Lslash" unicode="&#x141;" horiz-adv-x="1333" 
d="M670 25q162 1 227 51t183 168.5t186 197.5h22l-151 -442h-1313l4 14q133 9 166 19q66 21 86 94l133 479l-182 -61l-8 57l206 68l166 594q21 80 -35 100q-29 10 -155 20l4 15h838l-5 -15q-9 -1 -67 -6t-86 -12q-68 -18 -90 -100l-135 -478l276 91l4 -54l-299 -98
l-145 -526q-33 -122 -12.5 -146.5t66 -27t116.5 -2.5z" />
    <glyph glyph-name="lslash" unicode="&#x142;" horiz-adv-x="684" 
d="M414 1407q0 55 -82 66q-35 4 -131 8v18l628 21l-213 -674l132 47l2 -49l-150 -51l-168 -535q-55 -171 -55 -200t52 -29t112.5 68t111.5 198l25 -8q-60 -160 -139 -235t-209 -75t-205.5 45t-75.5 136q0 54 29 149l115 365l-140 -47l-6 47l164 55l172 543q31 94 31 137z
" />
    <glyph glyph-name="OE" unicode="&#x152;" horiz-adv-x="2222" 
d="M981 1374q-168 0 -293 -200q-103 -162 -173 -414t-73 -445q-4 -290 226 -290q118 0 182.5 50t99.5 181l230 885q32 127 -19.5 180t-179.5 53zM991 1399h1272l-102 -367h-23q-50 159 -77 214q-51 103 -115 118q-45 10 -152 10h-141l-178 -637h84q97 0 155 32t119.5 112.5
t91.5 130.5h23l-162 -584h-23q-4 56 -17.5 128t-31.5 98q-39 58 -164 59h-84l-145 -531q-29 -103 -9 -130t108 -27t162 3t140 54q67 51 182 163t175 183h20l-147 -428h-1327q-315 0 -451.5 165t-134.5 380q5 417 391 684q242 170 561 170z" />
    <glyph glyph-name="oe" unicode="&#x153;" horiz-adv-x="1585" 
d="M1337 961q-55 0 -119 -146.5t-106 -335.5q129 22 185.5 119.5t74.5 239.5q13 88 -5.5 105.5t-29.5 17.5zM455 -8q85 0 178 211q60 140 101.5 322.5t43.5 310.5t-55 129q-103 1 -211 -263q-52 -124 -115 -417t58 -293zM33 393q0 113 69 236t189 211q195 145 438 145
q188 0 277 -119q62 55 157 87t205 32t186 -48.5t76 -125.5q0 -277 -520 -354q-31 -167 -31 -271q0 -163 99 -163q203 0 356 282l22 -10q-90 -171 -203 -247.5t-259 -76.5q-190 0 -285 109q-63 -53 -161.5 -81t-187.5 -28t-163.5 28t-133 78t-94.5 126.5t-36 189.5z" />
    <glyph glyph-name="Scaron" unicode="&#x160;" horiz-adv-x="1232" 
d="M822.5 1511.5q-28.5 -8.5 -102.5 -8.5t-89 37q-72 186 -133 393l26 17l281 -217l393 215l19 -15q-116 -137 -343 -389q-23 -24 -51.5 -32.5zM492 -4q202 0 246 102.5t48 147.5q7 90 -36.5 152t-145.5 112q-34 17 -110 50t-103 46q-144 71 -199.5 174.5t-21.5 269.5
t187.5 275t381.5 109q121 0 232 -28.5t162 -64.5l77 76h27l-88 -485h-21q-67 240 -156.5 357.5t-232.5 117.5q-110 0 -179.5 -66t-83.5 -159t32 -158t154 -115q61 -29 204 -90q298 -127 256 -422q-17 -125 -103.5 -223t-221.5 -151.5t-286 -53.5t-268.5 33.5t-181.5 73.5
l-90 -92h-24l90 516h22q76 -241 182 -372.5t251 -131.5z" />
    <glyph glyph-name="scaron" unicode="&#x161;" horiz-adv-x="958" 
d="M685.5 1102.5q-28.5 -8.5 -102.5 -8.5t-89 36q-75 194 -134 394l27 16l281 -217l393 215l18 -14q-133 -157 -342 -389q-23 -24 -51.5 -32.5zM82 135q0 -50 84 -95.5t183 -45.5t160.5 51t61.5 115t-35.5 99t-56 51t-113.5 85q-93 68 -143.5 134.5t-50.5 154.5
q0 145 122 223t335 78q148 0 233.5 -60.5t85.5 -140.5t-44 -127t-106 -47t-98 31t-36 81t29 80t63.5 39.5t65.5 17t34 13.5q-6 29 -65.5 60t-136.5 31t-126 -38.5t-49 -111.5t54 -120t156 -124q103 -77 144 -136.5t41 -149.5q0 -139 -127 -225.5t-374 -86.5q-167 0 -269 67
t-102 169q0 78 52 136t124 58t109 -41t37 -87t-33 -87t-109 -41l-50 3q-50 4 -50 -13z" />
    <glyph glyph-name="Ydieresis" unicode="&#x178;" horiz-adv-x="1583" 
d="M1059 1673q0 68 46.5 118t110.5 50t111 -50t47 -118t-47 -118t-111 -50t-110.5 50t-46.5 118zM604 1673q0 68 47 118t111 50t111 -50t47 -118t-47 -118t-111 -50t-111 50t-47 118zM520 1423q243 0 337.5 -115.5t94.5 -299.5q0 -131 -24 -267h20q79 289 174 437
q157 247 379 247q89 0 148 -53t59 -147t-56 -148.5t-130 -54.5t-117 49t-43 107q0 114 92 188l-10 12q-165 -16 -299 -227q-45 -70 -97.5 -215.5t-89.5 -294.5l-124 -500q-17 -75 40 -100q15 -8 76 -18.5t90 -10.5l-4 -12h-848l5 12q97 6 154 25t75 96l131 533q20 82 20 215
t-59.5 217t-154.5 84t-165.5 -39t-103.5 -115l-18 6q67 187 192.5 288t255.5 101z" />
    <glyph glyph-name="Zcaron" unicode="&#x17d;" horiz-adv-x="1343" 
d="M820 1503q-74 0 -89 37q-72 186 -133 393l27 17l280 -217l393 215l19 -15q-133 -157 -342 -389q-23 -24 -52 -32.5t-103 -8.5zM756 1368q-150 0 -210 -24t-173 -126t-217 -231h-23l141 412h1217l-6 -23l-1194 -1345h272q162 0 231 13t107 48q209 188 361 365h22
l-162 -457h-1298l6 20l1186 1348h-260z" />
    <glyph glyph-name="zcaron" unicode="&#x17e;" horiz-adv-x="989" 
d="M706.5 1102.5q-28.5 -8.5 -102.5 -8.5t-90 36q-70 182 -133 394l27 16l280 -217l393 215l19 -14q-133 -157 -342 -389q-23 -24 -51.5 -32.5zM724 272q101 0 101 52q0 24 -21.5 46.5t-64.5 30.5l9 21q95 -18 145.5 -64.5t50.5 -107.5q0 -106 -67.5 -192.5t-182.5 -86.5
t-183.5 61t-101.5 121t-61 109t-61 49q-60 -14 -67 -76t-7 -106v-47q0 -113 -133 -113t-133 97q0 31 23.5 60.5t89.5 77.5t181.5 122.5t266 167.5t203.5 127l-4 12q-88 -7 -230.5 16t-169.5 23q-57 0 -57 -43q0 -23 33 -48.5t88 -39.5l-11 -23q-121 36 -181 89t-60 141
t70.5 167.5t146.5 79.5t131.5 -24t112 -79.5t107 -139.5t88.5 -84q49 0 49 22l-5 172q0 61 37 98t102 37q119 0 119 -88q0 -45 -24 -77t-79 -74t-311 -201.5t-333 -210.5l2 -12q96 7 220 -27.5t172 -34.5z" />
    <glyph glyph-name="florin" unicode="&#x192;" horiz-adv-x="1175" 
d="M-436 -203q0 65 48 118.5t118 53.5q141 0 141 -135q0 -53 -41.5 -102t-97.5 -74q12 -35 69 -35q189 0 340 457q77 229 168 567h-217l10 35h215q51 169 114 278t159 185q165 133 424 133q115 0 192.5 -55t77.5 -164q0 -62 -47 -109t-115 -47t-106.5 33t-38.5 96
q0 95 133 189q-7 13 -34.5 24.5t-65.5 11.5q-91 0 -152 -104t-129 -342l-39 -129h258l-12 -35h-254q-125 -422 -156 -510q-84 -247 -294 -389t-439 -143q-98 0 -163.5 46t-65.5 146z" />
    <glyph glyph-name="circumflex" unicode="&#x2c6;" horiz-adv-x="1024" 
d="M678.5 1523.5q28.5 8.5 102.5 8.5t89 -37q76 -197 134 -393l-27 -17l-281 218l-393 -216l-18 15q133 157 342 389q23 24 51.5 32.5z" />
    <glyph glyph-name="caron" unicode="&#x2c7;" horiz-adv-x="1024" 
d="M767.5 1102.5q-28.5 -8.5 -102.5 -8.5t-90 36q-70 182 -133 394l27 16l281 -217l393 215l18 -14q-133 -157 -342 -389q-23 -24 -51.5 -32.5z" />
    <glyph glyph-name="breve" unicode="&#x2d8;" horiz-adv-x="1024" 
d="M708 1317q216 0 363 190l31 -12q-104 -219 -221 -318.5t-237 -99.5t-185 101.5t-45 322.5l28 12q50 -196 266 -196z" />
    <glyph glyph-name="dotaccent" unicode="&#x2d9;" horiz-adv-x="1024" 
d="M524 1247q0 72 49.5 124t118.5 52t118.5 -52t49.5 -124t-49.5 -124t-118.5 -52t-118.5 52t-49.5 124z" />
    <glyph glyph-name="ring" unicode="&#x2da;" horiz-adv-x="1024" 
d="M682 1104q99 0 133 190q28 191 -70 191q-93 -1 -127 -191t64 -190zM754 1513q116 0 190 -61t56 -157t-111.5 -158t-215.5 -62t-191.5 60.5t-51.5 156.5t113 158.5t211 62.5z" />
    <glyph glyph-name="ogonek" unicode="&#x2db;" horiz-adv-x="1024" 
d="M39 -293q23 86 128 153t335 140h14q-172 -113 -216 -271q-43 -158 149 -186l-7 -26q-224 -11 -328 36.5t-75 153.5z" />
    <glyph glyph-name="tilde" unicode="&#x2dc;" horiz-adv-x="1024" 
d="M809.5 1418q66.5 -52 136.5 -52q116 0 201 127l22 -8q-141 -257 -231 -304.5t-143 -47.5q-96 0 -168.5 53t-137.5 53q-107 0 -208 -129l-23 10q120 198 212 274t183 76q90 0 156.5 -52z" />
    <glyph glyph-name="hungarumlaut" unicode="&#x2dd;" horiz-adv-x="1024" 
d="M1241 1530q56 0 83.5 -34.5t13.5 -84.5t-54.5 -86t-96.5 -64t-174 -81.5t-182 -83.5l-8 14l215 281q103 139 203 139zM860 1530q56 0 83 -34.5t13 -84.5t-54 -86t-96 -64t-174 -81.5t-181 -83.5l-9 14l215 281q103 139 203 139z" />
    <glyph glyph-name="pi" unicode="&#x3c0;" horiz-adv-x="1400" 
d="M80 -8q-92 0 -90 44t101 147.5t138 150.5q190 230 324 608h-37q-38 0 -63 -10q-52 -19 -160 -126.5t-170 -184.5h-17l119 342h1319l-6 -17q-125 -4 -221 -4l-215 -639q-6 -17 -13.5 -40t-12 -36t-10.5 -30.5t-9.5 -27.5t-12 -37.5t-8.5 -44.5q0 -16 12.5 -28t30.5 -12
q125 0 221 248l25 -8q-63 -155 -142 -232.5t-211 -77.5t-207 48.5t-75 120.5t31 161l215 635h-262q-105 -329 -291 -666q-103 -188 -157 -236t-146 -48z" />
    <glyph glyph-name="endash" unicode="&#x2013;" horiz-adv-x="1114" 
d="M51 399l68 242h909l-67 -242h-910z" />
    <glyph glyph-name="emdash" unicode="&#x2014;" horiz-adv-x="1810" 
d="M51 399l68 242h1605l-67 -242h-1606z" />
    <glyph glyph-name="quoteleft" unicode="&#x2018;" horiz-adv-x="501" 
d="M416 1262q142 0 163.5 -110.5t-44 -174.5t-137.5 -64q-132 0 -170.5 85.5t-14.5 185.5q39 208 204.5 295t237.5 112l7 -24q-98 -34 -201 -126.5t-127 -178.5h82z" />
    <glyph glyph-name="quoteright" unicode="&#x2019;" horiz-adv-x="501" 
d="M412 1243q-142 0 -163.5 109.5t43.5 174t137 64.5q132 0 170.5 -85t14.5 -185q-38 -206 -204 -294.5t-238 -113.5l-6 25q98 34 201 126.5t127 178.5h-82z" />
    <glyph glyph-name="quotesinglbase" unicode="&#x201a;" horiz-adv-x="550" 
d="M219 0q-142 0 -163.5 110t44 174t137.5 64q132 0 170.5 -85t14.5 -185q-38 -206 -204 -294.5t-238 -113.5l-7 25q98 34 201 126.5t127 178.5h-82z" />
    <glyph glyph-name="quotedblleft" unicode="&#x201c;" horiz-adv-x="966" 
d="M881 1262q142 0 163.5 -110.5t-44 -174.5t-137.5 -64q-132 0 -170.5 85.5t-14.5 185.5q39 208 204.5 295t237.5 112l6 -24q-98 -34 -200.5 -126.5t-126.5 -178.5h82zM416 1262q142 0 163.5 -110.5t-44 -174.5t-137.5 -64q-132 0 -170.5 85.5t-14.5 185.5
q39 208 204.5 295t237.5 112l7 -24q-98 -34 -201 -126.5t-127 -178.5h82z" />
    <glyph glyph-name="quotedblright" unicode="&#x201d;" horiz-adv-x="966" 
d="M877 1243q-142 0 -163.5 109.5t43.5 174t137 64.5q132 0 170.5 -85t14.5 -185q-38 -206 -204 -294.5t-238 -113.5l-6 25q98 34 200.5 126.5t126.5 178.5h-81zM412 1243q-142 0 -163.5 109.5t43.5 174t137 64.5q132 0 170.5 -85t14.5 -185q-38 -206 -204 -294.5
t-238 -113.5l-6 25q98 34 201 126.5t127 178.5h-82z" />
    <glyph glyph-name="quotedblbase" unicode="&#x201e;" horiz-adv-x="1021" 
d="M684 0q-142 0 -163.5 110t44 174t137.5 64q132 0 170.5 -85t14.5 -185q-39 -207 -205 -295t-238 -113l-6 25q98 34 201 126.5t127 178.5h-82zM219 0q-142 0 -163.5 110t44 174t137.5 64q132 0 170.5 -85t14.5 -185q-38 -206 -204 -294.5t-238 -113.5l-7 25
q98 34 201 126.5t127 178.5h-82z" />
    <glyph glyph-name="dagger" unicode="&#x2020;" horiz-adv-x="886" 
d="M328 1096q7 0 45.5 11.5t86.5 0.5q47 -11 66 -51q2 35 -7 92.5t-14 93.5t7 86t46.5 76.5t80.5 14.5t63.5 -52t5.5 -82t-40.5 -81t-63 -80.5t-51.5 -73.5q75 37 117.5 1.5t49.5 -41t28 -26.5q19 31 49 45t62 6t48.5 -40t5.5 -77t-54.5 -67t-83.5 -12t-51.5 25t-19.5 26
t-10 19l-12 36q-10 28 -10 31t-5.5 26.5t-16.5 26.5q-10 3 -16 -6.5t-108 -269.5t-200 -543l-19 6q45 225 131 811q8 55 -6 59q-6 3 -19 -12t-19 -19t-15.5 -13t-16 -14.5t-17.5 -14t-42 -27t-59 -6.5q-52 14 -78 55t-14 86t43 63.5t63 10.5t51 -35t19 -65z" />
    <glyph glyph-name="daggerdbl" unicode="&#x2021;" horiz-adv-x="886" 
d="M463 1116q-1 78 -23 84t-48 -12t-56 -36t-67 -10t-54 44t-5 74t42 57.5t62 13.5t50 -35.5t15 -74.5q70 16 118 -20t60 -54q1 21 -25.5 89t-15.5 112t47.5 64.5t77.5 9.5t61 -48t11 -70q-16 -59 -70.5 -97t-67.5 -64q51 23 109 12t84 -41q18 41 48 58t62 8t48.5 -42
t6.5 -72t-43.5 -61.5t-67.5 -12.5q-55 17 -72.5 73t-47.5 65q-19 6 -31 -13t-20 -33q-7 -14 -57 -96t-119 -224l-18 6q6 144 6 346zM453 356q0 -77 20 -83q33 -10 80.5 31t93.5 31q45 -11 59 -49t1 -75t-45 -57t-64 -11q-67 16 -61 109q-66 -15 -116 19.5t-63 54.5
q-1 -22 26.5 -87t16.5 -109t-48.5 -67.5t-78.5 -12.5t-60.5 48t-9.5 74t38.5 65.5t58 51t39.5 41.5q-52 -22 -125 -11q-42 9 -68 39q-18 -40 -49.5 -56t-63.5 -7t-46.5 40t-4.5 71t42.5 63t66.5 14q58 -15 74 -73.5t47 -67.5q21 -6 47 39q11 20 61 103t119 225l19 -7
q-6 -144 -6 -346z" />
    <glyph glyph-name="bullet" unicode="&#x2022;" horiz-adv-x="813" 
d="M109 666q0 118 86.5 204t205.5 86t205 -86t86 -204t-86 -202.5t-205 -84.5t-205.5 84.5t-86.5 202.5z" />
    <glyph glyph-name="ellipsis" unicode="&#x2026;" horiz-adv-x="1681" 
d="M1202 162q0 79 57 133.5t137 54.5t136.5 -54.5t56.5 -133.5t-56.5 -134t-136.5 -55t-137 55t-57 134zM639 162q0 79 56.5 133.5t135.5 54.5t136 -54.5t57 -133.5t-57 -134t-136 -55t-135.5 55t-56.5 134zM74 162q0 79 56 133.5t136 54.5t136.5 -54.5t56.5 -133.5
t-56.5 -134t-136.5 -55t-136 55t-56 134z" />
    <glyph glyph-name="perthousand" unicode="&#x2030;" horiz-adv-x="2611" 
d="M2040 -4q63 0 122.5 106t114 334t-85.5 228q-57 0 -106 -60t-91.5 -190t-49.5 -274t96 -144zM2193 688q151 0 240.5 -73t85.5 -201t-72 -229.5t-178.5 -157.5t-248.5 -56t-224.5 73t-83.5 200q5 181 145.5 312.5t335.5 131.5zM1171 -4q63 0 123 106t114.5 334t-85.5 228
q-57 0 -106 -60t-92 -189t-50 -274t96 -145zM1325 688q151 0 240.5 -73t85.5 -201t-72 -229.5t-179.5 -157.5t-249.5 -56t-223.5 73t-82.5 200q5 181 145.5 312.5t335.5 131.5zM582 1247q-57 0 -106.5 -60.5t-93 -191t-48.5 -260.5q-11 -155 101 -155q58 0 118 106
t114.5 333.5t-85.5 227.5zM195 -170l1298 1583l35 -27l-1297 -1583zM595 1272q139 0 228 -73t85 -201t-72.5 -229.5t-178 -157.5t-247.5 -56t-223 72.5t-83 195.5t67 225t175 163t249 61z" />
    <glyph glyph-name="guilsinglleft" unicode="&#x2039;" horiz-adv-x="739" 
d="M74 394q-4 14 7 60t25 64q14 17 50 39q303 174 589 334l11 -12l-371 -420l145 -422l-14 -10q-94 73 -240 193t-172 139q-26 21 -30 35z" />
    <glyph glyph-name="guilsinglright" unicode="&#x203a;" horiz-adv-x="739" 
d="M-18 37l372 422l-149 420l18 12q285 -227 410 -334q25 -21 30 -37t-7 -62t-26 -62.5t-57 -39.5q-487 -276 -581 -329z" />
    <glyph glyph-name="fraction" unicode="&#x2044;" horiz-adv-x="671" 
d="M-502 -391l1546 1931l41 -31l-1548 -1931z" />
    <glyph glyph-name="Euro" unicode="&#x20ac;" horiz-adv-x="1280" 
d="M1030 1270q145 0 234.5 -65t89.5 -159t-56 -165.5t-143 -71.5q-53 0 -82 27.5t-29 65.5q0 67 66.5 125.5t85.5 109.5q3 43 -42 76.5t-124 33.5q-244 0 -418 -532h400l-11 -35h-401q-33 -111 -41 -160h359l-9 -35h-356q-34 -174 -3 -265.5t76.5 -125t112.5 -33.5
q216 0 396 244l18 -12q-103 -151 -233.5 -236.5t-309.5 -85.5q-241 0 -364 134t-90 380h-152l8 35h150q14 83 45 160h-152l11 35h155q97 240 318 397.5t491 157.5z" />
    <glyph glyph-name="copyrightsound" unicode="&#x2117;" horiz-adv-x="1945" 
d="M924 469h30q95 0 139 67.5t44 173.5t-37.5 177t-118.5 71h-57v-489zM504 979h559q163 0 252.5 -61.5t89.5 -169.5q0 -145 -108 -222t-296 -77h-77v-302q0 -48 43 -61q14 -5 65.5 -12t83.5 -8v-15h-606v15q70 4 120 20t50 61v730q0 50 -47 63q-88 22 -129 25v14zM133 512
q0 -220 106.5 -405.5t291.5 -293.5t403 -108t401.5 108t289.5 293.5t106 405.5t-106 404.5t-289.5 292.5t-401.5 108t-403 -108t-291.5 -292.5t-106.5 -404.5zM39 513q0 179 70.5 342t190 281.5t286 188.5t348.5 70t347 -70t284 -188.5t189.5 -281.5t70.5 -342t-70.5 -342.5
t-189.5 -282t-284 -189t-347 -70.5t-348 70.5t-286 189t-190.5 282t-70.5 342.5z" />
    <glyph glyph-name="trademark" unicode="&#x2122;" horiz-adv-x="1632" 
d="M946 1300q0 84 -94 84v15h276l138 -363l118 295q14 40 17 68h280v-15q-21 0 -63 -12q-21 -9 -21 -35v-409q0 -26 21 -35q10 -6 65 -14v-13h-358v13q14 0 43 4.5t33 7.5q20 11 20 37v391h-12l-180 -447h-78l-164 437h-12v-314q0 -77 24 -98q11 -8 31 -11t33.5 -5t15.5 -2
v-13h-233v13q65 11 76 18q24 18 24 100v303zM350 879q92 0 92 43v458h-30q-32 0 -52 -2t-56 -61.5t-44 -89.5h-10v172h559v-172h-10q-11 33 -45 91t-54 60t-51 2h-28v-454q0 -26 22 -35l66 -12v-13h-359v13z" />
    <glyph glyph-name="Omega" unicode="&#x2126;" horiz-adv-x="1697" 
d="M96 285h363q-146 60 -228 148.5t-129.5 260.5t87 342.5t324.5 283t497 112.5t438.5 -112t167.5 -223t14 -225t-94 -230t-225 -208t-320 -149h350q72 0 137.5 57.5t129.5 144.5l20 -6l-239 -481h-574l-8 145q55 49 87 80.5t128.5 155.5t153.5 465q68 404 -12 482.5
t-158 78.5q-155 0 -266 -164.5t-183 -396.5q-129 -419 -83 -538.5t71 -162.5l-62 -145h-575l26 481l19 6q24 -122 55.5 -162t87.5 -40z" />
    <glyph glyph-name="partialdiff" unicode="&#x2202;" horiz-adv-x="1173" 
d="M455 -8q90 0 188 235q57 137 95 311.5t40 300.5t-56 126t-121.5 -94.5t-115.5 -245.5q-95 -283 -98 -516q-2 -117 68 -117zM33 388q0 108 59.5 222t159.5 198q212 177 477 177q91 0 139 -39l11 2q9 119 -5 211t-74 153.5t-192 61.5t-207 -102h-20q95 172 328 172
t337 -120t124 -216q39 -186 12 -434q-46 -344 -250 -520q-98 -86 -224 -134.5t-232 -48.5t-180 28t-132.5 78t-94.5 126.5t-36 184.5z" />
    <glyph glyph-name="Delta" unicode="&#x2206;" horiz-adv-x="1398" 
d="M176 25h397q122 0 150 47q14 26 2 147l-90 856l-531 -815q-98 -147 -79 -187t65.5 -44t85.5 -4zM-268 0l6 14q5 1 22 2t25.5 2.5t64 11t162.5 171.5l811 1220h156q17 -129 84 -688.5t72 -597.5t23.5 -76.5t133.5 -44.5l-6 -14h-1554z" />
    <glyph glyph-name="product" unicode="&#x220f;" horiz-adv-x="1769" 
d="M1106 1245h-131q-180 0 -213 -117l-311 -1126q-24 -77 32 -98q31 -11 129 -19l-4 -14h-819l4 14q133 9 166 19q66 21 86 94l315 1137q21 80 -34 100q-29 10 -156 20l4 15h1733l-4 -15q-133 -11 -164 -18q-69 -15 -92 -100l-314 -1133q-22 -81 35 -100q25 -9 156 -19
l-4 -14h-820l5 14q79 5 141 21t82 92l313 1128q17 62 -23.5 90.5t-111.5 28.5z" />
    <glyph glyph-name="summation" unicode="&#x2211;" horiz-adv-x="1409" 
d="M938 1239h-289l264 -586l-667 -751h272q162 0 231 13t107 48q209 188 361 365h22l-162 -457h-1339l6 14q27 3 52.5 24.5t76.5 82.5l608 690l-225 496q-23 46 -40 59.5t-38 17.5l4 15h1268l-84 -412h-18q-43 114 -106.5 225t-100.5 129q-55 27 -203 27z" />
    <glyph glyph-name="minus" unicode="&#x2212;" 
d="M102 473v119h963v-119h-963z" />
    <glyph glyph-name="radical" unicode="&#x221a;" horiz-adv-x="1282" 
d="M78 639l489 213l205 -729h4l733 1249l25 -4l-832 -1421l-245 -47l-228 780l-147 -64z" />
    <glyph glyph-name="infinity" unicode="&#x221e;" horiz-adv-x="1236" 
d="M896 395q56 0 94 42.5t38 100.5t-38.5 96t-90.5 38t-90.5 -26.5t-132.5 -110.5q75 -80 119.5 -110t100.5 -30zM188 532q0 -60 39 -98.5t87 -38.5t87 21t65.5 44.5t72.5 69.5q-61 70 -111 106t-110 36t-95 -40t-35 -100zM70 532q0 103 73.5 173.5t168.5 70.5t161 -42
t137 -120q82 84 143.5 123t157.5 39t164 -66t68 -174t-76 -176.5t-176 -68.5q-124 0 -285 158q-150 -158 -287 -158q-103 0 -176 69t-73 172z" />
    <glyph glyph-name="integral" unicode="&#x222b;" horiz-adv-x="1175" 
d="M-360 -171q0 55 44.5 97.5t110.5 42.5t109 -39t43 -102t-36 -105t-85 -65q18 -35 76 -35q189 0 284 457q40 186 68.5 374t36.5 236q28 167 77 272.5t136 182.5q149 133 407 133q165 0 232 -79t67 -145t-38 -108.5t-107 -42.5t-115.5 36t-46.5 92q0 100 113 190
q-9 13 -38.5 24.5t-66.5 11.5q-91 0 -139 -104t-76 -268t-65.5 -393.5t-65.5 -354.5q-57 -247 -247 -389t-422 -143q-128 0 -192 61.5t-64 162.5z" />
    <glyph glyph-name="approxequal" unicode="&#x2248;" 
d="M389 778q98 0 251 -34.5t218 -34.5t102 23.5t68 76.5h14q-78 -207 -249 -207q-105 0 -252 32t-217 32q-130 0 -183 -88h-16q20 79 93 139.5t171 60.5zM389 492q98 0 251 -35t218 -35t102 23.5t68 76.5h14q-78 -207 -249 -207q-105 0 -252 32t-217 32q-130 0 -183 -88h-16
q20 79 93 140t171 61z" />
    <glyph glyph-name="notequal" unicode="&#x2260;" 
d="M131 309v119h275l208 209h-483v119h602l209 209l76 -76l-133 -133h151v-119h-270l-207 -209h477v-119h-596l-219 -221l-78 78l144 143h-156z" />
    <glyph glyph-name="lessequal" unicode="&#x2264;" 
d="M131 604v103l905 399v-127l-747 -324l747 -323v-127zM102 0v113h963v-113h-963z" />
    <glyph glyph-name="greaterequal" unicode="&#x2265;" 
d="M131 205v127l748 323l-748 324v127l905 -399v-103zM102 0v113h963v-113h-963z" />
    <glyph glyph-name="lozenge" unicode="&#x25ca;" horiz-adv-x="1021" 
d="M276 625l117 -439l342 439l-123 438zM51 625l494 624h229l187 -624l-502 -625h-228z" />
    <glyph glyph-name="uniE000" unicode="&#xe000;" horiz-adv-x="983" 
d="M0 0v983h983v-983h-983z" />
    <glyph glyph-name="apple" unicode="&#xf8ff;" horiz-adv-x="1263" 
d="M465 568q0 -60 39.5 -101t97.5 -41t97.5 41t39.5 101t-39.5 100.5t-97.5 40.5t-97.5 -40.5t-39.5 -100.5zM59 793q0 64 45.5 110.5t110.5 46.5q91 0 137 -86q8 -15 25.5 -72t52.5 -94l31 2q59 62 141 62l23 14q0 58 -35 127t-35 121t45.5 93.5t111.5 41.5t108 -45.5
t42 -95.5t-15 -82t-75.5 -73t-89.5 -97l8 -25q78 -41 98 -118l25 -13q62 22 114.5 83t121.5 61q68 0 111.5 -46t43.5 -111t-44 -109t-96 -44t-88 21.5t-76 48t-87 33.5l-18 -17q-11 -70 -80 -122l-2 -21q34 -44 108 -80q113 -54 113 -155q0 -62 -47 -109t-111 -47
t-109.5 44.5t-45.5 109.5q0 29 18 88t18 104v23l-14 10q-15 -2 -59 -2t-97 37l-26 -2q-31 -46 -43 -123q-27 -172 -160 -172q-63 0 -110.5 45.5t-47.5 111.5t49 110t121 44h49q49 0 103 27l6 28q-20 45 -20 80t6 59l-11 27q-18 6 -55 6l-131 -14q-67 0 -112.5 46t-45.5 110z
" />
    <glyph glyph-name="R.salt" horiz-adv-x="1619" 
d="M680 705q355 1 413 335t-190 334h-74l-182 -669h33zM1032 1399q246 0 383 -83t116 -244t-169.5 -243t-380.5 -116l-4 -15q257 -9 311 -225q23 -89 49 -295q9 -68 35.5 -111.5t175.5 -52.5l-4 -14h-622q-6 316 -45 518q-29 160 -170 160h-68l-150 -539q-19 -73 33 -100
q29 -14 104 -19.5t79 -5.5l-5 -14h-876l4 14q133 9 166 19q66 21 86 94l315 1137q21 80 -35 100q-29 10 -155 20l4 15h823z" />
    <glyph glyph-name="e.ordn" horiz-adv-x="825" 
d="M612 1249q-38 0 -82.5 -99.5t-72.5 -229.5q87 14 128 78t53 158t-26 93zM158 819q0 80 36 161t96.5 145.5t149.5 105.5t181 41t145 -34.5t53 -88.5q0 -193 -364 -248q-21 -103 -21 -188q0 -115 68 -115q144 0 250 197l18 -11q-62 -119 -142.5 -171t-196.5 -52t-194.5 66
t-78.5 192z" />
    <glyph glyph-name="J.salt" horiz-adv-x="1157" 
d="M70 387q78 0 122 -47t41 -121q-10 -137 -165 -213q28 -14 57 -14q114 0 183.5 86t119.5 266l254 920q21 80 -35 100q-29 10 -155 20l4 15h841l-4 -15q-10 -1 -69.5 -6t-87.5 -12q-69 -18 -91 -100l-233 -840q-63 -223 -240.5 -343t-437.5 -120q-178 0 -236.5 65.5
t-58.5 152.5t56.5 146.5t134.5 59.5z" />
    <glyph glyph-name="Q.salt" horiz-adv-x="1622" 
d="M735 473q91 0 155 -54t89 -149q51 110 102 275q102 344 99 579q-3 283 -199 283q-165 0 -293 -211q-103 -168 -173 -430t-73 -465q135 172 293 172zM643 -8q28 0 68 8q10 129 -6 208.5t-41.5 109.5t-65.5 30q-93 0 -156 -80q7 -276 201 -276zM1032 -418q-160 0 -236 91.5
t-85 297.5q-58 -4 -86 -4q-264 0 -426 138.5t-160 439.5q1 214 105 393.5t286 312.5q248 181 544 181q592 0 609 -558q0 -219 -104.5 -409t-282.5 -322q-80 -57 -170 -98q46 -235 197 -235q94 0 153 45.5t99 130.5l20 -11q-122 -282 -257.5 -337.5t-205.5 -55.5z" />
    <glyph glyph-name="Y.salt" horiz-adv-x="1482" 
d="M117 0l4 14q147 10 176 19q66 21 86 94l90 326q19 67 18 106t-13 87q-117 446 -156 564q-32 110 -84 148q-30 22 -107 26l4 15h842l-4 -15q-230 -12 -240 -51q-10 -32 67 -324t105 -384q184 210 367 433q182 223 191 253t-46 47.5t-192 25.5l4 15h520l-4 -15
q-76 -10 -113 -28q-68 -34 -180 -154q-213 -239 -430 -493q-77 -90 -103 -141.5t-55 -155.5l-76 -281q-21 -78 33 -98q21 -7 158 -19l-4 -14h-858z" />
    <glyph glyph-name="ampersand.salt" horiz-adv-x="1624" 
d="M1022 1403q-92 0 -148.5 -78.5t-56.5 -173.5q-6 -125 55 -274q199 112 239.5 220t36.5 169t-38 99t-88 38zM352 328q0 -114 60 -174t139 -60t149 25.5t115 60.5q-86 137 -169.5 289.5t-117.5 235.5q-176 -149 -176 -377zM831 156q-201 -189 -448 -189q-183 0 -293.5 64
t-112.5 209q-6 226 177.5 329t365.5 158q-61 137 -61 253t50 203.5t174 165.5t335 78q108 0 176 -53t69 -138t-38.5 -131t-54 -62.5t-46.5 -40t-68.5 -51.5t-174.5 -97q39 -99 79 -174.5t76.5 -143.5t53.5 -100q4 8 52 114t97 180q92 134 201 134q82 0 123 -45.5t41 -95.5
t-26 -84.5t-66 -34.5t-63.5 17.5t-38.5 55.5t-67 38q-75 0 -130 -103t-77 -145t-30 -59q160 -266 160 -452q0 -98 -48 -187t-172 -175t-354 -96l-8 78q180 -30 253 11.5t73 166.5t-179 402z" />
    </font>
</defs>
</svg>
