<?xml version="1.0" standalone="no"?>
<!DOCTYPE svg PUBLIC "-//W3C//DTD SVG 1.1//EN" "http://www.w3.org/Graphics/SVG/1.1/DTD/svg11.dtd" >
<svg xmlns="http://www.w3.org/2000/svg">
<metadata>
Created by FontPrep 20130207 at Wed Aug  6 22:37:51 2014
 By caleb
Webtype Web Use Only
</metadata>
<defs>
<font id="3eba65d074713555164cdb0e4cef1807" horiz-adv-x='1024' >
  <font-face 
    font-family="WebtypeWebUseOnly"
    font-weight="700"
    font-style="italic"
    font-stretch="normal"
    units-per-em="2048"
    panose-1="2 0 5 3 9 0 0 2 0 3"
    ascent="1565"
    descent="-483"
    x-height="944"
    cap-height="1399"
    bbox="-502 -496 2462.1 1923"
    underline-thickness="40"
    underline-position="-231"
    slope="-12"
    unicode-range="U+0020-FB04"
  />
<missing-glyph horiz-adv-x="413" 
 />
    <glyph glyph-name="f_f" unicode="ff" horiz-adv-x="1267" 
d="M860 1272q0 42 21.5 106.5t21.5 65.5q-11 35 -86 35t-122.5 -93.5t-108.5 -330.5l-33 -123h326l16 61q20 80 57 158q-40 10 -66 44.5t-26 76.5zM368 -444q22 0 42 4.5t38 17.5t31.5 27.5t65 112.5t321.5 1177h-321q-155 -608 -206 -776q-52 -169 -89 -242q76 13 123 -22
t47 -93t-49 -113t-54 -61q2 -12 15.5 -22t35.5 -10zM-301 -432q5 -33 49 -33q51 0 75 20t37.5 34t72 134t186.5 633t135 539h-172l12 37h172l10 41q60 242 244 411q127 117 323 117q89 0 161.5 -34.5t103.5 -92.5q52 69 148.5 108.5t212.5 39.5t197 -60.5t81 -150.5
q0 -45 -40.5 -94.5t-106.5 -49.5t-113 30t-47 84t47.5 114.5t48.5 70.5q-12 35 -90 35t-131.5 -104t-116.5 -342l-33 -123h219l-12 -37h-215q-13 -50 -88.5 -346t-132.5 -479q-88 -283 -248 -414q-140 -119 -332 -119q-102 0 -157.5 42.5t-63.5 119.5q-73 -86 -177 -134
t-217 -48t-173 52t-60 140q0 54 41 102t103 48t111 -34.5t49 -103.5q0 -46 -53 -94.5t-60 -58.5z" />
    <glyph glyph-name="f_i" unicode="fi" horiz-adv-x="1169" 
d="M851 1501q-64 0 -120.5 -55t-144.5 -391l-33 -123h252q86 26 152 26t102.5 -40t30.5 -104t-70 -230l-125 -322q-74 -188 -74 -213t9 -31t32 -6q64 0 128 75.5t116 207.5l24 -8q-62 -152 -131 -231t-169 -79t-176 47t-76 124t34 159q100 251 140 353t49 182q6 53 -31 53
h-225q-155 -608 -235 -869q-81 -261 -240 -391q-139 -118 -332 -118q-110 0 -170 52t-60 140q0 54 41 102t103 48t111 -34.5t49 -103.5q0 -46 -53 -94.5t-60 -58.5q5 -33 42 -33t61.5 9t58.5 47.5t95.5 208.5t297.5 1095h-172l12 37h172l17 61q68 252 243 412
q66 61 150.5 89t161.5 28q145 0 243.5 -64.5t98.5 -150.5t-54.5 -126t-105.5 -40q-168 0 -168 137q0 50 41.5 114.5t42.5 73.5q-21 35 -85 35z" />
    <glyph glyph-name="f_l" unicode="fl" horiz-adv-x="1198" 
d="M905 14q133 0 242 281l27 -8q-62 -152 -131.5 -231t-189.5 -79t-178.5 61t-58.5 110t16.5 97t20.5 62l269 848q-80 28 -80 123q0 39 35.5 105t35.5 83q-11 35 -86 35t-126 -102t-115 -344l-33 -123h178l-14 -37h-172q-155 -608 -235 -869q-81 -261 -240 -391
q-139 -118 -332 -118q-110 0 -170 52t-60 140q0 54 41 102t103 48t111 -34.5t49 -103.5q0 -46 -53 -94.5t-60 -58.5q3 -33 41 -33t62 9t57 45.5t67.5 128.5t78.5 241q116 392 249 936h-172l12 37h172l17 61q68 252 243 412q127 117 335 117q100 0 177 -52l295 50l-403 -1262
q-64 -199 -64 -217q0 -27 39 -27z" />
    <glyph glyph-name="f_f_i" unicode="ffi" horiz-adv-x="1781" 
d="M860 1272q0 42 21.5 106.5t21.5 65.5q-11 35 -86 35t-122.5 -93.5t-108.5 -330.5l-33 -123h326l16 61q20 80 57 158q-40 10 -66 44.5t-26 76.5zM368 -444q22 0 42 4.5t38 17.5t31.5 27.5t67 116.5t183 624.5t136.5 548.5h-321q-155 -608 -206 -776q-52 -169 -89 -242
q76 13 123 -22t47 -93t-49 -113t-54 -61q2 -12 15.5 -22t35.5 -10zM-301 -432q5 -33 40 -33t57.5 8.5t41 21.5t47 61t61 144.5t67.5 216.5q107 360 241 908h-172l12 37h172l10 41q60 242 244 411q127 117 323 117q89 0 161.5 -34.5t103.5 -92.5q52 69 148.5 108.5
t217.5 39.5t219.5 -64.5t98.5 -150.5t-54.5 -126t-105.5 -40q-168 0 -168 137q0 50 40.5 113.5t41.5 72.5q-6 16 -39.5 25.5t-70.5 9.5q-70 0 -122.5 -102.5t-115.5 -341.5l-33 -123h252q87 26 153 26t102 -40t30 -104t-70 -230l-125 -322q-73 -186 -73 -212t9 -32t32 -6
q64 0 127.5 75.5t115.5 207.5l25 -8q-62 -152 -131.5 -231t-169.5 -79t-176 47t-76 123t35 160q87 215 133 335q97 252 24 253h-225q-13 -50 -88.5 -346t-132.5 -479q-88 -283 -248 -414q-140 -119 -332 -119q-102 0 -157.5 42.5t-63.5 119.5q-73 -86 -177 -134t-217 -48
t-173 52t-60 140q0 54 41 102t103 48t111 -34.5t49 -103.5q0 -46 -53 -94.5t-60 -58.5z" />
    <glyph glyph-name="f_f_l" unicode="ffl" horiz-adv-x="1810" 
d="M860 1272q0 42 21.5 106.5t21.5 65.5q-11 35 -86 35t-122.5 -93.5t-108.5 -330.5l-33 -123h326l16 61q20 80 57 158q-40 10 -66 44.5t-26 76.5zM368 -444q22 0 42 4.5t38 17.5t31.5 27.5t67 116.5t183 624.5t136.5 548.5h-321q-155 -608 -206 -776q-52 -169 -89 -242
q76 13 123 -22t47 -93t-49 -113t-54 -61q2 -12 15.5 -22t35.5 -10zM-301 -432q5 -33 40 -33t57.5 8.5t41 21.5t47 61t61 144.5t67.5 216.5q107 360 241 908h-172l12 37h172l10 41q60 242 244 411q127 117 323 117q89 0 161.5 -34.5t103.5 -92.5q52 69 149 108.5t207 39.5
t187 -52l295 50l-404 -1262q-63 -196 -63 -220t39 -24q131 0 241 281l27 -8q-95 -234 -172 -272t-134 -38t-113 18.5t-97 61.5t-41 91t37 159l268 848q-80 28 -80 123q0 39 36 105t36 83q-11 35 -86 35t-126.5 -102t-115.5 -344l-33 -123h178l-14 -37h-172
q-13 -50 -88.5 -346t-132.5 -479q-88 -283 -248 -414q-140 -119 -332 -119q-102 0 -157.5 42.5t-63.5 119.5q-73 -86 -177 -134t-217 -48t-173 52t-60 140q0 54 41 102t103 48t111 -34.5t49 -103.5q0 -46 -53 -94.5t-60 -58.5z" />
    <glyph glyph-name="f_j" unicode="fj" horiz-adv-x="1128" 
d="M340 -442q17 0 33.5 3.5t31 13t26.5 18.5t24.5 28.5t22 34t21 44.5t25.5 65.5t24 70.5l29 99q19 64 63 213t110 392q66 244 70 278t5.5 55.5t-32.5 21.5h-258q-155 -608 -208 -781q-53 -174 -85 -237q81 9 123.5 -25t42.5 -92t-55.5 -104t-63.5 -57q0 -21 17 -31t34 -10z
M827 1522q135 0 216 -60.5t81 -150.5q0 -45 -40 -94.5t-106 -49.5t-113.5 30t-47.5 84t47.5 114.5t48.5 70.5q-11 35 -89 35t-132 -104t-117 -342l-32 -123h284q87 26 153 26t102 -40.5t30 -102.5t-72 -300q-68 -238 -135 -449q-88 -276 -250 -410q-140 -119 -338 -119
q-82 0 -131 45.5t-55 124.5q-159 -183 -403 -190q-110 0 -170 52t-60 140q0 54 41 102t103 48t110.5 -34.5t48.5 -103.5q0 -46 -52.5 -94.5t-59.5 -58.5q5 -33 41 -33q37 0 61.5 9.5t57 45.5t96.5 207t179 625.5t120 472.5h-172l12 37h172l16 61q68 250 244 412
q66 61 150 89t161 28z" />
    <glyph glyph-name="f_t" unicode="ft" horiz-adv-x="1255" 
d="M827 1292q0 43 48 103.5t49 70.5q-11 35 -90 35t-132 -103.5t-116 -342.5l-33 -123h295l72 244q-93 26 -93 116zM-301 -432q5 -33 42 -33q36 0 60 9.5t57 46t95.5 200.5t179 625t121.5 479h-172l12 37h172l17 61q68 252 243 412q66 61 150.5 89t161.5 28q135 0 216 -60.5
t81 -150.5q0 -26 -19 -62h115l-96 -317h208l-14 -37h-205l-206 -711q-29 -104 -29 -133q0 -35 37 -35q64 0 129.5 73.5t118.5 209.5l24 -8q-64 -159 -131 -236.5t-189 -77.5t-186.5 61t-64.5 104q-1 44 13 94q24 88 108.5 367.5t87.5 291.5h-291q-155 -608 -235 -869
q-81 -261 -240 -391q-139 -118 -332 -118q-110 0 -170 52t-60 140q0 54 41 102t103 48t111 -34.5t49 -103.5q0 -46 -53 -94.5t-60 -58.5z" />
    <glyph glyph-name=".notdef" horiz-adv-x="413" 
 />
    <glyph glyph-name=".null" horiz-adv-x="0" 
 />
    <glyph glyph-name="nonmarkingreturn" horiz-adv-x="682" 
 />
    <glyph glyph-name="NUL" horiz-adv-x="0" 
 />
    <glyph glyph-name="NUL" horiz-adv-x="0" 
 />
    <glyph glyph-name="space" unicode=" " horiz-adv-x="413" 
 />
    <glyph glyph-name="exclam" unicode="!" horiz-adv-x="747" 
d="M606 1427q73 0 112.5 -43.5t39.5 -108.5q0 -112 -162.5 -375t-235.5 -468l-22 4q42 220 46 483.5t22 332.5t72.5 122t127.5 53zM109 146q0 70 47.5 117.5t117.5 47.5t118 -47.5t48 -117.5t-47.5 -116t-118.5 -46t-118 46t-47 116z" />
    <glyph glyph-name="quotedbl" unicode="&#x22;" horiz-adv-x="731" 
d="M586 1323q0 186 141 186q66 0 104.5 -38t38.5 -89t-39.5 -117.5t-101.5 -156t-90 -141.5h-21q-2 90 -17 200t-15 156zM215 1323q0 186 141 186q66 0 105 -38t39 -89t-39.5 -117.5t-102 -156t-90.5 -141.5h-20q-2 90 -17.5 200t-15.5 156z" />
    <glyph glyph-name="numbersign" unicode="#" horiz-adv-x="1056" 
d="M362 496l265 61l69 252l-264 -61zM29 219l55 211l240 55l67 252l-239 -55l57 209l240 57l90 336h36l-88 -326l265 64l71 262h37l-67 -252l241 58l-55 -211l-242 -58l-69 -252l241 58l-55 -211l-242 -58l-98 -372h-37l94 360l-264 -59l-80 -301h-34l75 288z" />
    <glyph glyph-name="dollar" unicode="$" horiz-adv-x="1179" 
d="M584 25q109 19 175.5 98.5t76.5 181.5q15 146 -131 182zM582 795l168 -31l122 473q-92 11 -176 -2zM428 967q0 -130 127 -164l111 426q-105 -25 -171.5 -97.5t-66.5 -164.5zM678 494q-46 11 -170 28l-131 -506q99 -8 178 4zM29 244q0 90 53 160.5t133 70.5
q45 0 69.5 -23.5t24.5 -61.5q0 -69 -66.5 -114t-92.5 -77q-11 -60 41.5 -110.5t158.5 -68.5q22 88 57.5 224.5t54.5 210.5l19 73q-134 26 -208 99t-74 194q0 177 133 292t342 144l53 203h29l-54 -198q105 9 177 -2l53 200h29l-54 -203q133 -19 196.5 -80.5t63.5 -140.5
t-50.5 -140.5t-102.5 -61.5q-105 0 -105 79q0 66 60.5 116.5t79.5 84.5q-2 34 -39 69.5t-109 49.5l-125 -473q135 -29 211 -102t76 -191q0 -188 -133.5 -310t-351.5 -159l-76 -289h-29l76 285q-58 -5 -176 2l-76 -287h-29l76 289q-154 19 -234.5 87.5t-80.5 158.5z" />
    <glyph glyph-name="percent" unicode="%" horiz-adv-x="1716" 
d="M1163 -6q67 0 128.5 92t94 211t29.5 197q-6 153 -104 153q-58 0 -107 -54.5t-94 -175t-49 -255.5q-4 -168 102 -168zM1322 668q128 0 214.5 -72t83.5 -195t-70 -222t-172 -153.5t-231 -54.5t-207.5 72.5t-79.5 190.5t63.5 216.5t166 158t232.5 59.5zM426 596q66 0 127 92
t93 211.5t30 197.5q-5 152 -103 152q-47 0 -103.5 -50t-101 -191t-46.5 -244q-7 -168 104 -168zM186 -174l1309 1585l31 -25l-1309 -1583zM571 1270q139 0 226 -72t84 -196t-70.5 -222.5t-172 -152.5t-229.5 -54t-206.5 72.5t-81.5 194.5q5 173 137.5 301.5t312.5 128.5z
" />
    <glyph glyph-name="ampersand" unicode="&#x26;" horiz-adv-x="1699" 
d="M1647 1208q0 64 -41.5 108t-122.5 44q-40 0 -66 -16t-26 -33q133 -28 133 -109q0 -53 -33.5 -84t-87.5 -31t-96.5 35.5t-42.5 105.5t57.5 114t160.5 44t160.5 -59.5t57.5 -144.5q0 -167 -91 -243t-266 -87q92 -27 151.5 -99.5t59.5 -162.5t-29 -174t-93.5 -165.5
t-155 -144.5t-226 -102t-297.5 -39t-297.5 59.5t-214.5 166.5t-79 231t64.5 191.5t158.5 119.5q-44 30 -72 57t-51.5 78.5t-23.5 116.5q0 103 86.5 190t217.5 87t218.5 -71.5t116.5 -186.5l-15 -7q-27 40 -90.5 67.5t-145.5 27.5q-143 0 -194 -64.5t-51 -143.5
q0 -80 35 -136q160 73 226 73t111.5 -32.5t45.5 -78.5t-29.5 -76t-75.5 -30t-100.5 11.5t-183.5 97.5q-31 -29 -31 -131t73.5 -188.5t202 -134.5t291.5 -52q264 -7 409.5 105.5t145.5 289.5q0 115 -89.5 183.5t-207.5 68.5t-183 -53t-65 -133t50 -129.5t126 -49.5t128 31
q-193 12 -193 125q0 93 52 109t71 16q61 0 105 -36.5t44 -106.5t-50 -118t-151 -48t-177 62.5t-76 158.5q0 188 105.5 273t244.5 85l217 -10q89 0 142 57t53 121z" />
    <glyph glyph-name="quotesingle" unicode="'" horiz-adv-x="360" 
d="M215 1323q0 186 141 186q66 0 105 -38t39 -89t-39.5 -117.5t-102 -156t-90.5 -141.5h-20q-2 90 -17.5 200t-15.5 156z" />
    <glyph glyph-name="parenleft" unicode="(" horiz-adv-x="706" 
d="M132 106q-94 252 -42 508t232 488q180 233 475 430l28 -39q-257 -179 -417 -409t-212 -478t16 -488q69 -240 257 -411l-39 -35q-204 182 -298 434z" />
    <glyph glyph-name="parenright" unicode=")" horiz-adv-x="706" 
d="M-96 -289q258 177 416 407t212 480t-16 490q-69 240 -256 409l39 35q205 -182 299 -434t41 -506q-52 -256 -232 -490t-475 -430z" />
    <glyph glyph-name="asterisk" unicode="*" horiz-adv-x="782" 
d="M279 991q-27 9 -39 45t7.5 59t49.5 25t111 1t116 7q-38 27 -108.5 65.5t-98.5 54.5t-33.5 45t22.5 55t58 21.5t46 -32.5q8 -12 50.5 -90t71.5 -110q3 39 -4 127t-2 114q18 65 84 49q67 -14 52 -79q-7 -24 -55 -99.5t-64 -113.5q37 17 104.5 63t95.5 60t52.5 3.5
t33.5 -44.5q19 -74 -65 -84q-18 -2 -95.5 -2.5t-119.5 -8.5q31 -23 97 -57.5t96 -52.5t35 -49t-25 -58q-54 -46 -101 17q-9 13 -47 88t-65 106q-3 -33 5 -124t2 -118t-29 -41.5t-55 -7.5q-64 14 -50 82q6 25 55 100.5t61 112.5q-37 -15 -104.5 -63.5t-92.5 -61.5t-52 -4z
" />
    <glyph glyph-name="plus" unicode="+" horiz-adv-x="1159" 
d="M90 481v101h440v444h105v-444h442v-101h-442v-442h-105v442h-440z" />
    <glyph glyph-name="comma" unicode="," horiz-adv-x="550" 
d="M213 4q-168 0 -168 144q0 72 52 121.5t131 49.5t124 -56.5t45 -132.5t-32.5 -160.5t-126.5 -166.5t-203 -135l-8 23q96 53 171.5 141t84.5 172h-70z" />
    <glyph glyph-name="hyphen" unicode="-" horiz-adv-x="811" 
d="M66 420l57 201h670l-58 -201h-669z" />
    <glyph glyph-name="period" unicode="." horiz-adv-x="550" 
d="M45 146q0 72 51 122.5t123 50.5t122 -50.5t50 -122.5t-50 -121.5t-122 -49.5t-123 49.5t-51 121.5z" />
    <glyph glyph-name="slash" unicode="/" horiz-adv-x="831" 
d="M-240 -410l1164 1950l49 -29l-1163 -1949z" />
    <glyph glyph-name="zero" unicode="0" horiz-adv-x="1239" 
d="M399 167q0 -171 113 -171q48 0 125 101t167.5 405t90.5 534q0 153 -35.5 181t-66.5 28q-64 0 -135.5 -106t-128 -262.5t-93.5 -347.5t-37 -362zM59 438q0 160 61 314t159 267t227 182t260 69q208 0 340.5 -123.5t132.5 -367.5t-148.5 -462.5t-302 -282t-258.5 -63.5
q-218 0 -344.5 131t-126.5 336z" />
    <glyph glyph-name="one" unicode="1" horiz-adv-x="884" 
d="M403 1102q-123 0 -217 112l9 9q75 -45 201 -45t254 29t184 61h20q-48 -91 -106 -303l-230 -826q-21 -72 33 -98q41 -21 147 -27l-4 -14h-741l4 14q154 8 194.5 45t49.5 70l270 979q-24 -6 -68 -6z" />
    <glyph glyph-name="two" unicode="2" horiz-adv-x="1155" 
d="M877 1065q0 85 -38.5 131.5t-110.5 46.5t-135.5 -37.5t-129.5 -127.5t-72 -212q-9 -145 85 -145q44 0 82 23t93 73l13 -14q-137 -150 -291 -150q-123 0 -186.5 50.5t-63.5 136.5t45.5 160t125.5 134t202 98t290 38t281 -75.5t113 -205.5q0 -165 -87.5 -263t-193.5 -163
t-223.5 -118.5t-339.5 -145.5l-88 -51h586q75 0 139 48t129 144l18 -8l-209 -432h-952l31 133q442 255 565 359q322 275 322 573z" />
    <glyph glyph-name="three" unicode="3" horiz-adv-x="1146" 
d="M532 852q62 0 125 55l11 -16q-70 -62 -131 -94.5t-145 -32.5t-133.5 39t-49.5 104q0 100 83 184t218.5 131.5t297.5 47.5t270 -69t108 -198q0 -252 -477 -315l-50 -24h82q147 0 237.5 -56t90.5 -185t-91 -242t-245 -173.5t-318 -60.5t-297.5 58.5t-133.5 218.5
q0 88 62.5 162.5t158.5 74.5q55 0 86 -27.5t31 -71.5t-22 -74t-54 -43t-86 -32.5t-54 -77.5t50.5 -105.5t163.5 -47.5q114 0 215 78t163.5 198t65.5 238q2 67 -22.5 105t-71.5 38q-90 0 -238 -111l-20 35q280 144 376.5 254.5t96.5 239.5q0 85 -34 135.5t-97 50.5
q-108 0 -191.5 -97t-83.5 -210q0 -84 53 -84z" />
    <glyph glyph-name="four" unicode="4" horiz-adv-x="1167" 
d="M-147 51q0 84 131 84q84 0 125 -2q134 120 256 408.5t251 728.5h338q-111 -340 -343.5 -659t-473.5 -484q7 1 34 6.5t69.5 14t132.5 8.5t200 -11l166 459h295l-170 -463q189 14 248 88l14 -12q-53 -78 -137 -132.5t-170 -74.5l-131 -372h-289l129 376q-41 7 -143.5 52
t-202.5 45q-4 0 -61 -5q-107 -96 -137 -114t-43 -17q-88 0 -88 76z" />
    <glyph glyph-name="five" unicode="5" horiz-adv-x="1136" 
d="M528 733q-265 0 -350 -160l-26 7l305 684h24q20 -29 99.5 -54.5t194.5 -25.5t250.5 27.5t209.5 76.5l12 -10q-134 -189 -317 -269.5t-443 -80.5q-119 0 -147 4l-111 -244q132 76 339 76t331.5 -88.5t124.5 -231.5q0 -113 -55 -204.5t-199.5 -180t-417.5 -88.5
q-118 0 -214.5 40t-139.5 90t-43 114q0 100 65.5 157.5t141.5 57.5q123 0 123 -102q0 -68 -48 -134t-59 -98q0 -36 33.5 -68t127.5 -32q95 0 177 79t130.5 200t54.5 231t-39 168.5t-134 58.5z" />
    <glyph glyph-name="six" unicode="6" horiz-adv-x="1179" 
d="M492 -6q73 0 128 52t109 180t66 343q15 246 -125 246q-103 0 -201 -147.5t-111 -370.5q-8 -142 26.5 -222.5t107.5 -80.5zM1124 522q0 -98 -43.5 -196t-119 -177t-190.5 -128.5t-244 -49.5t-229 48t-161 147.5t-61 228.5t39 256.5t142 302t312 327.5t410 153
q137 0 225.5 -69t92.5 -159t-32.5 -145t-108.5 -55q-143 0 -148 204q-1 102 -26 146.5t-77 44.5q-77 0 -194.5 -132.5t-253.5 -537.5l14 -6q129 143 291 143q161 0 261.5 -96.5t100.5 -249.5z" />
    <glyph glyph-name="seven" unicode="7" horiz-adv-x="1077" 
d="M143 -102q0 224 846 1077h-532q-101 0 -179 -58t-153 -182l-23 6l295 592h19l-8 -114h813l-7 -27q-166 -183 -262 -309.5t-186 -274.5t-135 -274t-89 -285t-99 -227t-139 -68q-162 0 -161 144z" />
    <glyph glyph-name="eight" unicode="8" horiz-adv-x="1185" 
d="M768 1257q-106 0 -175.5 -75.5t-72.5 -184.5q-1 -68 32.5 -109t96.5 -74t176 -81q57 30 101 115t48 184t-48 162t-158 63zM512 -6q97 0 164 51t96 105.5t31 119.5q5 128 -164 230q-58 36 -201 94q-87 -43 -143 -138.5t-59 -207.5t64 -183t212 -71zM35 274q0 235 379 332
q-96 57 -143.5 125.5t-47.5 165.5q0 157 154.5 272t392.5 115q161 0 271 -79t110 -189t-83.5 -182t-215.5 -113q250 -120 250 -324q0 -111 -46.5 -195.5t-170 -159.5t-355.5 -75t-363.5 87.5t-131.5 219.5z" />
    <glyph glyph-name="nine" unicode="9" horiz-adv-x="1179" 
d="M436 631q0 -199 129 -199q87 0 161.5 90t114.5 218t40 213q0 132 -31.5 213t-116.5 81q-84 0 -151 -87t-106.5 -229.5t-39.5 -299.5zM-90 54q0 82 41 130.5t113 48.5t108.5 -45t40.5 -163q0 -140 10.5 -156.5t24 -33.5t64.5 -17q50 0 100 27t117.5 107.5t133.5 232
t130 341.5l-9 6q-129 -122 -192 -140.5t-111 -18.5q-166 0 -268 93.5t-102 252.5q0 109 44.5 209.5t123 176t192.5 120.5t223 45t187.5 -27t141.5 -77.5t100.5 -133t37.5 -184.5q0 -208 -73 -403t-195.5 -338t-291 -229.5t-357.5 -86.5t-261.5 90.5t-72.5 172.5z" />
    <glyph glyph-name="colon" unicode=":" horiz-adv-x="724" 
d="M281 756q0 72 51 123t123 51t123 -51t51 -123t-51 -121t-123 -49t-123 49t-51 121zM80 146q0 72 51 122.5t123 50.5t122 -50.5t50 -122.5t-50 -121.5t-122 -49.5t-123 49.5t-51 121.5z" />
    <glyph glyph-name="semicolon" unicode=";" horiz-adv-x="724" 
d="M281 756q0 72 51 123t123 51t123 -51t51 -123t-51 -121t-123 -49t-123 49t-51 121zM248 4q-168 0 -168 144q0 72 52 121.5t131 49.5t124 -56.5t45 -132.5t-32.5 -160.5t-126.5 -166.5t-203 -135l-9 23q96 53 171.5 141t84.5 172h-69z" />
    <glyph glyph-name="less" unicode="&#x3c;" horiz-adv-x="1159" 
d="M127 492v81l905 426v-104l-774 -363l774 -362v-104z" />
    <glyph glyph-name="equal" unicode="=" horiz-adv-x="1159" 
d="M139 651v101h905v-101h-905zM139 313v101h905v-101h-905z" />
    <glyph glyph-name="greater" unicode="&#x3e;" horiz-adv-x="1159" 
d="M143 66v104l775 362l-775 363v104l906 -426v-81z" />
    <glyph glyph-name="question" unicode="?" horiz-adv-x="942" 
d="M225 566q0 191 279 323q178 83 226 147.5t44 151.5q-3 88 -61.5 151.5t-162.5 63.5t-180.5 -68.5t-76.5 -146.5t43.5 -123t99.5 -45t76 10v12q-61 0 -101 32t-40 84t34 88t94 36t98 -34.5t38 -102.5t-53 -109t-133 -41t-133.5 48.5t-53.5 132.5q0 113 92.5 184.5
t264.5 71.5t292.5 -95t120.5 -227q0 -239 -301 -369q-180 -78 -254 -146.5t-74 -156.5q0 -31 18.5 -46t39.5 -15q58 0 102 50.5t58 125.5l24 -8q-15 -88 -68.5 -142.5t-135.5 -54.5t-149 61t-67 157zM152 144q0 70 48 117.5t118 47.5t117.5 -47.5t47.5 -117.5t-47.5 -116
t-118.5 -46t-118 46t-47 116z" />
    <glyph glyph-name="at" unicode="@" horiz-adv-x="2019" 
d="M1122 844q-56 0 -109 -60.5t-111 -203.5t-60 -304t86 -161q80 0 186 186l131 395q-22 148 -123 148zM1278 184q0 -92 80 -92q68 0 137 45t125 122t91.5 192t35.5 247t-48.5 243t-179 226t-375.5 115t-445.5 -161t-262 -369t-61.5 -382t52 -317t192.5 -280.5t422.5 -137.5
q281 0 502 147.5t330 459.5l18 -6q-51 -172 -145.5 -304t-276.5 -252t-480 -120q-297 0 -518 142t-285 329t-64 333t39.5 280t147 297t336 282.5t478.5 119.5q192 0 342.5 -77t238 -228t87.5 -334t-59.5 -324.5t-165 -226.5t-216.5 -85t-174.5 44.5t-66.5 125.5l-6 2
q-105 -168 -230 -168q-83 0 -151 64t-68 206q0 83 35.5 175.5t94.5 171.5t147.5 131t163.5 52q141 0 159 -127h7l43 115h192l-194 -557q-25 -69 -25 -119z" />
    <glyph glyph-name="A" unicode="A" horiz-adv-x="1443" 
d="M870 526v498q-113 -132 -417 -498h417zM133 96q0 -71 209 -84l-4 -12h-522l4 12q49 2 130 40t197 169q544 621 988 1200h57v-1263q0 -50 13.5 -94.5t150.5 -51.5l-4 -12h-721l4 12q111 8 173 30t62 110v337h-446l-205 -249q-86 -107 -86 -144z" />
    <glyph glyph-name="B" unicode="B" horiz-adv-x="1366" 
d="M707 752q102 0 215.5 81t113.5 291q0 250 -153 250q-32 0 -78 -4l-174 -618h76zM608 27q92 0 172 62.5t122.5 153t45.5 185.5v20q0 127 -49 203t-139 76q-57 0 -135 -4l-160 -571q-2 -14 -2 -27q-1 -46 26 -72t119 -26zM452 1292q0 44 -38 65t-135 27l4 15h712
q177 0 279 -63.5t102 -196.5q0 -299 -487 -381l2 -15q187 -12 292 -81.5t105 -198.5q0 -213 -184.5 -338t-503.5 -125h-704l4 14q100 6 147 21q66 23 88 100l311 1118q6 22 6 39z" />
    <glyph glyph-name="C" unicode="C" horiz-adv-x="1286" 
d="M971 1425q183 0 319 -116l101 110h22l-98 -506h-23q-22 279 -111.5 384.5t-219.5 105.5q-95 0 -188 -74.5t-165 -199.5q-166 -287 -167 -662q1 -195 71 -312t228 -117t269.5 81.5t225.5 249.5l20 -15q-133 -219 -269 -301t-291 -82q-298 0 -449.5 150.5t-151.5 384.5
q0 181 67.5 349t183 293.5t279.5 201t347 75.5z" />
    <glyph glyph-name="D" unicode="D" horiz-adv-x="1572" 
d="M463 103q0 -83 84 -83q187 0 324.5 113t226.5 317t89 442t-59 349q-71 135 -251 135q-40 0 -68 -4l-334 -1194q-12 -43 -12 -75zM452 1292q0 44 -38 65t-135 27l4 15h637q458 0 579 -321q35 -93 35 -213v-13q-3 -289 -168 -498q-136 -173 -357 -263.5t-477 -90.5h-636
l4 14q100 6 147 21q66 23 88 100l311 1118q6 22 6 39z" />
    <glyph glyph-name="E" unicode="E" horiz-adv-x="1325" 
d="M924 1374h-117l-178 -637h147q53 0 105.5 25.5t84.5 57.5t72 89.5t54 94.5h20l-160 -570h-16q4 23 4 76t-31 127q-37 76 -147 76h-139l-138 -496q-31 -102 -20 -130t27 -45t153 -17h66q100 0 157 15.5t103 51.5q104 83 268 301h25l-134 -393h-1234l4 14q84 0 150 22
t87 105l307 1104q16 67 -10 99.5t-155 39.5l4 15h1138l-96 -346h-20q-17 125 -73.5 215t-118.5 98t-189 8z" />
    <glyph glyph-name="F" unicode="F" horiz-adv-x="1253" 
d="M1026 1374h-219l-178 -641h162q89 0 123.5 21.5t63.5 43.5t77.5 85t68.5 116h23l-162 -575h-22q3 20 3 46q0 99 -35 169t-149 70h-159l-154 -562q-8 -24 -8 -43q0 -43 47 -63t141 -27l-6 -14h-766l6 12q24 0 83 8.5t83 16.5q68 24 88 102l307 1112q28 78 -27 102
q-55 25 -155 31l6 15h1205l-89 -332h-20q-7 115 -50.5 202t-113.5 96t-174 9z" />
    <glyph glyph-name="G" unicode="G" horiz-adv-x="1507" 
d="M94 536q0 157 67.5 324t185.5 291.5t288.5 199t365.5 74.5q87 0 180.5 -30t155.5 -78l117 102h19l-113 -491h-17q-14 207 -116 341t-262 134q-114 0 -216.5 -91.5t-167.5 -231.5q-143 -309 -145 -701v-6q0 -185 59 -281t163 -96t162.5 77.5t105.5 254.5l32 121q7 27 7 49
q-1 53 -51 75t-181 29l4 16h783l-4 -16q-106 -16 -143 -30q-67 -26 -87 -105l-135 -506l-14 -4l-131 121q-186 -107 -322 -107t-237.5 33.5t-181 98.5t-125.5 170.5t-46 262.5z" />
    <glyph glyph-name="H" unicode="H" horiz-adv-x="1658" 
d="M453 1295q-1 43 -43 63t-131 26l4 15h733l-4 -15q-82 -4 -148 -24t-88 -103l-143 -509h506l143 505q28 72 -29 100q-57 27 -133 31l4 15h731l-4 -15q-77 -4 -147 -24t-92 -103l-314 -1120q-7 -20 -7 -37q-1 -42 43 -62t136 -24l-4 -14h-733l4 14q101 5 146 21
q67 23 88 100l159 576h-507l-160 -574q-7 -20 -7 -36q0 -42 42 -62t131 -25l-4 -14h-729l4 14q100 6 147 21q66 23 88 100l311 1118q7 23 7 42z" />
    <glyph glyph-name="I" unicode="I" horiz-adv-x="837" 
d="M460 1294q0 44 -43 64t-132 26l4 15h733l-4 -15q-82 -4 -148 -24t-88 -103l-313 -1120q-7 -20 -7 -36q0 -42 40 -61t143 -26l-4 -14h-739l4 14q100 6 147 21q66 23 88 100l312 1118q7 23 7 41z" />
    <glyph glyph-name="J" unicode="J" horiz-adv-x="1400" 
d="M317 -106q0 -85 -86 -154q0 -36 27.5 -58t65.5 -22q113 0 192.5 118t253.5 906l-270 -2l6 27l272 8q39 118 120 219t189 158q-81 -11 -174 -11t-153.5 28.5t-110.5 68.5t-133.5 109t-187.5 69q-40 0 -71.5 -35t-31.5 -76t33 -78q83 -2 147 -35.5t64 -85.5t-30 -86
t-99 -34t-119.5 65.5t-50.5 153.5q0 136 94.5 222.5t233.5 86.5q178 0 259 -78.5t153.5 -162t172.5 -97.5h39q54 103 124 176.5t128 73.5q29 0 48.5 -21.5t19.5 -52.5q0 -58 -79 -113t-198 -83q-25 -52 -42.5 -191.5t-26.5 -183.5l268 8l-16 -43l-258 -2q-71 -340 -127 -492
t-135.5 -272t-222 -201t-279.5 -81q-226 0 -267 95t-41 149t43 99.5t111 45.5t106.5 -38t38.5 -97z" />
    <glyph glyph-name="K" unicode="K" horiz-adv-x="1536" 
d="M453 1295q-1 43 -43 63t-131 26l4 15h733l-4 -15q-82 -4 -148 -24t-88 -103l-149 -538h20q256 170 489 368t201 243t-186 54l4 15h582l-4 -15h-19q-189 -9 -303 -104q-398 -341 -504 -414q157 -253 357 -690q51 -109 102 -135q51 -23 117 -27l-4 -14h-719l4 14
q88 7 130 24.5t42 59.5t-93.5 242.5t-185.5 351.5h-39l-155 -555q-7 -20 -7 -36q0 -42 42 -62t131 -25l-4 -14h-729l4 14q100 6 147 21q66 23 88 100l311 1118q7 23 7 42z" />
    <glyph glyph-name="L" unicode="L" horiz-adv-x="1288" 
d="M451 1290q0 50 -43 70q-46 20 -129 24l4 15h743l-4 -15q-94 -4 -158 -24t-88 -103l-291 -1040q-31 -102 -20 -130t26.5 -45t153.5 -17h66q100 0 157 15.5t103 51.5q104 83 268 301h25l-134 -393h-1234l4 14q84 0 150 22t87 109l309 1108q5 20 5 37z" />
    <glyph glyph-name="M" unicode="M" horiz-adv-x="1880" 
d="M428 1239q0 138 -195 145l5 15h505l160 -977l518 801q74 116 95 176h538l-4 -15q-94 -5 -160 -25t-86 -102l-288 -1116q-7 -20 -7 -37q0 -41 43 -61q17 -8 67 -18t79 -11l-2 -14h-740l2 14q104 6 142 19q70 24 88 100l276 1090l-784 -1200h-41q-6 132 -31 284l-145 897
l-232 -864q-33 -127 -33 -165t2 -66q2 -27 24 -49q37 -38 196 -48l-4 -12h-566l5 12q45 2 107.5 13t88.5 28q79 50 142 281l223 825q12 45 12 80z" />
    <glyph glyph-name="N" unicode="N" horiz-adv-x="1406" 
d="M421 1241q-1 55 -43 97t-169 46l6 15h508l410 -920l155 586q34 125 34 167t-4 68q-4 25 -26 42t-82.5 28.5t-107.5 13.5l4 15h545l-4 -15q-131 -7 -181 -36t-82 -97.5t-61 -179.5l-289 -1085h-45l-526 1231l-230 -883q-30 -115 -30 -188t25 -98t192 -34l-4 -14h-545l4 14
q120 6 178 41q84 53 144 281l211 797q13 53 13 108z" />
    <glyph glyph-name="O" unicode="O" horiz-adv-x="1482" 
d="M625 -8q173 0 325 274q75 136 135.5 356t60.5 408t-41 281t-153 94q-63 0 -118 -34t-117 -109q-115 -142 -209.5 -404t-94.5 -528q-1 -154 51 -246t161 -92zM96 526q0 165 68.5 332.5t185.5 295.5t264.5 202t307.5 74t283.5 -63.5t196.5 -189t73 -297.5t-68.5 -341
t-186.5 -295q-246 -265 -579 -277q-239 0 -392 148.5t-153 410.5z" />
    <glyph glyph-name="P" unicode="P" horiz-adv-x="1275" 
d="M688 662q157 0 255.5 123t98.5 319q0 268 -184 268h-51l-197 -710h78zM950 1399q424 0 424 -301q0 -144 -138.5 -303.5t-557.5 -159.5h-76l-137 -494q-5 -18 -5 -33q0 -43 42 -63q16 -8 63.5 -19t75.5 -12l-4 -14h-741l4 14q100 6 147 21q66 23 88 100l309 1118
q8 23 8 53q0 64 -173 78l4 15h667z" />
    <glyph glyph-name="Q" unicode="Q" horiz-adv-x="1538" 
d="M351 -14q143 0 231 43q-137 207 -265 207q-58 0 -107 -32.5t-65 -97.5q12 -49 65.5 -83t121.5 -37h19zM586 920q0 54 49.5 97.5t137.5 43.5t140 -69.5t52 -161.5q0 -178 -110 -286t-253 -108q-207 0 -321.5 110.5t-114.5 287.5q0 117 50 224.5t141 190t231 132t288 49.5
t296.5 -40.5t243.5 -169.5t95 -281q0 -151 -40.5 -272.5t-155.5 -275t-500 -293.5q89 -66 171 -209q82 -144 117 -188q112 -141 294 -141q72 0 143 30v11q-43 13 -69.5 51t-26.5 86t38 82.5t96 34.5t88 -35t30 -87t-65.5 -107.5t-158 -85t-180.5 -29.5q-320 0 -495 186
q-66 68 -129 175t-78 130q-152 -45 -292 -45t-220 39t-80 102t88 114.5t227 51.5t265.5 -38.5t216.5 -106.5q381 247 381 889q0 199 -82.5 298t-214.5 99q-98 0 -189.5 -54.5t-156 -142.5t-103.5 -202t-39 -239t65.5 -208.5t175.5 -83.5t194.5 81t84.5 249q0 82 -46 140
t-89 63q18 -42 18 -66t-6 -50q-6 -27 -36.5 -52t-70.5 -25h-3q-92 2 -92 105z" />
    <glyph glyph-name="R" unicode="R" horiz-adv-x="1497" 
d="M680 715q168 0 275.5 102.5t107.5 258.5t-57 226t-152 70h-47l-182 -657h55zM649 686h-33q-77 -289 -151 -543q-23 -72 37 -98q16 -8 63.5 -19t75.5 -12l-4 -14h-741l4 14q100 6 147 21q66 23 88 100l309 1118q8 23 8 53q0 64 -173 78l4 15h651q233 0 352 -70.5
t119 -192.5t-98.5 -248t-384.5 -167l-2 -21q239 -23 249 -249q1 -27 1 -59l-3 -184v-22q3 -125 76 -125q50 0 87.5 62t68.5 194l20 -4q-50 -218 -123 -277t-192 -59q-270 0 -270 275q0 54 4 186l2 90q1 89 -40 123.5t-151 34.5z" />
    <glyph glyph-name="S" unicode="S" horiz-adv-x="1161" 
d="M462 -4q154 0 234 81.5t80 215.5q0 96 -57 164.5t-211 152.5t-220.5 172t-66.5 214t71.5 221.5t199.5 151.5t252 56t231.5 -31.5t146.5 -70.5l117 96h23l-117 -465h-19q-18 181 -104.5 315t-247.5 134q-107 0 -180.5 -77t-73.5 -183t46 -169t206 -148t236.5 -177.5
t76.5 -220.5t-76.5 -233t-214.5 -163.5t-280 -58.5t-268.5 32.5t-171.5 70.5l-115 -96h-22l114 479h21q32 -219 134 -341t256 -122z" />
    <glyph glyph-name="T" unicode="T" horiz-adv-x="1384" 
d="M696 1374q-103 0 -167 -8t-179.5 -126.5t-156.5 -197.5h-23l100 357h1327l-100 -357h-20q0 115 -45.5 215.5t-111.5 108.5t-165 8h-65l-336 -1231q-6 -22 -6 -39q0 -46 40 -63q16 -7 82 -16t99 -11l-4 -14h-815l4 14q129 8 178 25q69 23 90 102l340 1233h-66z" />
    <glyph glyph-name="U" unicode="U" horiz-adv-x="1579" 
d="M193 291q0 90 28 194l209 760q8 23 8 55t-32 46q-73 35 -142 38l6 15h744l-6 -15q-78 -4 -156 -24q-66 -20 -90 -105l-201 -729q-39 -137 -39 -244t61 -172t189 -65q192 0 310 106.5t182 329.5l172 604q28 103 28 167t-26 86q-50 40 -205 46l6 15h567l-6 -15
q-152 -8 -196 -34t-71 -82t-60 -170l-179 -625q-74 -259 -204 -382.5t-375 -123.5q-244 0 -383 86t-139 238z" />
    <glyph glyph-name="V" unicode="V" horiz-adv-x="1333" 
d="M645 1251v-934l653 850q76 97 76 131q0 73 -227 86l4 15h520l-4 -15q-70 -5 -141 -41t-170 -165l-934 -1201h-88l-10 1268q0 47 -15.5 89.5t-146.5 49.5l6 15h713l-7 -15q-107 -7 -168 -29t-61 -104z" />
    <glyph glyph-name="W" unicode="W" horiz-adv-x="2025" 
d="M645 1251v-864l496 700q9 40 9 100.5t-1 78.5q-3 70 -47 92t-113 26l4 15h711l-4 -15q-108 -7 -169 -29t-61 -104v-860l455 647q131 183 131 269q0 60 -98.5 67.5t-128.5 9.5l4 15h520l-4 -15q-63 -3 -121 -32t-155 -164l-846 -1204h-78v1058l-748 -1058h-77v1261
q0 46 -15.5 88.5t-144.5 50.5l4 15h711l-5 -15q-107 -7 -168 -29t-61 -104z" />
    <glyph glyph-name="X" unicode="X" horiz-adv-x="1542" 
d="M231 102q0 -47 44 -65t141 -23l-6 -14h-529l6 14q144 8 272 118t523 493q-72 227 -195 587q-41 120 -114 148q-50 19 -119 24l6 15h817l-4 -15q-244 -13 -244 -108q0 -26 19 -88t106 -338q408 399 408 453q0 38 -45 57t-141 24l4 15h532l-4 -15q-159 -8 -310 -146
q-150 -138 -431 -419q33 -103 108 -335t100 -317t78 -116t144 -37l-6 -14h-818l7 14q245 13 245 109q-1 35 -25 121t-108 350q-461 -445 -461 -492z" />
    <glyph glyph-name="Y" unicode="Y" horiz-adv-x="1503" 
d="M550 1423q132 0 261 -81.5t129 -321.5q0 -126 -27 -279h21q93 265 209 433q170 251 366 251q79 0 132 -47.5t53 -129.5t-50 -130.5t-115 -48.5t-104 43.5t-39 93.5q0 102 82 166l-8 10q-228 -40 -358.5 -324.5t-163.5 -416.5l-125 -500q-4 -17 -4 -31q0 -49 45 -69
q15 -7 75.5 -17t90.5 -10l-4 -14h-762l4 14q105 6 145 19q66 23 84 100l131 533q17 68 17 236t-58.5 255.5t-158.5 87.5q-195 0 -273 -205l-18 7q57 166 174 271t249 105z" />
    <glyph glyph-name="Z" unicode="Z" horiz-adv-x="1261" 
d="M840 1374q-124 0 -186 -12t-186.5 -103.5t-221.5 -236.5h-23l139 377h1086l-6 -19l-1161 -1355h231q246 0 329 53t191 162.5t152 179.5h22l-149 -420h-1194l4 16l1165 1358h-192z" />
    <glyph glyph-name="bracketleft" unicode="[" horiz-adv-x="1159" 
d="M1286 1477q0 -129 -95 -212t-223 -83t-191 34t-101.5 53t-222.5 173l-461 -1721q32 18 115.5 66t170.5 95.5t177.5 77.5t171.5 30q213 0 213 -172q0 -65 -30.5 -126.5t-82.5 -101.5l-8 9q59 55 59 112q0 78 -176 78q-90 0 -153.5 -8t-92.5 -11.5t-44 -6.5l-85 -17
q-70 -14 -149 -31.5t-109 -23.5l-51 -17l483 1815l43 -16q37 -9 111.5 -27.5t195 -45t218.5 -26.5t133 4t98.5 22.5t63.5 104.5q0 32 -15 62l11 4q26 -32 26 -94z" />
    <glyph glyph-name="backslash" unicode="\" horiz-adv-x="831" 
d="M348 1524l58 4l118 -1950l-57 -4z" />
    <glyph glyph-name="bracketright" unicode="]" horiz-adv-x="1159" 
d="M-166 -315q0 129 95 212t241 83q92 0 141 -22t67.5 -29.5t49.5 -27.5t45.5 -29.5t54.5 -40t52 -41.5l88 -71l460 1723q-33 -19 -100 -58t-100 -57.5t-162 -87t-272 -68.5q-213 0 -213 175q0 65 29.5 126t80.5 99l10 -6q-59 -59 -59 -115q0 -78 174 -78q91 0 154.5 8
t93 11.5t44.5 6.5l85 17q70 14 149.5 31.5t108.5 23.5l51 17l-483 -1815l-43 17q-342 88 -429 94t-140 6q-98 0 -174 -23.5t-76 -109.5q0 -34 14 -62l-10 -4q-27 33 -27 95z" />
    <glyph glyph-name="asciicircum" unicode="^" horiz-adv-x="933" 
d="M586 1270q62 0 87 -10.5t49 -58.5t94.5 -192.5t113.5 -226.5l-17 -8l-344 293l-432 -295l-14 12l332 441q21 25 45 35t86 10z" />
    <glyph glyph-name="underscore" unicode="_" horiz-adv-x="1226" 
d="M-215 -217h1249v-98h-1249v98z" />
    <glyph glyph-name="grave" unicode="`" 
d="M457 1350q0 46 32.5 79t84.5 33t88 -37t73 -133l101 -250l-13 -12l-241 158q-125 79 -125 162z" />
    <glyph glyph-name="a" unicode="a" horiz-adv-x="1124" 
d="M367 41q38 0 93 51.5t113 155.5l160 491q-11 90 -36.5 136.5t-59.5 46.5t-127.5 -143t-157.5 -441q-26 -124 -26 -174v-60q3 -63 41 -63zM33 310q0 98 47.5 210t133.5 214t195 166.5t207 64.5q48 0 88.5 -51t45.5 -113h6l49 151h295l-238 -690q-63 -182 -63 -216t32 -34
q65 0 127.5 75t114.5 208l25 -8q-63 -156 -127.5 -233t-166.5 -77t-166.5 48.5t-64.5 152.5l-8 2q-58 -99 -135.5 -154t-135.5 -55t-99.5 19t-78.5 56t-60 101.5t-23 162.5z" />
    <glyph glyph-name="b" unicode="b" horiz-adv-x="1034" 
d="M368 -10q85 0 200 258q56 126 98.5 289t42.5 284q0 25 -11.5 47.5t-31.5 22.5q-82 0 -207 -178l-170 -537q-1 -186 79 -186zM492 799q137 166 246 166q106 0 184.5 -70t78.5 -246q0 -115 -63 -271t-203.5 -282.5t-360.5 -126.5q-116 0 -219.5 93.5t-103.5 192.5t31 191
l256 820q31 94 31 137q0 54 -82 65q-52 6 -123 9v22l557 21l-236 -719z" />
    <glyph glyph-name="c" unicode="c" horiz-adv-x="839" 
d="M721 602q-137 0 -137 121q0 53 52.5 92t133.5 51q-6 28 -45 53t-84 25q-64 0 -122 -87.5t-99 -214.5q-84 -260 -84 -460q0 -164 94 -164q104 0 197 80t161 207l23 -10q-89 -171 -198 -247.5t-222 -76.5q-186 0 -277 95t-91 249q0 155 113 341t251 247.5t237 61.5
t167.5 -50.5t68.5 -130.5t-37 -131t-102 -51z" />
    <glyph glyph-name="d" unicode="d" horiz-adv-x="1124" 
d="M326 113q0 -74 51 -74q33 0 83.5 47t96.5 125l168 543q-9 77 -30.5 121.5t-45.5 44.5q-43 0 -98.5 -78.5t-106.5 -204.5q-118 -290 -118 -513v-11zM608 965q109 0 129 -148h6l136 449q30 102 30 135t-22 47.5t-62 19.5t-149 9v22l575 21l-395 -1258q-51 -158 -51 -203
t35 -45q125 0 235 281l25 -8q-63 -156 -128 -233t-164 -77t-171 42t-72 139l-8 2q-136 -189 -274 -189q-112 0 -181 89.5t-69 224.5q0 258 200 471q88 96 189.5 152.5t185.5 56.5z" />
    <glyph glyph-name="e" unicode="e" horiz-adv-x="849" 
d="M637 855q0 85 -37 85q-55 0 -119.5 -142.5t-105.5 -328.5q123 22 192.5 129.5t69.5 256.5zM409 903.5q141 61.5 242 61.5t161 -46t60 -116q0 -134 -109 -224.5t-390 -132.5q-29 -156 -29 -260q0 -163 98 -163q110 0 199.5 78.5t157.5 203.5l22 -10q-171 -324 -422 -324
q-190 0 -278 97t-88 249t117.5 338.5t258.5 248z" />
    <glyph glyph-name="f" unicode="f" horiz-adv-x="632" 
d="M-301 -432q5 -33 42 -33q36 0 60.5 9.5t57 45.5t96.5 207t179 625.5t120 472.5h-172l12 37h172l17 61q68 252 243 412q66 61 150.5 89t161.5 28q135 0 216 -60.5t81 -150.5q0 -45 -40.5 -94.5t-106.5 -49.5t-113.5 30t-47.5 84t48 114.5t49 70.5q-11 35 -90 35
t-132 -103.5t-116 -342.5l-33 -123h219l-12 -37h-215q-155 -608 -235 -869q-81 -261 -240 -391q-139 -118 -332 -118q-110 0 -170 52t-60 140q0 54 41 102t103 48t111 -34.5t49 -103.5q0 -46 -53 -94.5t-60 -58.5z" />
    <glyph glyph-name="g" unicode="g" 
d="M399 538q0 -170 67 -171q74 0 118.5 151t44.5 258q0 170 -76 170q-35 0 -66 -44.5t-59.5 -145t-28.5 -218.5zM154 -256q0 -98 50.5 -155.5t122.5 -57.5t141 26.5t111 106.5t42 173t-70 108q-114 25 -293 32q-46 -11 -75 -73t-29 -160zM-123 -259q0 98 94.5 168t268.5 83
v14q-91 15 -144 58.5t-53 103.5t34 93t39 35l33 16q27 14 48 21t29 10t27.5 8.5t22.5 6.5v11q-76 35 -121.5 95.5t-45.5 133.5q0 157 123.5 262t309.5 105t265 -31q121 121 197 121h4q59 -1 95 -44t36 -97t-33 -92t-84 -38q-96 0 -141 177q-22 -10 -58 -46v-16
q88 -77 88 -197q0 -153 -125 -253.5t-311 -100.5h-176q-70 -37 -70 -70t41.5 -48.5t181.5 -29.5t185 -20q115 -17 186.5 -96.5t71.5 -194.5q0 -189 -166.5 -283.5t-441.5 -94.5q-187 0 -298.5 66t-111.5 164z" />
    <glyph glyph-name="h" unicode="h" horiz-adv-x="1146" 
d="M817 45q0 -33 51 -33t115 76t115 207l24 -8q-97 -238 -175.5 -274t-156.5 -36t-151.5 47t-73.5 134q0 57 35 149l137 361q4 12 27.5 71t23.5 85q0 61 -54 61t-106 -45.5t-139 -173.5l-206 -666h-291l399 1266q29 88 29 128t-27 58.5t-182 24.5v22l557 21l-250 -752l10 -2
q70 97 134 148t154 51t160.5 -69.5t70.5 -160.5q0 -49 -41 -151l-123 -322q-66 -171 -66 -217z" />
    <glyph glyph-name="i" unicode="i" horiz-adv-x="684" 
d="M389 1308q0 77 53.5 135t126.5 58t109.5 -47.5t36.5 -121.5t-49.5 -132.5t-125.5 -58.5t-113.5 45t-37.5 122zM342 965q104 0 175 -53.5t71 -141.5q0 -50 -53 -186l-125 -322q-10 -23 -21 -52.5t-18 -47t-10.5 -27.5t-8.5 -23t-7 -21t-5.5 -20.5t-3.5 -23.5q0 -33 41 -33
q65 0 128.5 74.5t115.5 206.5l24 -8q-62 -152 -131.5 -231t-169.5 -79t-176 47t-76 134q0 58 35 149l145 369q68 170 68 212t-29 42q-128 0 -239 -285l-25 8q97 239 169.5 275.5t125.5 36.5z" />
    <glyph glyph-name="j" unicode="j" horiz-adv-x="649" 
d="M389 1312q0 76 53.5 134.5t126.5 58.5t109.5 -47.5t36.5 -121.5t-49.5 -132.5t-125.5 -58.5t-113.5 45.5t-37.5 121.5zM-207 -432q0 -39 43 -39q63 0 103.5 49t62.5 106.5t40.5 115.5t35.5 115q18 59 58 189t122 444t82 347t-27 33q-66 0 -122.5 -73t-110.5 -212l-25 10
q95 239 166.5 275.5t124.5 36.5q106 0 181 -53t75 -140q0 -25 -54 -231t-139 -490q-86 -284 -253 -422q-139 -118 -342 -118q-91 0 -153 51.5t-62 121.5t39 119.5t105 49.5t112.5 -36t46.5 -92t-51 -101.5t-58 -55.5z" />
    <glyph glyph-name="k" unicode="k" horiz-adv-x="1079" 
d="M549 460q-1 70 -41 70q-20 0 -59 -4l-168 -526h-291l401 1266q29 88 29 128t-27 58.5t-182 24.5v22l557 21l-311 -965l35 -2q72 0 105 59t66.5 136.5t87 147t150.5 69.5q98 0 139 -42.5t41 -106.5t-46 -116.5t-104 -52.5t-97 28.5t-39 68.5t21 73t87.5 47t71.5 37
q-14 43 -67 43t-86 -34.5t-56 -87t-48 -107.5t-70.5 -104t-108.5 -68q90 -8 179 -54t89 -135q0 -50 -28.5 -164t-28.5 -137t7 -30t29 -7q73 0 131.5 71t110.5 208l27 -8q-82 -199 -147.5 -254.5t-167.5 -55.5t-177.5 47t-75.5 134q0 41 31 154.5t31 147.5z" />
    <glyph glyph-name="l" unicode="l" horiz-adv-x="622" 
d="M410 1406q0 52 -82 62q-49 6 -129 9v22l559 21l-404 -1262q-63 -196 -63 -215q0 -27 52 -27t115.5 74t114.5 205l25 -8q-95 -234 -172 -272t-134 -38t-113 18.5t-97 61t-41 91.5t16.5 97t20.5 62l303 959q29 88 29 140z" />
    <glyph glyph-name="m" unicode="m" horiz-adv-x="1718" 
d="M1389 45q0 -33 51 -33t114.5 75.5t114.5 207.5l25 -8q-95 -234 -172.5 -272t-135.5 -38t-113.5 18.5t-95.5 61t-40 102.5t34 148l121 320q12 31 40 102.5t28 101.5q0 58 -55 58q-90 0 -205 -191l-230 -698h-299l226 676q47 118 47 163.5t-53 45.5q-61 0 -110 -45.5
t-108 -137.5l-233 -702h-297l229 676q8 24 38 110t30 114t-31 28q-126 0 -237 -283l-25 8q78 194 146.5 253t151.5 59t156.5 -45t73.5 -152l9 -2q69 95 132.5 147t155.5 52t161 -63.5t69 -135.5h8q113 149 176.5 174t110.5 25q79 0 150 -66.5t71 -159.5q0 -48 -41 -155
l-123 -322q-65 -168 -65 -217z" />
    <glyph glyph-name="n" unicode="n" horiz-adv-x="1202" 
d="M872 45q0 -33 51 -33t115 76t115 207l25 -8q-64 -157 -133.5 -233.5t-176.5 -76.5t-177 49.5t-70 119.5t34 161l129 340q6 15 13.5 35t11.5 30.5t9.5 25t8.5 22.5t10 28t7 42q0 55 -69 55q-89 0 -202 -178l-233 -707h-297l229 676q8 24 38 110t30 114t-31 28
q-126 0 -237 -283l-25 8q61 149 109 209t92.5 81.5t91.5 21.5q89 0 162 -46t73 -151l9 -2q75 106 141.5 152.5t148.5 46.5t155 -66.5t73 -163.5q0 -48 -41 -151l-123 -322q-66 -171 -66 -217z" />
    <glyph glyph-name="o" unicode="o" horiz-adv-x="1009" 
d="M311 106q0 -114 62 -114q56 0 115.5 90t105.5 225q99 289 102 522v8q0 107 -55 107q-62 0 -126 -96.5t-116 -251.5q-85 -257 -88 -483v-7zM33 351q0 101 47.5 216t131.5 205q180 193 435 193q145 0 237.5 -95.5t92.5 -275.5q1 -221 -165 -414q-80 -94 -195.5 -151.5
t-247.5 -57.5t-234 93t-102 287z" />
    <glyph glyph-name="p" unicode="p" horiz-adv-x="1148" 
d="M508 27q39 0 95.5 85.5t106.5 215.5q109 282 109 493q0 64 -45 64t-88 -39.5t-111 -128.5l-178 -563q32 -127 111 -127zM307 932q-59 0 -121 -77t-114 -210l-25 8q99 239 169.5 275.5t121.5 36.5q90 0 157.5 -56.5t67.5 -152.5l8 -2q117 159 185 185t110 26t94.5 -14
t104 -89t51.5 -219q0 -216 -143 -407q-89 -119 -206 -191t-226 -72q-59 0 -99.5 40t-52.5 91h-8l-107 -352q-28 -88 -28 -137q0 -55 84 -66q40 -5 121 -8l-7 -20h-688l6 18q108 -1 140 37q26 29 34.5 48.5t15 33.5t9.5 23l14 41q11 33 11 34l288 920q7 22 36.5 114t29.5 117
t-33 25z" />
    <glyph glyph-name="q" unicode="q" horiz-adv-x="1062" 
d="M330 113q0 -72 38 -72t92.5 49t100.5 127l182 565q-14 69 -42 104.5t-64 35.5t-87.5 -75t-102.5 -201t-84 -270.5t-33 -262.5zM524 121q-120 -150 -238 -150t-185.5 90.5t-67.5 213.5t54.5 252t145.5 235q174 203 383 203q48 0 86 -37t52 -94h8l82 118h246l-383 -1200
q-29 -96 -29 -137q0 -56 82 -66q54 -6 94 -8l-6 -20h-672l6 18q119 0 157 43t57 105.5t22 68.5l114 363z" />
    <glyph glyph-name="r" unicode="r" horiz-adv-x="956" 
d="M489 915q72 -50 72 -157l8 -2q63 97 124 153t133 56t119.5 -52t47.5 -123t-39.5 -125.5t-109.5 -54.5t-104.5 33t-34.5 73q0 57 45 121t45 81q-55 0 -119 -66.5t-113 -157.5l-217 -694h-295l221 688q8 26 36 107t28 102q0 31 -31 31q-123 0 -235 -285l-25 8
q63 151 124 232.5t154 81.5q94 0 166 -50z" />
    <glyph glyph-name="s" unicode="s" horiz-adv-x="866" 
d="M12 192q0 88 48 144.5t118 56.5t101.5 -38.5t31.5 -84.5t-29.5 -82t-95.5 -36q-13 0 -66.5 6t-53.5 -17q0 -50 73.5 -94.5t168.5 -44.5t146.5 45.5t51.5 131.5t-118.5 185.5t-172 166t-53.5 155.5q0 118 109.5 198.5t289.5 80.5q119 0 198 -58.5t79 -141.5t-35 -130
t-95 -47t-98.5 27t-38.5 75t31.5 75.5t69 38.5t71 20t35.5 16q-4 27 -64.5 60.5t-129.5 33.5t-109.5 -43.5t-40.5 -109.5t44.5 -118t74.5 -76t33 -26.5t26 -22.5q56 -48 109 -115t53 -173q0 -107 -118.5 -193t-319.5 -86q-146 0 -235 66.5t-89 154.5z" />
    <glyph glyph-name="t" unicode="t" horiz-adv-x="696" 
d="M330 50q0 -34 37 -34q64 0 129 73.5t118 209.5l25 -8q-64 -159 -131 -236.5t-189 -77.5t-186.5 61t-64.5 104q0 44 14 96t194 657h-186l14 37h185l94 317h289l-97 -317h209l-14 -37h-205l-207 -711q-28 -100 -28 -134z" />
    <glyph glyph-name="u" unicode="u" horiz-adv-x="1198" 
d="M309 928q-125 0 -237 -285l-23 10q58 146 106.5 207t93.5 83t120 22t144 -51t69 -131t-29 -152l-141 -361q-56 -145 -56 -175q0 -60 54 -60t114.5 53t108.5 139l223 707h299l-227 -686q-4 -14 -12.5 -38.5t-12.5 -36.5t-17.5 -54.5t-13.5 -73.5t37 -31q132 0 242 281
l25 -8q-63 -156 -128 -233t-162 -77t-175 43.5t-78 147.5l-8 2q-66 -94 -129.5 -145.5t-157.5 -51.5t-164 68.5t-70 161.5q0 38 41 151l125 322q72 186 72 219t-33 33z" />
    <glyph glyph-name="v" unicode="v" horiz-adv-x="1034" 
d="M418 231q0 -192 104 -192q126 -1 268 163q66 76 108 166t42 150t-23 90.5t-56 50.5t-88.5 52.5t-55.5 93.5q0 62 38.5 99.5t94.5 37.5q96 0 127 -73t31 -190q0 -116 -52.5 -254.5t-139.5 -240.5t-192.5 -157.5t-225.5 -55.5t-199.5 72t-79.5 201q0 285 393 604l-12 10
q-110 -80 -163 -102.5t-108 -22.5t-106 31l-64 -176l-22 8l125 365h16q50 -101 191 -101q142 0 252 98l18 -18q-91 -88 -156 -302.5t-65 -406.5z" />
    <glyph glyph-name="w" unicode="w" horiz-adv-x="1484" 
d="M827 388q0 -83 2 -103q73 113 128 247.5t55 231.5q0 35 -19.5 58.5t-48.5 23.5q-55 0 -84 -86q-12 -39 -22.5 -164t-10.5 -208zM834 248q24 -215 156 -215q64 0 133.5 50t126.5 128q122 167 122 321q0 79 -55 112t-109.5 64.5t-54.5 95.5t37 101t91 37q101 0 131 -75
t30 -182t-42 -237t-119 -240t-181.5 -178.5t-212.5 -68.5q-144 0 -242 133q-53 -44 -106.5 -83.5t-128.5 -39.5q-132 0 -211.5 72t-79.5 207q0 255 387 602l-10 10q-166 -129 -242 -129t-131 31l-57 -166l-23 8l121 355h16q50 -101 180 -101q69 0 114 23t118 88l18 -17
q-89 -131 -141.5 -350.5t-52.5 -417.5q0 -153 63 -153q30 0 62.5 19t87.5 65q-54 93 -54 173t42 200t100 221t123 172t107 71t74 -48.5t32 -133.5t-62.5 -243t-156.5 -281z" />
    <glyph glyph-name="x" unicode="x" horiz-adv-x="1048" 
d="M928 555q51 133 51 281q0 72 -49 71q-54 0 -117 -109.5t-97 -237.5t-56.5 -220t-22.5 -177q0 -147 88 -147q69 0 118.5 68t106.5 213l25 -8q-55 -141 -73 -169.5t-38.5 -58.5t-65.5 -58t-116 -28q-234 0 -288 148q-19 53 -19 95v52h-13q-49 -124 -84 -181t-72 -85.5
t-79 -28.5q-164 0 -164 138t178 286l11 -10q-46 -109 -46 -201q0 -168 42 -168t68 34t41 57t32.5 63.5t31.5 73.5t23 60l51 158q1 4 4 13q80 251 80 335t-55 85q-74 0 -143 -74.5t-117 -201.5l-25 10q62 150 138 230.5t188 80.5q194 0 236 -137q13 -42 13 -79t-1 -54h10
q67 182 126 226t107 44t89.5 -35.5t41.5 -115.5t-46 -141.5t-101 -108.5z" />
    <glyph glyph-name="y" unicode="y" horiz-adv-x="1120" 
d="M-12 -389q18 -74 159 -74q162 0 267 143t211 470l-9 2q-66 -85 -128.5 -132t-155.5 -47t-160.5 69t-67.5 163q0 55 41 153l125 318q72 186 72 219t-33 33q-125 0 -237 -285l-23 10q94 239 169.5 275.5t151.5 36.5t144 -51.5t68 -129.5t-29 -153l-133 -336
q-64 -170 -64 -201q0 -59 64 -59q44 0 104 53.5t117 144.5l219 701h293l-223 -717q-146 -468 -366.5 -587t-428.5 -119q-109 0 -167 54.5t-58 144.5t56.5 143t125.5 53t104 -38.5t35 -82.5q0 -101 -67 -133q-27 -14 -93.5 -18t-82.5 -23z" />
    <glyph glyph-name="z" unicode="z" horiz-adv-x="907" 
d="M170 80q0 -107 -121 -107q-30 0 -56 23.5t-26 61.5t20.5 66t78.5 74t162.5 120.5t238 165t182.5 124.5l-4 10q-47 0 -186.5 30t-175.5 30q-64 0 -64 -41q0 -21 35.5 -48t85.5 -42l-10 -17q-203 68 -203 176t55.5 181.5t122.5 73.5t117.5 -32.5t85.5 -79t64.5 -93t54 -79
t41.5 -32.5q46 0 69 58.5t23 124.5q0 135 92 135q104 0 104 -86q0 -71 -86 -142q-54 -44 -286 -203t-299 -208l2 -13q49 0 177 -29.5t184 -29.5t82 15t26 37t-28.5 44t-68.5 29l7 18q163 -35 163 -159q0 -103 -54 -182t-150 -79q-54 0 -101.5 32t-80 78t-79.5 124t-83 80
q-48 -13 -79.5 -79t-31.5 -130z" />
    <glyph glyph-name="braceleft" unicode="{" horiz-adv-x="864" 
d="M443 -8.5q-89 -198.5 -28 -259t142 -64.5l-4 -14q-205 0 -301 51.5t-92 185.5q3 71 37.5 157.5t67 171.5t32.5 163t-58 113t-188 45l25 96q203 12 287 96t104 297q20 274 154 385.5t423 108.5l-4 -15q-139 -3 -188.5 -72t-68 -142t-30.5 -165q-12 -93 -33 -161
t-71.5 -143t-156 -121t-277.5 -74l-22 -84q202 -29 270.5 -89t68.5 -164t-89 -302.5z" />
    <glyph glyph-name="bar" unicode="|" horiz-adv-x="569" 
d="M258 -424v1952h80v-1952h-80z" />
    <glyph glyph-name="braceright" unicode="}" horiz-adv-x="864" 
d="M350 890q0 63 32 152.5t101 272.5t-159 194l4 15q204 0 300.5 -52t91.5 -171t-70.5 -257.5t-65.5 -232.5t58 -129t189 -45l-26 -96q-202 -12 -286 -96.5t-103 -297.5q-21 -273 -155.5 -384.5t-422.5 -108.5l2 14q139 3 196.5 80.5t71.5 163.5t24 166t54 194t162.5 179
t317.5 96l24 84q-203 29 -271.5 89t-68.5 170z" />
    <glyph glyph-name="asciitilde" unicode="~" horiz-adv-x="1093" 
d="M408 702q66 0 134 -23.5t126 -47t118 -23.5q128 0 201 121l12 -6q-44 -129 -119.5 -214t-174.5 -85q-70 0 -138.5 23.5t-125.5 47t-118 23.5q-135 0 -206 -117l-13 5q43 125 122 210.5t182 85.5z" />
    <glyph glyph-name="DEL" horiz-adv-x="0" 
 />
    <glyph glyph-name="nbspace" unicode="&#xa0;" horiz-adv-x="206" 
 />
    <glyph glyph-name="exclamdown" unicode="&#xa1;" horiz-adv-x="747" 
d="M440 1255q0 70 47.5 116t118.5 46t118.5 -46t47.5 -116t-47.5 -117.5t-118.5 -47.5t-118.5 47.5t-47.5 117.5zM123 126q0 111 162.5 376.5t234.5 466.5l23 -4q-40 -214 -45.5 -480.5t-23.5 -335.5t-73 -122.5t-127 -53.5t-111.5 44t-39.5 109z" />
    <glyph glyph-name="cent" unicode="&#xa2;" horiz-adv-x="974" 
d="M352 444q0 -102 45 -157l342 803q-67 1 -138 -60.5t-125 -155t-89 -211t-35 -219.5zM705 1110q32 0 40 -2l117 266l25 -8l-111 -262q93 -17 147 -73.5t54 -127.5t-32.5 -109t-86.5 -38t-91 28t-37 74t36.5 85t89.5 65q-9 26 -35 47.5t-55 25.5l-352 -817q42 -49 121 -49
q198 0 337 213l17 -10q-87 -140 -207 -220.5t-244 -80.5q-48 0 -92 8l-158 -367l-24 6l155 367q-108 30 -177.5 114.5t-67.5 205.5t52.5 238.5t134 210t201.5 151.5t243 59z" />
    <glyph glyph-name="sterling" unicode="&#xa3;" horiz-adv-x="1531" 
d="M77 -164q86 0 175 43t151 115q-164 82 -319 82q-78 0 -128.5 -33t-53.5 -87t43 -87t132 -33zM74 -193q-215 0 -209 164q6 102 121 181t255 79t269 -34q7 25 7 84.5t1 78.5h-336l4 29h332q0 165 2 186h-305l2 31h305q20 254 147.5 457t276.5 263t256 60q209 0 302 -96.5
t87 -222.5q-11 -150 -116.5 -244t-278.5 -94q-108 0 -165 60.5t-52 158.5q10 104 59 187l17 -5q-41 -72 -47 -160t40.5 -142t134.5 -54t146.5 76t66.5 207t-39.5 220t-150.5 89q-164 0 -250 -138.5t-120 -439.5q-12 -112 -31 -182h346l-2 -31h-352q-18 -91 -80 -186h399
l-2 -29h-414q-55 -98 -143 -180q63 -21 164 -65.5t178 -69.5t145 -25t138.5 22t110 87t69.5 168l20 -4q-104 -465 -495 -465q-114 0 -225 45.5t-232 106.5q-71 -78 -164 -125.5t-192 -47.5z" />
    <glyph glyph-name="currency" unicode="&#xa4;" horiz-adv-x="1228" 
d="M980 1270q158 0 244.5 -65.5t86.5 -155.5t-49.5 -151.5t-126.5 -61.5q-48 0 -74.5 25t-26.5 61q0 64 58 111.5t75 99.5q5 44 -45.5 80t-136.5 36q-131 0 -243 -141t-193 -389h438l-8 -31h-440q-32 -101 -41 -168h379l-5 -31h-380q-32 -178 1.5 -273.5t84.5 -131
t127 -35.5q218 0 409 254l16 -10q-218 -322 -524 -322q-230 0 -347.5 139.5t-88.5 378.5h-145l6 31h145q8 66 41 168h-137l6 31h143q60 155 172 279t266.5 198t312.5 74z" />
    <glyph glyph-name="yen" unicode="&#xa5;" horiz-adv-x="1187" 
d="M66 309l6 33h313l49 170h-315l8 31h307q-9 41 -66 263.5t-69 264.5q-25 95 -71 126t-99 34l2 12h668l-2 -12q-180 -15 -189 -57q-4 -18 36.5 -196.5t96.5 -391.5q440 521 449 569q7 34 -43 52t-123 24l4 12h418l-2 -12q-98 -17 -187 -101t-239.5 -257t-274.5 -330h320
l-6 -31h-324l-51 -170h324l-5 -33h-327l-49 -170q-18 -76 34 -98q39 -23 136 -29l-4 -12h-713l4 12q108 6 148 18q78 24 98 101l49 178h-311z" />
    <glyph glyph-name="brokenbar" unicode="&#xa6;" horiz-adv-x="569" 
d="M258 745v783h80v-783h-80zM258 379h80v-803h-80v803z" />
    <glyph glyph-name="section" unicode="&#xa7;" horiz-adv-x="1058" 
d="M309 744q0 -54 8 -88t35 -88t94 -162t168 -277q73 20 113.5 73.5t40.5 107.5t-7 85.5t-27 72t-33 63.5t-50 82t-69 108t-121 203q-71 -22 -111.5 -74t-40.5 -106zM37 -266q0 74 52.5 129t114.5 55t89.5 -36.5t21.5 -73.5q-11 -65 -89 -119t-37 -92.5t83 -38.5
q90 0 150.5 73.5t61.5 165.5t-54 188t-123 201.5t-126 199t-58 221.5t90.5 215.5t241.5 121.5q-43 81 -43 180q0 175 114 281t289 106t202.5 -82t26.5 -116q0 -73 -53 -128t-115 -55t-89.5 34t-21.5 72q10 65 85.5 120t38.5 94t-80 39q-94 0 -154.5 -72t-59.5 -159
t32.5 -148.5t44.5 -84t54.5 -88t51.5 -81.5t35 -55t34 -53.5t29 -48.5t51 -101.5t34 -153.5q0 -130 -94 -217t-242 -116q47 -92 47 -191q0 -169 -112 -277t-287 -108t-205.5 82t-30.5 117z" />
    <glyph glyph-name="dieresis" unicode="&#xa8;" 
d="M770 1247q0 59 40 101.5t96 42.5t97 -43t41 -101t-41 -100.5t-97 -42.5t-96 42t-40 101zM385 1247q0 59 40.5 101.5t96.5 42.5t96.5 -43t40.5 -101t-40.5 -100.5t-96.5 -42.5t-96.5 42t-40.5 101z" />
    <glyph glyph-name="copyright" unicode="&#xa9;" horiz-adv-x="1937" 
d="M481 506q0 139 70.5 253.5t191 179.5t265.5 65q67 0 143 -23t96 -39l56 70h16l8 -365h-20q-85 246 -172.5 288t-133.5 42q-107 0 -173 -121.5t-66 -339.5q0 -414 278 -414q92 0 170 58.5t125 163.5l23 -11q-60 -136 -151 -211t-238 -75q-213 0 -350.5 130.5t-137.5 348.5
zM135 512q0 -168 63.5 -320t171.5 -262.5t258 -175.5t316 -65t317 65t259.5 175.5t172.5 262.5t64 320t-64 319.5t-172.5 261.5t-259.5 175t-317 65t-316 -65t-258 -175t-171.5 -261.5t-63.5 -319.5zM57 513q0 179 70 342t188.5 281.5t283 188.5t345.5 70q243 0 448.5 -119
t324 -321.5t118.5 -440.5q0 -180 -70.5 -343.5t-189.5 -282t-284 -189t-347 -70.5t-346 70.5t-282.5 189t-188.5 282t-70 342.5z" />
    <glyph glyph-name="ordfeminine" unicode="&#xaa;" horiz-adv-x="778" 
d="M307 830q0 -96 53 -95q57 0 119 99l101 319q-5 45 -21.5 60.5t-50.5 15.5t-83 -70t-83.5 -170.5t-34.5 -158.5zM125 860q0 86 34 161t87 128.5t118.5 86t127.5 32.5q85 0 100 -88h2l24 80h175l-131 -396q-33 -94 -33 -118t22 -27q39 -3 77 40t65 115l16 -6
q-35 -89 -77 -135.5t-104 -46.5t-104 30t-41 89h-6q-77 -121 -174 -121q-76 0 -127 45t-51 131zM92 500l17 65h565l-17 -65h-565z" />
    <glyph glyph-name="guillemotleft" unicode="&#xab;" horiz-adv-x="1165" 
d="M524 402q-4 14 6 54t22 55q13 16 48 38q478 288 563 338l11 -10l-390 -420l158 -418l-12 -8q-76 61 -210 185t-162 148q-30 24 -34 38zM80 402q-4 14 6 54t22 55q13 16 48 38q478 288 563 338l8 -10l-387 -420l158 -418l-13 -8q-75 61 -210 185t-163 148t-32 38z" />
    <glyph glyph-name="logicalnot" unicode="&#xac;" horiz-adv-x="1159" 
d="M88 510v98h946v-528h-110v430h-836z" />
    <glyph glyph-name="registered" unicode="&#xae;" horiz-adv-x="1011" 
d="M629 1096q90 0 90 90q0 50 -18 69t-56 19h-53v-178h37zM885 952q0 -86 -83 -86q-90 0 -102 105q0 10 -2.5 22.5t-4.5 25.5t-4.5 16t-7 12.5t-9.5 12.5t-14.5 10t-36.5 7h-29v-151q0 -37 59 -37v-17h-209v17q60 0 60 37v311q0 39 -60 39v16h226q145 0 145 -94
q0 -82 -139 -106v-7q103 -14 114 -65q24 -104 32.5 -112.5t19.5 -8.5q30 0 30 53h15zM315 1067q0 -142 94 -239t234 -97t234 97t94 239t-94 239t-234 97t-234 -97t-94 -239zM270 1067q0 158 107.5 265.5t265.5 107.5t265.5 -107.5t107.5 -265.5t-107.5 -265.5t-265.5 -107.5
t-265.5 107.5t-107.5 265.5z" />
    <glyph glyph-name="macron" unicode="&#xaf;" 
d="M369 1116l49 191h676l-50 -191h-675z" />
    <glyph glyph-name="degree" unicode="&#xb0;" horiz-adv-x="808" 
d="M385.5 954q31.5 -86 106.5 -87q75 -2 115.5 77.5t42.5 179.5t-9.5 163t-45 104t-85.5 43t-101 -57.5t-52 -197.5q-3 -139 28.5 -225zM182 1153q3 87 50 158t120.5 108t159.5 35t157.5 -35.5t115 -105t41.5 -185.5t-100 -198.5t-234 -81.5t-224.5 83.5t-85.5 221.5z" />
    <glyph glyph-name="plusminus" unicode="&#xb1;" horiz-adv-x="1161" 
d="M72 0v98h968v-98h-968zM61 588v104h441v426h108v-426h439v-104h-439v-426h-108v426h-441z" />
    <glyph glyph-name="twosuperior" unicode="&#xb2;" horiz-adv-x="915" 
d="M754 1403q0 104 -101 104q-63 0 -125 -45t-98.5 -107.5t-36.5 -115.5q0 -80 76 -80q31 0 64 16t45 26t43 38l8 -8q-128 -156 -262 -156q-65 0 -101.5 33.5t-35.5 95.5t45.5 125t152.5 131t241 68t211 -50t78 -151t-91.5 -187.5t-210.5 -140t-269 -102.5l-82 -47h410
q32 0 67.5 23.5t56.5 45t41 46.5t23 28l15 -6l-173 -303h-636l26 84q263 158 379 244q240 178 240 391z" />
    <glyph glyph-name="threesuperior" unicode="&#xb3;" horiz-adv-x="913" 
d="M270 995q50 0 75 -23t20.5 -68t-61 -76t-62.5 -54q-7 -32 27 -61t100 -29q102 0 189 88t111 220t-67 132q-43 0 -98.5 -41t-61.5 -45l-14 35q160 81 205 113q101 69 121 178q12 67 -14 105t-88 38t-124 -54t-71 -118q-8 -36 6.5 -62t56.5 -26t98 47l9 -10
q-99 -104 -183 -104t-118 31.5t-26 90.5t71 113t154 83.5t201 29.5t181 -44t67 -126t-100.5 -133.5t-248.5 -67.5l-37 -18q24 4 64 4q88 0 165.5 -39t73.5 -139q-2 -69 -52.5 -127.5t-171 -114t-266.5 -55.5t-218.5 46t-66.5 122t55 117.5t99 41.5z" />
    <glyph glyph-name="acute" unicode="&#xb4;" 
d="M838 1460q43 0 75.5 -31.5t32.5 -72.5q0 -86 -115 -142l-378 -178l-11 13l211 286q91 125 185 125z" />
    <glyph glyph-name="mu" unicode="&#xb5;" horiz-adv-x="1198" 
d="M356 102q0 -67 54 -67t113.5 52.5t107.5 139.5l225 707h299l-227 -686q-4 -14 -12.5 -38.5t-12.5 -36.5t-17.5 -54.5t-13.5 -73.5t37 -31q132 0 242 281l25 -8q-63 -156 -128 -233t-162 -77t-175 43.5t-78 147.5l-8 2q-66 -94 -129.5 -145.5t-153.5 -51.5t-151 51
t-82 138h-5l-36 -115q-25 -76 -32.5 -214.5t-19.5 -188.5t-44 -78.5t-72 -28.5t-61.5 34t-7.5 84t92.5 173t135.5 301l273 805h305l-225 -641q-56 -154 -56 -191z" />
    <glyph glyph-name="paragraph" unicode="&#xb6;" horiz-adv-x="1245" 
d="M733 1399h643l-8 -27h-262l-436 -1628h-41l434 1628h-195l-436 -1628h-41l238 885h-49q-291 0 -338 130t-45 193q3 128 74 230.5t192.5 159.5t269.5 57z" />
    <glyph glyph-name="periodcentered" unicode="&#xb7;" horiz-adv-x="550" 
d="M137 554q0 72 51 122.5t123 50.5t122 -50.5t50 -122.5t-50 -121.5t-122 -49.5t-123 49.5t-51 121.5z" />
    <glyph glyph-name="cedilla" unicode="&#xb8;" 
d="M350 -293q0 36 -28.5 50t-106.5 14l80 245h37l-35 -108q148 0 206 -41t58 -101t-19.5 -96.5t-79.5 -72.5t-168 -49t-247 -13l6 27q297 6 297 145z" />
    <glyph glyph-name="onesuperior" unicode="&#xb9;" horiz-adv-x="716" 
d="M457 1477q141 0 256 59h16q-40 -72 -74 -205l-149 -543q-12 -51 26 -65q17 -11 107 -18l-2 -11h-535l2 11q91 7 117 13q55 14 68 64l178 650q-21 -7 -53 -7q-89 0 -150 72l6 8q46 -28 187 -28z" />
    <glyph glyph-name="ordmasculine" unicode="&#xba;" horiz-adv-x="737" 
d="M524 1255q-48 0 -95.5 -76t-76.5 -182.5t-30 -177.5q-2 -121 53 -121q48 0 94.5 79.5t73.5 185.5t27 199q2 93 -46 93zM145 902q0 95 50.5 177.5t140.5 136.5t188 54t163 -61.5t65 -182.5t-113 -231.5t-275 -110.5q-82 0 -150.5 61.5t-68.5 156.5zM88 500l16 65h551
l-16 -65h-551z" />
    <glyph glyph-name="guillemotright" unicode="&#xbb;" horiz-adv-x="1165" 
d="M432 41l391 420l-161 418l16 8q101 -86 375 -338q24 -21 28 -36q5 -15 -5 -54t-24 -55t-64 -44t-250 -150q-202 -122 -298 -179zM-12 41l391 420l-162 418l14 8q107 -89 377 -338q23 -22 28 -36t-5 -54q-9 -39 -23 -55t-53 -37l-557 -336z" />
    <glyph glyph-name="onequarter" unicode="&#xbc;" horiz-adv-x="1146" 
d="M668 1477q186 0 301 59h18q-44 -78 -76 -205l-147 -543q-14 -50 24 -65q16 -10 107 -18l-2 -11h-535l2 11q87 6 115 13q57 14 70 64l178 650q-21 -7 -53 -7q-89 0 -150 72l6 8q49 -28 142 -28zM80 494l18 71h979l-18 -71h-979zM57 -279q-59 0 -59 50q0 57 90 57
q26 0 84 -4q86 79 141.5 195.5t124.5 361.5h221q-86 -203 -192.5 -325.5t-271.5 -235.5q103 26 171 26t154 -14l107 287h198l-108 -289q40 2 88 18.5t74 47.5l10 -11q-97 -136 -203 -155l-80 -222h-192l75 224q-23 4 -115 38.5t-149 34.5l-45 -2q-86 -82 -123 -82z" />
    <glyph glyph-name="onehalf" unicode="&#xbd;" horiz-adv-x="1146" 
d="M668 1477q186 0 301 59h18q-44 -78 -76 -205l-147 -543q-14 -50 24 -65q16 -10 107 -18l-2 -11h-535l2 11q87 6 115 13q57 14 70 64l178 650q-21 -7 -53 -7q-89 0 -150 72l6 8q49 -28 142 -28zM78 494l18 71h979l-18 -71h-979zM313 88q0 -82 78 -82q65 0 106.5 41.5
t43.5 42.5l8 -8q-126 -158 -262 -158q-65 0 -101 33.5t-35 95.5t45.5 125t153 131t240.5 68t210 -49.5t78 -151.5t-90.5 -187.5t-210.5 -139.5t-270 -103l-82 -49h410q69 0 165 117q20 24 23 28l15 -6l-172 -303h-637l26 84q263 158 379 244q240 178 240 391q0 104 -101 104
q-63 0 -125 -45t-98.5 -107.5t-36.5 -115.5z" />
    <glyph glyph-name="threequarters" unicode="&#xbe;" horiz-adv-x="1146" 
d="M412 995q50 0 74.5 -24.5t21.5 -54.5q-6 -56 -61 -86t-64 -56q-8 -31 26 -60.5t101 -29.5q102 0 188.5 88t108.5 213q29 139 -64 139q-32 0 -63 -20t-40 -26t-29 -20.5t-27 -19.5l-15 35q160 81 205 113q101 69 121 178q12 67 -14.5 105t-88.5 38t-123.5 -54t-70.5 -118
q-8 -36 6 -62t58 -26t98 47l6 -10q-96 -104 -193 -104q-72 0 -106.5 31.5t-26.5 86.5q12 95 139 162.5t262 67.5t206 -44t68 -112t-73 -131t-276 -84l-37 -18q25 4 63 4q87 0 165.5 -38.5t74.5 -139.5q-2 -69 -52.5 -127.5t-171 -114t-266.5 -55.5q-147 0 -220 46t-64 132
q4 65 54 107t100 42zM72 494l18 71h979l-18 -71h-979zM45 -279q-59 0 -59 50q0 57 92 57q24 0 82 -4q87 79 141.5 194.5t124.5 362.5h221q-110 -263 -232.5 -374t-232.5 -187q1 0 56.5 13t119.5 13t150 -14l106 287h199l-108 -289q112 5 161 66l11 -11q-93 -135 -203 -155
l-78 -222h-195l78 224q-24 4 -116.5 38.5t-149.5 34.5l-45 -2q-86 -82 -123 -82z" />
    <glyph glyph-name="questiondown" unicode="&#xbf;" horiz-adv-x="942" 
d="M553 1257q0 70 47.5 116t118.5 46t118.5 -46t47.5 -116t-47.5 -117.5t-118.5 -47.5t-118.5 47.5t-47.5 117.5zM4 291q0 238 301 368q179 78 253.5 147t74.5 157q0 31 -18.5 46t-39.5 15q-58 0 -101.5 -50.5t-57.5 -125.5l-25 8q15 88 69 142.5t136 54.5t148.5 -61
t66.5 -157q0 -191 -279 -323q-178 -83 -226 -147.5t-44 -151.5q3 -88 61.5 -151.5t162.5 -63.5t180.5 69t76.5 147t-43.5 122.5t-99.5 44.5t-76 -10v-13q61 0 101.5 -31.5t40.5 -83.5t-34 -88t-94 -36t-98.5 34.5t-38.5 102.5t53.5 109t133.5 41t133 -48.5t53 -132.5
q0 -113 -92.5 -184.5t-264.5 -71.5t-292.5 95t-120.5 227z" />
    <glyph glyph-name="Agrave" unicode="&#xc0;" horiz-adv-x="1443" 
d="M909 1792q0 46 33.5 79.5t85.5 33.5t87.5 -37t72.5 -133l100 -250l-12 -12l-242 157q-125 79 -125 162zM891 526v498q-144 -167 -418 -498h418zM154 96q0 -71 208 -84l-4 -12h-522l4 12q49 3 131 41t197 168q536 612 987 1200h57v-1263q0 -50 13.5 -94.5t150.5 -51.5
l-4 -12h-721l4 12q110 7 173 30t63 110v337h-447l-204 -249q-86 -107 -86 -144z" />
    <glyph glyph-name="Aacute" unicode="&#xc1;" horiz-adv-x="1443" 
d="M1374 1903q43 0 76 -32t33 -73q0 -85 -115 -141l-379 -178l-10 12l211 287q91 125 184 125zM891 526v498q-144 -167 -418 -498h418zM154 96q0 -71 208 -84l-4 -12h-522l4 12q49 3 131 41t197 168q536 612 987 1200h57v-1263q0 -50 13.5 -94.5t150.5 -51.5l-4 -12h-721
l4 12q110 7 173 30t63 110v337h-447l-204 -249q-86 -107 -86 -144z" />
    <glyph glyph-name="Acircumflex" unicode="&#xc2;" horiz-adv-x="1443" 
d="M1272 1890q55 0 70.5 -8t31.5 -53t57.5 -189.5t45.5 -156.5l-15 -6l-225 215l-367 -215l-12 10q76 88 165 198.5t121 148.5t52.5 47t75.5 9zM891 526v498q-144 -167 -418 -498h418zM154 96q0 -71 208 -84l-4 -12h-522l4 12q49 3 131 41t197 168q536 612 987 1200h57
v-1263q0 -50 13.5 -94.5t150.5 -51.5l-4 -12h-721l4 12q110 7 173 30t63 110v337h-447l-204 -249q-86 -107 -86 -144z" />
    <glyph glyph-name="Atilde" unicode="&#xc3;" horiz-adv-x="1443" 
d="M983 1665q-95 0 -188 -141l-23 10q87 162 153.5 233.5t119.5 71.5q92 0 176.5 -76.5t138.5 -76.5q110 0 201 139l18 -10q-93 -175 -154 -240.5t-114 -65.5q-94 0 -181.5 78t-146.5 78zM891 526v498q-144 -167 -418 -498h418zM154 96q0 -71 208 -84l-4 -12h-522l4 12
q49 3 131 41t197 168q536 612 987 1200h57v-1263q0 -50 13.5 -94.5t150.5 -51.5l-4 -12h-721l4 12q110 7 173 30t63 110v337h-447l-204 -249q-86 -107 -86 -144z" />
    <glyph glyph-name="Adieresis" unicode="&#xc4;" horiz-adv-x="1443" 
d="M1235 1683q0 59 40.5 101.5t96.5 42.5t96.5 -43t40.5 -101t-40.5 -100.5t-96.5 -42.5t-96.5 42t-40.5 101zM850 1683q0 59 40 101.5t96 42.5t97 -43t41 -101t-41 -100.5t-97 -42.5t-96 42t-40 101zM891 526v498q-144 -167 -418 -498h418zM154 96q0 -71 208 -84l-4 -12
h-522l4 12q49 3 131 41t197 168q536 612 987 1200h57v-1263q0 -50 13.5 -94.5t150.5 -51.5l-4 -12h-721l4 12q110 7 173 30t63 110v337h-447l-204 -249q-86 -107 -86 -144z" />
    <glyph glyph-name="Aring" unicode="&#xc5;" horiz-adv-x="1443" 
d="M1178 1509q48 0 90 51t50 152q8 102 -20 138t-74 36t-81.5 -65t-41.5 -139t11.5 -123.5t65.5 -49.5zM1226 1913q102 0 174.5 -60.5t64.5 -154.5t-87.5 -152.5t-183.5 -58.5t-176.5 56.5t-64.5 150.5t89.5 156.5t183.5 62.5zM891 526v498q-144 -167 -418 -498h418zM154 96
q0 -71 208 -84l-4 -12h-522l4 12q49 3 131 41t197 168q536 612 987 1200h57v-1263q0 -50 13.5 -94.5t150.5 -51.5l-4 -12h-721l4 12q110 7 173 30t63 110v337h-447l-204 -249q-86 -107 -86 -144z" />
    <glyph glyph-name="AE" unicode="&#xc6;" horiz-adv-x="2015" 
d="M520 629h445l202 733h-24zM1614 1374h-117l-178 -637h147q53 0 105.5 25.5t84.5 57.5t72 89.5t54 94.5h20l-160 -570h-16q18 102 -27 203q-37 76 -147 76h-139l-137 -496q-23 -79 -23 -111q0 -54 46.5 -67.5t174.5 -13.5t184.5 15.5t102.5 51.5q104 83 268 301h25
l-133 -393h-1235l4 14q84 0 150 22t87 105l129 455h-464l-302 -360q-61 -76 -71 -112t24 -69.5t170 -42.5l-4 -12h-530l2 10q79 4 147 39q78 34 260 246l918 1069q-28 11 -191 20l5 15h1191l-96 -346h-20q-17 125 -73.5 215t-118.5 98t-189 8z" />
    <glyph glyph-name="Ccedilla" unicode="&#xc7;" horiz-adv-x="1286" 
d="M971 1425q183 0 319 -116l101 110h22l-98 -506h-23q-22 279 -111.5 384.5t-219.5 105.5q-95 0 -188 -74.5t-165 -199.5q-153 -264 -166 -619q-8 -228 66 -350.5t248 -122.5q142 0 253.5 82t225.5 250l20 -15q-133 -219 -269 -301t-304 -82h-20l-17 -63q148 0 206 -41
t58 -101t-19.5 -96.5t-79.5 -72.5t-168 -49t-247 -13l6 27q297 6 297 145q0 36 -28.5 50t-106.5 14l64 202q-255 15 -394 161t-139 372q0 181 67.5 349t183 293.5t279.5 201t347 75.5z" />
    <glyph glyph-name="Egrave" unicode="&#xc8;" horiz-adv-x="1325" 
d="M725 1792q0 46 33.5 79.5t85.5 33.5t87.5 -37t72.5 -133l100 -250l-12 -12l-242 157q-125 79 -125 162zM924 1374h-117l-178 -637h147q53 0 105.5 25.5t84.5 57.5t72 89.5t54 94.5h20l-160 -570h-16q18 102 -27 203q-37 76 -147 76h-139l-138 -496q-31 -102 -20 -130
t27 -45t153 -17h66q100 0 157 15.5t103 51.5q104 83 268 301h25l-134 -393h-1234l4 14q84 0 150 22t87 105l307 1104q16 67 -10 99.5t-155 39.5l4 15h1138l-96 -346h-20q-17 125 -73.5 215t-118.5 98t-189 8z" />
    <glyph glyph-name="Eacute" unicode="&#xc9;" horiz-adv-x="1325" 
d="M1151 1903q43 0 76 -32t33 -73q0 -85 -115 -141l-379 -178l-10 12l211 287q91 125 184 125zM924 1374h-117l-178 -637h147q53 0 105.5 25.5t84.5 57.5t72 89.5t54 94.5h20l-160 -570h-16q18 102 -27 203q-37 76 -147 76h-139l-138 -496q-31 -102 -20 -130t27 -45t153 -17
h66q100 0 157 15.5t103 51.5q104 83 268 301h25l-134 -393h-1234l4 14q84 0 150 22t87 105l307 1104q16 67 -10 99.5t-155 39.5l4 15h1138l-96 -346h-20q-17 125 -73.5 215t-118.5 98t-189 8z" />
    <glyph glyph-name="Ecircumflex" unicode="&#xca;" horiz-adv-x="1325" 
d="M1006 1903q55 0 69.5 -8.5t30.5 -53.5t57.5 -187.5t46.5 -158.5l-14 -6l-225 215l-367 -215l-12 10q76 88 165 198.5t121 148.5t52.5 47.5t75.5 9.5zM924 1374h-117l-178 -637h147q53 0 105.5 25.5t84.5 57.5t72 89.5t54 94.5h20l-160 -570h-16q18 102 -27 203
q-37 76 -147 76h-139l-138 -496q-31 -102 -20 -130t27 -45t153 -17h66q100 0 157 15.5t103 51.5q104 83 268 301h25l-134 -393h-1234l4 14q84 0 150 22t87 105l307 1104q16 67 -10 99.5t-155 39.5l4 15h1138l-96 -346h-20q-17 125 -73.5 215t-118.5 98t-189 8z" />
    <glyph glyph-name="Edieresis" unicode="&#xcb;" horiz-adv-x="1325" 
d="M995 1690q0 59 40.5 101t96.5 42t97 -42.5t41 -100.5t-41 -101t-97 -43t-96.5 42.5t-40.5 101.5zM610 1690q0 59 41 101t97 42t96.5 -42.5t40.5 -100.5t-40.5 -101t-96.5 -43t-97 42.5t-41 101.5zM924 1374h-117l-178 -637h147q53 0 105.5 25.5t84.5 57.5t72 89.5
t54 94.5h20l-160 -570h-16q18 102 -27 203q-37 76 -147 76h-139l-138 -496q-31 -102 -20 -130t27 -45t153 -17h66q100 0 157 15.5t103 51.5q104 83 268 301h25l-134 -393h-1234l4 14q84 0 150 22t87 105l307 1104q16 67 -10 99.5t-155 39.5l4 15h1138l-96 -346h-20
q-17 125 -73.5 215t-118.5 98t-189 8z" />
    <glyph glyph-name="Igrave" unicode="&#xcc;" horiz-adv-x="837" 
d="M455 1792q0 46 32.5 79.5t84.5 33.5t88 -37t73 -133l101 -250l-13 -12l-241 157q-125 79 -125 162zM-98 0l4 14q100 6 147 21q66 23 88 100l312 1118q23 78 -33 103q-46 22 -135 28l4 15h733l-4 -15q-82 -4 -148 -24t-88 -103l-313 -1120q-24 -70 37 -98q37 -18 139 -25
l-4 -14h-739z" />
    <glyph glyph-name="Iacute" unicode="&#xcd;" horiz-adv-x="837" 
d="M920 1903q43 0 75.5 -32t32.5 -73q0 -85 -115 -141l-378 -178l-11 12l211 287q91 125 185 125zM-98 0l4 14q100 6 147 21q66 23 88 100l312 1118q23 78 -33 103q-46 22 -135 28l4 15h733l-4 -15q-82 -4 -148 -24t-88 -103l-313 -1120q-24 -70 37 -98q37 -18 139 -25
l-4 -14h-739z" />
    <glyph glyph-name="Icircumflex" unicode="&#xce;" horiz-adv-x="837" 
d="M760 1903q55 0 69.5 -8.5t31.5 -53.5t58.5 -189.5t45.5 -156.5l-15 -6l-225 215l-367 -215l-12 10q76 88 165 198.5t121 148.5t52.5 47.5t75.5 9.5zM-98 0l4 14q100 6 147 21q66 23 88 100l312 1118q23 78 -33 103q-46 22 -135 28l4 15h733l-4 -15q-82 -4 -148 -24
t-88 -103l-313 -1120q-24 -70 37 -98q37 -18 139 -25l-4 -14h-739z" />
    <glyph glyph-name="Idieresis" unicode="&#xcf;" horiz-adv-x="837" 
d="M750 1690q0 59 40 101t96 42t97 -42.5t41 -100.5t-41 -101t-97 -43t-96 42.5t-40 101.5zM365 1690q0 59 40.5 101t96.5 42t96.5 -42.5t40.5 -100.5t-40.5 -101t-96.5 -43t-96.5 42.5t-40.5 101.5zM-98 0l4 14q100 6 147 21q66 23 88 100l312 1118q23 78 -33 103
q-46 22 -135 28l4 15h733l-4 -15q-82 -4 -148 -24t-88 -103l-313 -1120q-24 -70 37 -98q37 -18 139 -25l-4 -14h-739z" />
    <glyph glyph-name="Eth" unicode="&#xd0;" horiz-adv-x="1572" 
d="M547 20q149 0 268 73t197 193q155 239 171 530q16 290 -55 425t-251 135q-40 0 -68 -4l-174 -620h254l-15 -43h-251l-148 -531q-44 -158 72 -158zM920 1399q458 0 537 -210t77 -337q-3 -206 -85 -367.5t-223 -268.5q-285 -216 -694 -216h-636l4 14q100 6 147 21
q66 23 88 100l160 574h-168l14 43h166l139 501q22 75 -32 103q-38 21 -135 28l4 15h637z" />
    <glyph glyph-name="Ntilde" unicode="&#xd1;" horiz-adv-x="1406" 
d="M1407 1815q-156 -306 -270 -306q-93 0 -180 78t-146 78q-95 0 -188 -141l-23 10q87 162 153.5 233.5t119.5 71.5q92 0 176.5 -76.5t138.5 -76.5q110 0 201 139zM203 146q0 -73 25 -98t192 -34l-4 -14h-545l4 14q120 6 178 41q84 53 144 281l211 797q34 141 -19 194
t-180 57l6 15h508l410 -920l155 586q42 157 34 209t-30 68q-22 17 -82.5 28.5t-107.5 13.5l4 15h545l-4 -15q-131 -7 -181 -36t-82 -97.5t-61 -179.5l-289 -1085h-45l-526 1231l-230 -883q-30 -115 -30 -188z" />
    <glyph glyph-name="Ograve" unicode="&#xd2;" horiz-adv-x="1482" 
d="M739 1792q0 46 33.5 79.5t85.5 33.5t87.5 -37t72.5 -133l100 -250l-12 -12l-242 157q-125 79 -125 162zM952 1405q-63 0 -118 -34t-117 -109q-115 -142 -205 -391t-97 -467q-13 -412 210 -412q173 0 325 274q75 136 131.5 341t64.5 401t-37 296.5t-157 100.5zM96 526
q0 165 68.5 332.5t185.5 295.5t264.5 202t307.5 74t283.5 -63.5t196.5 -189t73 -297.5t-68.5 -341t-186.5 -295q-246 -265 -579 -277q-239 0 -392 148.5t-153 410.5z" />
    <glyph glyph-name="Oacute" unicode="&#xd3;" horiz-adv-x="1482" 
d="M1182 1903q43 0 75.5 -32t32.5 -73q0 -86 -114 -141l-379 -178l-11 12l211 287q91 125 185 125zM952 1405q-63 0 -118 -34t-117 -109q-115 -142 -205 -391t-97 -467q-13 -412 210 -412q173 0 325 274q75 136 131.5 341t64.5 401t-37 296.5t-157 100.5zM96 526
q0 165 68.5 332.5t185.5 295.5t264.5 202t307.5 74t283.5 -63.5t196.5 -189t73 -297.5t-68.5 -341t-186.5 -295q-246 -265 -579 -277q-239 0 -392 148.5t-153 410.5z" />
    <glyph glyph-name="Ocircumflex" unicode="&#xd4;" horiz-adv-x="1482" 
d="M1047 1903q55 0 70 -8.5t31 -53.5t57 -187.5t46 -158.5l-14 -6l-225 215l-367 -215l-12 10q76 88 164.5 198.5t120.5 148.5t53 47.5t76 9.5zM952 1405q-63 0 -118 -34t-117 -109q-115 -142 -205 -391t-97 -467q-13 -412 210 -412q173 0 325 274q75 136 131.5 341
t64.5 401t-37 296.5t-157 100.5zM96 526q0 165 68.5 332.5t185.5 295.5t264.5 202t307.5 74t283.5 -63.5t196.5 -189t73 -297.5t-68.5 -341t-186.5 -295q-246 -265 -579 -277q-239 0 -392 148.5t-153 410.5z" />
    <glyph glyph-name="Otilde" unicode="&#xd5;" horiz-adv-x="1482" 
d="M1401 1815q-156 -306 -270 -306q-93 0 -180 78t-146 78q-96 0 -189 -141l-22 10q90 165 154 235t118 70q92 0 177.5 -76.5t146.5 -76.5q99 0 192 139zM952 1405q-63 0 -118 -34t-117 -109q-115 -142 -205 -391t-97 -467q-13 -412 210 -412q173 0 325 274
q75 136 131.5 341t64.5 401t-37 296.5t-157 100.5zM96 526q0 165 68.5 332.5t185.5 295.5t264.5 202t307.5 74t283.5 -63.5t196.5 -189t73 -297.5t-68.5 -341t-186.5 -295q-246 -265 -579 -277q-239 0 -392 148.5t-153 410.5z" />
    <glyph glyph-name="Odieresis" unicode="&#xd6;" horiz-adv-x="1482" 
d="M1051 1683q0 59 40.5 101.5t96.5 42.5t96.5 -43t40.5 -101t-40.5 -100.5t-96.5 -42.5t-96.5 42t-40.5 101zM666 1683q0 59 40 101.5t96 42.5t97 -43t41 -101t-41 -100.5t-97 -42.5t-96 42t-40 101zM952 1405q-63 0 -118 -34t-117 -109q-115 -142 -205 -391t-97 -467
q-13 -412 210 -412q173 0 325 274q75 136 131.5 341t64.5 401t-37 296.5t-157 100.5zM96 526q0 165 68.5 332.5t185.5 295.5t264.5 202t307.5 74t283.5 -63.5t196.5 -189t73 -297.5t-68.5 -341t-186.5 -295q-246 -265 -579 -277q-239 0 -392 148.5t-153 410.5z" />
    <glyph glyph-name="multiply" unicode="&#xd7;" horiz-adv-x="1159" 
d="M143 150l383 378l-374 375l71 70l375 -373l369 373l63 -66l-373 -370l379 -377l-69 -72l-379 379l-379 -383z" />
    <glyph glyph-name="Oslash" unicode="&#xd8;" horiz-adv-x="1482" 
d="M625 -8q82 0 186 81t214 365t120 627l-719 -770q3 -87 18 -148q40 -155 181 -155zM1145 1110q-10 295 -193 295q-81 0 -184 -80.5t-195.5 -312.5t-128.5 -461q-13 -95 -20 -211zM96 506q0 207 78 384.5t204 295.5t268 181t270 63t226.5 -35.5t186.5 -120.5l209 213
l23 -23l-211 -213q55 -68 90 -166t35 -204q0 -375 -269 -656q-105 -110 -257.5 -184t-307.5 -74q-248 0 -403 158l-222 -223l-22 22l223 226q-121 149 -121 356z" />
    <glyph glyph-name="Ugrave" unicode="&#xd9;" horiz-adv-x="1579" 
d="M879 1792q0 46 32.5 79.5t84.5 33.5t88 -37t73 -133l100 -250l-12 -12l-241 157q-125 79 -125 162zM193 291q0 90 28 194l209 760q25 77 -33 107q-72 29 -133 32l6 15h744l-6 -15q-78 -4 -156 -24q-66 -20 -90 -105l-201 -729q-39 -137 -39 -244t61 -172t189 -65
q192 0 310 106.5t182 329.5l172 604q57 209 -2 256q-23 18 -87.5 29.5t-113.5 13.5l6 15h567l-6 -15q-152 -8 -196 -34t-71 -82t-60 -170l-179 -625q-74 -259 -204 -382.5t-375 -123.5q-244 0 -383 86t-139 238z" />
    <glyph glyph-name="Uacute" unicode="&#xda;" horiz-adv-x="1579" 
d="M1305 1903q43 0 75.5 -32t32.5 -73q0 -85 -115 -141l-378 -178l-11 12l211 287q91 125 185 125zM193 291q0 90 28 194l209 760q25 77 -33 107q-72 29 -133 32l6 15h744l-6 -15q-78 -4 -156 -24q-66 -20 -90 -105l-201 -729q-39 -137 -39 -244t61 -172t189 -65
q192 0 310 106.5t182 329.5l172 604q57 209 -2 256q-23 18 -87.5 29.5t-113.5 13.5l6 15h567l-6 -15q-152 -8 -196 -34t-71 -82t-60 -170l-179 -625q-74 -259 -204 -382.5t-375 -123.5q-244 0 -383 86t-139 238z" />
    <glyph glyph-name="Ucircumflex" unicode="&#xdb;" horiz-adv-x="1579" 
d="M1180 1903q55 0 69.5 -8.5t30.5 -53.5t57.5 -187.5t46.5 -158.5l-14 -6l-225 215l-367 -215l-12 10q76 88 165 198.5t121 148.5t52.5 47.5t75.5 9.5zM193 291q0 90 28 194l209 760q25 77 -33 107q-72 29 -133 32l6 15h744l-6 -15q-78 -4 -156 -24q-66 -20 -90 -105
l-201 -729q-39 -137 -39 -244t61 -172t189 -65q192 0 310 106.5t182 329.5l172 604q57 209 -2 256q-23 18 -87.5 29.5t-113.5 13.5l6 15h567l-6 -15q-152 -8 -196 -34t-71 -82t-60 -170l-179 -625q-74 -259 -204 -382.5t-375 -123.5q-244 0 -383 86t-139 238z" />
    <glyph glyph-name="Udieresis" unicode="&#xdc;" horiz-adv-x="1579" 
d="M1190 1683q0 59 40 101.5t96 42.5t97 -43t41 -101t-41 -100.5t-97 -42.5t-96 42t-40 101zM805 1683q0 59 40.5 101.5t96.5 42.5t96.5 -43t40.5 -101t-40.5 -100.5t-96.5 -42.5t-96.5 42t-40.5 101zM193 291q0 90 28 194l209 760q25 77 -33 107q-72 29 -133 32l6 15h744
l-6 -15q-78 -4 -156 -24q-66 -20 -90 -105l-201 -729q-39 -137 -39 -244t61 -172t189 -65q192 0 310 106.5t182 329.5l172 604q57 209 -2 256q-23 18 -87.5 29.5t-113.5 13.5l6 15h567l-6 -15q-152 -8 -196 -34t-71 -82t-60 -170l-179 -625q-74 -259 -204 -382.5
t-375 -123.5q-244 0 -383 86t-139 238z" />
    <glyph glyph-name="Yacute" unicode="&#xdd;" horiz-adv-x="1503" 
d="M1235 1903q43 0 75.5 -32t32.5 -73q0 -86 -114 -141l-379 -178l-10 12l211 287q91 125 184 125zM550 1423q132 0 261 -81.5t129 -321.5q0 -126 -27 -279h21q93 265 209 433q170 251 366 251q79 0 132 -47.5t53 -129.5t-50 -130.5t-115 -48.5t-104 43.5t-39 93.5
q0 102 82 166l-8 10q-228 -40 -358.5 -324.5t-163.5 -416.5l-125 -500q-17 -74 41 -100q15 -7 75.5 -17t90.5 -10l-4 -14h-762l4 14q105 6 145 19q66 23 84 100l131 533q17 68 17 236t-58.5 255.5t-158.5 87.5q-195 0 -273 -205l-18 7q57 166 174 271t249 105z" />
    <glyph glyph-name="Thorn" unicode="&#xde;" horiz-adv-x="1275" 
d="M604 367q157 0 255.5 123t98.5 319q0 268 -184 268h-51l-197 -710h78zM866 1104q424 0 424 -301q0 -144 -138.5 -303.5t-557.5 -159.5h-76l-53 -195q-21 -74 37 -100q16 -8 62.5 -19t74.5 -12l-2 -14h-741l2 14q102 6 149 21q66 23 88 100l309 1118q22 75 -32 103
q-50 21 -133 28l4 15h731l-2 -13q-122 -12 -146 -20q-68 -20 -88 -96l-47 -166h135z" />
    <glyph glyph-name="germandbls" unicode="&#xdf;" horiz-adv-x="1208" 
d="M-284 -465q22 0 41 3t37 12.5t31.5 18.5t28 29.5t25 36.5t53.5 119t190 661.5t150 567.5q74 266 250 412q155 133 408 133q136 0 220 -60t84 -147t-30.5 -153t-77.5 -105q-286 -75 -286 -209q0 -66 35.5 -120t72.5 -94t58 -62.5t25.5 -27.5t23 -26t23.5 -29t20 -28.5
t19.5 -32t14 -31t28.5 -119t-104.5 -206.5t-305.5 -107q-134 0 -212.5 56.5t-78.5 136.5t44 129t101 49t90 -35t33 -75t-25.5 -75t-78.5 -36q-22 -2 -50 1t-28 -20q0 -44 59.5 -78t136.5 -34t124.5 49.5t47.5 119.5t-39 121t-71 84t-57 59t-30.5 32.5t-25.5 30.5t-26 34.5
t-29 46.5t-23 116q0 153 256 290q66 54 101 156t37 194q4 184 -117 184q-190 0 -309 -436q-22 -83 -121 -467.5t-152 -554.5q-88 -283 -248 -414q-139 -118 -331 -118q-110 0 -170 52t-60 140q0 54 41 102t103 48t110.5 -34.5t48.5 -103.5q0 -46 -52.5 -94.5t-59.5 -58.5
q5 -33 27 -33z" />
    <glyph glyph-name="agrave" unicode="&#xe0;" horiz-adv-x="1124" 
d="M483 1350q0 46 33.5 79t85.5 33t87.5 -37t72.5 -133l100 -250l-12 -12l-242 158q-125 79 -125 162zM637 922q-34 0 -127.5 -143.5t-157 -440.5t14.5 -297q38 0 93 51.5t113 155.5l160 491q-11 90 -36.5 136.5t-59.5 46.5zM33 310q0 98 47.5 210t133.5 214t195 166.5
t207 64.5q48 0 88.5 -51t45.5 -113h6l49 151h295l-238 -690q-63 -182 -63 -216t32 -34q65 0 127.5 75t114.5 208l25 -8q-63 -156 -127.5 -233t-166.5 -77t-166.5 48.5t-64.5 152.5l-8 2q-58 -99 -135.5 -154t-135.5 -55t-99.5 19t-78.5 56t-60 101.5t-23 162.5z" />
    <glyph glyph-name="aacute" unicode="&#xe1;" horiz-adv-x="1124" 
d="M934 1460q43 0 75.5 -31.5t32.5 -72.5q0 -87 -114 -142l-379 -178l-10 13l211 286q91 125 184 125zM637 922q-34 0 -127.5 -143.5t-157 -440.5t14.5 -297q38 0 93 51.5t113 155.5l160 491q-11 90 -36.5 136.5t-59.5 46.5zM33 310q0 98 47.5 210t133.5 214t195 166.5
t207 64.5q48 0 88.5 -51t45.5 -113h6l49 151h295l-238 -690q-63 -182 -63 -216t32 -34q65 0 127.5 75t114.5 208l25 -8q-63 -156 -127.5 -233t-166.5 -77t-166.5 48.5t-64.5 152.5l-8 2q-58 -99 -135.5 -154t-135.5 -55t-99.5 19t-78.5 56t-60 101.5t-23 162.5z" />
    <glyph glyph-name="acircumflex" unicode="&#xe2;" horiz-adv-x="1124" 
d="M825 1460q55 0 70.5 -9t31.5 -53t57 -186.5t46 -158.5l-14 -6l-225 215l-367 -215l-12 10q120 139 284 346q32 39 53 48t76 9zM637 922q-34 0 -127.5 -143.5t-157 -440.5t14.5 -297q38 0 93 51.5t113 155.5l160 491q-11 90 -36.5 136.5t-59.5 46.5zM33 310q0 98 47.5 210
t133.5 214t195 166.5t207 64.5q48 0 88.5 -51t45.5 -113h6l49 151h295l-238 -690q-63 -182 -63 -216t32 -34q65 0 127.5 75t114.5 208l25 -8q-63 -156 -127.5 -233t-166.5 -77t-166.5 48.5t-64.5 152.5l-8 2q-58 -99 -135.5 -154t-135.5 -55t-99.5 19t-78.5 56t-60 101.5
t-23 162.5z" />
    <glyph glyph-name="atilde" unicode="&#xe3;" horiz-adv-x="1124" 
d="M1155 1372q-156 -305 -268 -305q-94 0 -181.5 78t-146.5 78q-95 0 -188 -142l-23 11q87 162 153.5 233.5t119.5 71.5q93 0 176.5 -77t138.5 -77q110 0 201 139zM637 922q-34 0 -127.5 -143.5t-157 -440.5t14.5 -297q38 0 93 51.5t113 155.5l160 491q-11 90 -36.5 136.5
t-59.5 46.5zM33 310q0 98 47.5 210t133.5 214t195 166.5t207 64.5q48 0 88.5 -51t45.5 -113h6l49 151h295l-238 -690q-63 -182 -63 -216t32 -34q65 0 127.5 75t114.5 208l25 -8q-63 -156 -127.5 -233t-166.5 -77t-166.5 48.5t-64.5 152.5l-8 2q-58 -99 -135.5 -154
t-135.5 -55t-99.5 19t-78.5 56t-60 101.5t-23 162.5z" />
    <glyph glyph-name="adieresis" unicode="&#xe4;" horiz-adv-x="1124" 
d="M807 1225q0 59 40.5 101t96.5 42t96.5 -42.5t40.5 -100.5t-40.5 -101t-96.5 -43t-96.5 42.5t-40.5 101.5zM422 1225q0 59 40 101t96 42t97 -42.5t41 -100.5t-41 -101t-97 -43t-96 42.5t-40 101.5zM637 922q-34 0 -127.5 -143.5t-157 -440.5t14.5 -297q38 0 93 51.5
t113 155.5l160 491q-11 90 -36.5 136.5t-59.5 46.5zM33 310q0 98 47.5 210t133.5 214t195 166.5t207 64.5q48 0 88.5 -51t45.5 -113h6l49 151h295l-238 -690q-63 -182 -63 -216t32 -34q65 0 127.5 75t114.5 208l25 -8q-63 -156 -127.5 -233t-166.5 -77t-166.5 48.5
t-64.5 152.5l-8 2q-58 -99 -135.5 -154t-135.5 -55t-99.5 19t-78.5 56t-60 101.5t-23 162.5z" />
    <glyph glyph-name="aring" unicode="&#xe5;" horiz-adv-x="1124" 
d="M732 1067q48 0 89.5 51t49.5 152q8 102 -20.5 138t-74.5 36t-81 -65t-41 -139t12 -123.5t66 -49.5zM779 1470q102 0 175 -61t65 -155t-87.5 -152t-183.5 -58t-176.5 56.5t-64.5 150.5t89 156.5t183 62.5zM637 922q-34 0 -127.5 -143.5t-157 -440.5t14.5 -297
q38 0 93 51.5t113 155.5l160 491q-11 90 -36.5 136.5t-59.5 46.5zM33 310q0 98 47.5 210t133.5 214t195 166.5t207 64.5q48 0 88.5 -51t45.5 -113h6l49 151h295l-238 -690q-63 -182 -63 -216t32 -34q65 0 127.5 75t114.5 208l25 -8q-63 -156 -127.5 -233t-166.5 -77
t-166.5 48.5t-64.5 152.5l-8 2q-58 -99 -135.5 -154t-135.5 -55t-99.5 19t-78.5 56t-60 101.5t-23 162.5z" />
    <glyph glyph-name="ae" unicode="&#xe6;" horiz-adv-x="1423" 
d="M1174 940q-55 0 -120 -143t-106 -328q123 22 187 120.5t73 224.5t-34 126zM369 41q36 0 91 51.5t113 155.5l160 491q-11 90 -36.5 136.5t-57.5 46.5t-82.5 -71t-104.5 -195t-90 -275.5t-32 -274.5q3 -65 39 -65zM33 318q0 106 62.5 235t156.5 222q192 190 364 190
q48 0 88.5 -51t45.5 -113h6l49 151h194l-24 -67q127 80 239 80t172 -46t60 -116q0 -135 -110 -225t-390 -132q-28 -150 -28 -260q0 -163 98 -163q203 0 356 282l23 -10q-171 -324 -417 -324t-301.5 109.5t-62.5 173.5h-6q-77 -149 -163 -216t-170 -67t-163 78.5t-79 268.5z
" />
    <glyph glyph-name="ccedilla" unicode="&#xe7;" horiz-adv-x="839" 
d="M23 295q0 175 113 361t251 247.5t237 61.5t167.5 -51.5t68.5 -131.5t-37 -130t-102 -50q-137 0 -137 119q0 53 52.5 93t133.5 52q-6 28 -45 53t-92 25t-109 -82t-98 -208q-90 -269 -90 -472q0 -164 94 -164q104 0 197 80t161 207l23 -10q-89 -171 -198 -247.5t-222 -76.5
q-37 0 -74 6l-20 -69q148 0 206 -41t58 -101t-19.5 -96.5t-79.5 -72.5t-168 -49t-247 -13l6 27q297 6 297 145q0 36 -28.5 50t-106.5 14l68 213q-114 24 -187 102t-73 209z" />
    <glyph glyph-name="egrave" unicode="&#xe8;" horiz-adv-x="849" 
d="M397 1350q0 46 33.5 79t85.5 33t87.5 -37t72.5 -133l100 -250l-12 -12l-242 158q-125 79 -125 162zM600 940q-55 0 -119.5 -142.5t-105.5 -328.5q123 22 187 120.5t73 224.5t-35 126zM409 903.5q141 61.5 242 61.5t161 -46t60 -116q0 -134 -109 -224.5t-390 -132.5
q-29 -156 -29 -260q0 -163 98 -163q110 0 199.5 78.5t157.5 203.5l22 -10q-171 -324 -422 -324q-190 0 -278 97t-88 249t117.5 338.5t258.5 248z" />
    <glyph glyph-name="eacute" unicode="&#xe9;" horiz-adv-x="849" 
d="M782 1460q43 0 76 -31.5t33 -72.5q0 -86 -115 -142l-379 -178l-10 13l211 286q91 125 184 125zM600 940q-55 0 -119.5 -142.5t-105.5 -328.5q123 22 187 120.5t73 224.5t-35 126zM409 903.5q141 61.5 242 61.5t161 -46t60 -116q0 -134 -109 -224.5t-390 -132.5
q-29 -156 -29 -260q0 -163 98 -163q110 0 199.5 78.5t157.5 203.5l22 -10q-171 -324 -422 -324q-190 0 -278 97t-88 249t117.5 338.5t258.5 248z" />
    <glyph glyph-name="ecircumflex" unicode="&#xea;" horiz-adv-x="849" 
d="M600 940q-55 0 -119.5 -142.5t-105.5 -328.5q123 22 187 120.5t73 224.5t-35 126zM713 1448q55 0 70 -8t31 -53t58 -189.5t46 -157.5l-15 -6l-225 215l-367 -215l-12 10q59 68 165 199t129 159t44 37t76 9zM409 903.5q141 61.5 242 61.5t161 -46t60 -116
q0 -134 -109 -224.5t-390 -132.5q-29 -156 -29 -260q0 -163 98 -163q110 0 199.5 78.5t157.5 203.5l22 -10q-171 -324 -422 -324q-190 0 -278 97t-88 249t117.5 338.5t258.5 248z" />
    <glyph glyph-name="edieresis" unicode="&#xeb;" horiz-adv-x="849" 
d="M674 1225q0 59 40 101t96 42t97 -42.5t41 -100.5t-41 -101t-97 -43t-96 42.5t-40 101.5zM600 940q-55 0 -119.5 -142.5t-105.5 -328.5q123 22 187 120.5t73 224.5t-35 126zM289 1225q0 59 40.5 101t96.5 42t96.5 -42.5t40.5 -100.5t-40.5 -101t-96.5 -43t-96.5 42.5
t-40.5 101.5zM409 903.5q141 61.5 242 61.5t161 -46t60 -116q0 -134 -109 -224.5t-390 -132.5q-29 -156 -29 -260q0 -163 98 -163q110 0 199.5 78.5t157.5 203.5l22 -10q-171 -324 -422 -324q-190 0 -278 97t-88 249t117.5 338.5t258.5 248z" />
    <glyph glyph-name="igrave" unicode="&#xec;" horiz-adv-x="684" 
d="M209 1350q0 46 33.5 79t85.5 33t87 -36.5t72 -133.5l101 -250l-13 -12l-241 158q-125 79 -125 162zM336 47q0 -33 41 -33q65 0 128.5 74.5t115.5 206.5l24 -8q-62 -152 -131.5 -231t-169.5 -79t-176 47t-76 134q0 58 35 149l145 369q68 170 68 212t-29 42
q-128 0 -239 -285l-25 8q97 239 169.5 275.5t125.5 36.5q104 0 175 -53.5t71 -141.5q0 -50 -53 -186l-125 -322q-10 -23 -21 -52.5t-18 -47t-10.5 -27.5t-8.5 -23t-7 -21t-5.5 -20.5t-3.5 -23.5z" />
    <glyph glyph-name="iacute" unicode="&#xed;" horiz-adv-x="684" 
d="M645 1460q43 0 76 -31.5t33 -72.5q0 -86 -115 -142l-379 -178l-10 13l211 286q91 125 184 125zM336 47q0 -33 41 -33q65 0 128.5 74.5t115.5 206.5l24 -8q-62 -152 -131.5 -231t-169.5 -79t-176 47t-76 134q0 58 35 149l145 369q68 170 68 212t-29 42q-128 0 -239 -285
l-25 8q97 239 169.5 275.5t125.5 36.5q104 0 175 -53.5t71 -141.5q0 -50 -53 -186l-125 -322q-10 -23 -21 -52.5t-18 -47t-10.5 -27.5t-8.5 -23t-7 -21t-5.5 -20.5t-3.5 -23.5z" />
    <glyph glyph-name="icircumflex" unicode="&#xee;" horiz-adv-x="684" 
d="M526 1460q55 0 70.5 -9t31.5 -53t57 -186.5t46 -158.5l-14 -6l-225 215l-367 -215l-12 10q120 139 284 346q32 39 53 48t76 9zM336 47q0 -33 41 -33q65 0 128.5 74.5t115.5 206.5l24 -8q-62 -152 -131.5 -231t-169.5 -79t-176 47t-76 134q0 58 35 149l145 369
q68 170 68 212t-29 42q-128 0 -239 -285l-25 8q97 239 169.5 275.5t125.5 36.5q104 0 175 -53.5t71 -141.5q0 -50 -53 -186l-125 -322q-10 -23 -21 -52.5t-18 -47t-10.5 -27.5t-8.5 -23t-7 -21t-5.5 -20.5t-3.5 -23.5z" />
    <glyph glyph-name="idieresis" unicode="&#xef;" horiz-adv-x="684" 
d="M530 1225q0 59 41 101t97 42t96.5 -42.5t40.5 -100.5t-40.5 -101t-96.5 -43t-97 42.5t-41 101.5zM145 1225q0 59 40.5 101t96.5 42t97 -42.5t41 -100.5t-41 -101t-97 -43t-96.5 42.5t-40.5 101.5zM336 47q0 -33 41 -33q65 0 128.5 74.5t115.5 206.5l24 -8
q-62 -152 -131.5 -231t-169.5 -79t-176 47t-76 134q0 58 35 149l145 369q68 170 68 212t-29 42q-128 0 -239 -285l-25 8q97 239 169.5 275.5t125.5 36.5q104 0 175 -53.5t71 -141.5q0 -50 -53 -186l-125 -322q-10 -23 -21 -52.5t-18 -47t-10.5 -27.5t-8.5 -23t-7 -21
t-5.5 -20.5t-3.5 -23.5z" />
    <glyph glyph-name="eth" unicode="&#xf0;" horiz-adv-x="1009" 
d="M373 -8q101 0 207 274q48 126 81 281t35 276t-56 121t-118 -86t-110 -227q-98 -275 -101 -518q-2 -121 62 -121zM33 348q0 98 42 209t121 205t189.5 150.5t235.5 56.5q89 0 116 -70h6q12 186 -61 383l-227 -152l-21 33l232 152q-53 120 -121 203l10 12q122 -75 203 -156
l194 123l19 -33l-191 -118q220 -263 209 -574q-3 -169 -57 -320t-144 -258q-187 -223 -421 -223q-131 0 -232.5 93t-101.5 284z" />
    <glyph glyph-name="ntilde" unicode="&#xf1;" horiz-adv-x="1202" 
d="M582 1223q-95 0 -189 -142l-22 11q90 165 154 235t118 70q93 0 177.5 -77t146.5 -77q99 0 192 139l19 -10q-115 -219 -176 -262t-104 -43q-82 0 -169.5 78t-146.5 78zM872 45q0 -33 51 -33t115 76t115 207l25 -8q-64 -157 -133.5 -233.5t-176.5 -76.5t-177 49.5
t-70 119.5t34 161l129 340q6 15 13.5 35t11.5 30.5t9.5 25t8.5 22.5t10 28t7 42q0 55 -69 55q-89 0 -202 -178l-233 -707h-297l229 676q8 24 38 110t30 114t-31 28q-126 0 -237 -283l-25 8q61 149 109 209t92.5 81.5t91.5 21.5q89 0 162 -46t73 -151l9 -2
q75 106 141.5 152.5t148.5 46.5t155 -66.5t73 -163.5q0 -48 -41 -151l-123 -322q-66 -171 -66 -217z" />
    <glyph glyph-name="ograve" unicode="&#xf2;" horiz-adv-x="1009" 
d="M473 1350q0 46 33.5 79t85.5 33t87.5 -37t72.5 -133l100 -250l-12 -12l-242 158q-125 79 -125 162zM373 -8q56 0 115.5 90t105.5 225q99 289 102 522q2 115 -55 115q-62 0 -126 -96.5t-116 -251.5q-85 -257 -88 -483q-2 -121 62 -121zM33 351q0 101 47.5 216t131.5 205
q180 193 435 193q145 0 237.5 -95.5t92.5 -275.5q1 -221 -165 -414q-80 -94 -195.5 -151.5t-247.5 -57.5t-234 93t-102 287z" />
    <glyph glyph-name="oacute" unicode="&#xf3;" horiz-adv-x="1009" 
d="M854 1460q43 0 76 -31.5t33 -72.5q0 -86 -115 -142l-379 -178l-10 13l211 286q91 125 184 125zM373 -8q56 0 115.5 90t105.5 225q99 289 102 522q2 115 -55 115q-62 0 -126 -96.5t-116 -251.5q-85 -257 -88 -483q-2 -121 62 -121zM33 351q0 101 47.5 216t131.5 205
q180 193 435 193q145 0 237.5 -95.5t92.5 -275.5q1 -221 -165 -414q-80 -94 -195.5 -151.5t-247.5 -57.5t-234 93t-102 287z" />
    <glyph glyph-name="ocircumflex" unicode="&#xf4;" horiz-adv-x="1009" 
d="M746 1448q55 0 70 -8t31 -53t57 -188t46 -159l-14 -6l-225 215l-367 -215l-12 10q59 67 161.5 194.5t128.5 159.5t47.5 41t76.5 9zM373 -8q56 0 115.5 90t105.5 225q99 289 102 522q2 115 -55 115q-62 0 -126 -96.5t-116 -251.5q-85 -257 -88 -483q-2 -121 62 -121z
M33 351q0 101 47.5 216t131.5 205q180 193 435 193q145 0 237.5 -95.5t92.5 -275.5q1 -221 -165 -414q-80 -94 -195.5 -151.5t-247.5 -57.5t-234 93t-102 287z" />
    <glyph glyph-name="otilde" unicode="&#xf5;" horiz-adv-x="1009" 
d="M373 -8q56 0 115.5 90t105.5 225q99 289 102 522q2 115 -55 115q-62 0 -126 -96.5t-116 -251.5q-85 -257 -88 -483q-2 -121 62 -121zM504 1210q-96 0 -189 -141l-22 10q90 165 154 235t118 70q92 0 177.5 -76.5t146.5 -76.5q99 0 192 139l19 -10q-115 -219 -176 -262
t-100 -43t-81 18t-116 77.5t-123 59.5zM33 351q0 101 47.5 216t131.5 205q180 193 435 193q145 0 237.5 -95.5t92.5 -275.5q1 -221 -165 -414q-80 -94 -195.5 -151.5t-247.5 -57.5t-234 93t-102 287z" />
    <glyph glyph-name="odieresis" unicode="&#xf6;" horiz-adv-x="1009" 
d="M745 1225q0 59 40.5 101t96.5 42t97 -42.5t41 -100.5t-41 -101t-97 -43t-96.5 42.5t-40.5 101.5zM360 1225q0 59 41 101t97 42t96.5 -42.5t40.5 -100.5t-40.5 -101t-96.5 -43t-97 42.5t-41 101.5zM373 -8q56 0 115.5 90t105.5 225q99 289 102 522q2 115 -55 115
q-62 0 -126 -96.5t-116 -251.5q-85 -257 -88 -483q-2 -121 62 -121zM33 351q0 101 47.5 216t131.5 205q180 193 435 193q145 0 237.5 -95.5t92.5 -275.5q1 -221 -165 -414q-80 -94 -195.5 -151.5t-247.5 -57.5t-234 93t-102 287z" />
    <glyph glyph-name="divide" unicode="&#xf7;" horiz-adv-x="1159" 
d="M461 824q0 52 36 88t89 36t89 -36t36 -88t-36.5 -88t-88.5 -36t-88.5 36t-36.5 88zM461 238q0 52 36 88t89 36t89 -36t36 -88t-36.5 -88.5t-88.5 -36.5t-88.5 36.5t-36.5 88.5zM100 481v101h971v-101h-971z" />
    <glyph glyph-name="oslash" unicode="&#xf8;" horiz-adv-x="1009" 
d="M641 944q-53 0 -140.5 -116t-152.5 -418q-15 -75 -24 -146l364 449q31 231 -47 231zM373 -8q49 0 132 112.5t148 405.5q18 76 27 154l-363 -445q-29 -227 56 -227zM33 340q0 117 51.5 236t142.5 210q179 179 420 179q127 0 213 -74l98 110l19 -20l-96 -109
q96 -99 96 -278q0 -128 -60 -255.5t-165 -219.5q-168 -148 -385 -148q-125 0 -215 78l-103 -115l-18 17l102 115q-100 100 -100 274z" />
    <glyph glyph-name="ugrave" unicode="&#xf9;" horiz-adv-x="1198" 
d="M514 1350q0 46 33 79t85 33t88 -37t73 -133l100 -250l-12 -12l-242 158q-125 79 -125 162zM309 928q-125 0 -237 -285l-23 10q58 146 106.5 207t93.5 83t120 22t144 -51t69 -131t-29 -152l-141 -361q-56 -145 -56 -175q0 -60 54 -60t114.5 53t108.5 139l223 707h299
l-227 -686q-4 -14 -12.5 -38.5t-12.5 -36.5t-17.5 -54.5t-13.5 -73.5t37 -31q132 0 242 281l25 -8q-63 -156 -128 -233t-162 -77t-175 43.5t-78 147.5l-8 2q-66 -94 -129.5 -145.5t-157.5 -51.5t-164 68.5t-70 161.5q0 38 41 151l125 322q72 186 72 219t-33 33z" />
    <glyph glyph-name="uacute" unicode="&#xfa;" horiz-adv-x="1198" 
d="M963 1460q43 0 75.5 -31.5t32.5 -72.5q0 -86 -115 -142l-378 -178l-11 13l211 286q91 125 185 125zM309 928q-125 0 -237 -285l-23 10q58 146 106.5 207t93.5 83t120 22t144 -51t69 -131t-29 -152l-141 -361q-56 -145 -56 -175q0 -60 54 -60t114.5 53t108.5 139l223 707
h299l-227 -686q-4 -14 -12.5 -38.5t-12.5 -36.5t-17.5 -54.5t-13.5 -73.5t37 -31q132 0 242 281l25 -8q-63 -156 -128 -233t-162 -77t-175 43.5t-78 147.5l-8 2q-66 -94 -129.5 -145.5t-157.5 -51.5t-164 68.5t-70 161.5q0 38 41 151l125 322q72 186 72 219t-33 33z" />
    <glyph glyph-name="ucircumflex" unicode="&#xfb;" horiz-adv-x="1198" 
d="M844 1460q55 0 70.5 -8t31.5 -53t57.5 -189.5t45.5 -156.5l-15 -6l-225 215l-367 -215l-12 10q76 88 165 198.5t121 148.5t52.5 47t75.5 9zM309 928q-125 0 -237 -285l-23 10q58 146 106.5 207t93.5 83t120 22t144 -51t69 -131t-29 -152l-141 -361q-56 -145 -56 -175
q0 -60 54 -60t114.5 53t108.5 139l223 707h299l-227 -686q-4 -14 -12.5 -38.5t-12.5 -36.5t-17.5 -54.5t-13.5 -73.5t37 -31q132 0 242 281l25 -8q-63 -156 -128 -233t-162 -77t-175 43.5t-78 147.5l-8 2q-66 -94 -129.5 -145.5t-157.5 -51.5t-164 68.5t-70 161.5
q0 38 41 151l125 322q72 186 72 219t-33 33z" />
    <glyph glyph-name="udieresis" unicode="&#xfc;" horiz-adv-x="1198" 
d="M823 1225q0 59 40.5 101t96.5 42t97 -42.5t41 -100.5t-41 -101t-97 -43t-96.5 42.5t-40.5 101.5zM438 1225q0 59 40 101t96 42t97.5 -42.5t41.5 -100.5t-41.5 -101t-97.5 -43t-96 42.5t-40 101.5zM309 928q-125 0 -237 -285l-23 10q58 146 106.5 207t93.5 83t120 22
t144 -51t69 -131t-29 -152l-141 -361q-56 -145 -56 -175q0 -60 54 -60t114.5 53t108.5 139l223 707h299l-227 -686q-4 -14 -12.5 -38.5t-12.5 -36.5t-17.5 -54.5t-13.5 -73.5t37 -31q132 0 242 281l25 -8q-63 -156 -128 -233t-162 -77t-175 43.5t-78 147.5l-8 2
q-66 -94 -129.5 -145.5t-157.5 -51.5t-164 68.5t-70 161.5q0 38 41 151l125 322q72 186 72 219t-33 33z" />
    <glyph glyph-name="yacute" unicode="&#xfd;" horiz-adv-x="1120" 
d="M975 1460q43 0 75.5 -31.5t32.5 -72.5q0 -87 -114 -142l-379 -178l-10 13l211 286q91 125 184 125zM-12 -389q18 -74 159 -74q162 0 267 143t211 470l-9 2q-66 -85 -128.5 -132t-155.5 -47t-160.5 69t-67.5 163q0 55 41 153l125 318q72 186 72 219t-33 33
q-125 0 -237 -285l-23 10q94 239 169.5 275.5t151.5 36.5t144 -51.5t68 -129.5t-29 -153l-133 -336q-64 -170 -64 -201q0 -59 64 -59q44 0 104 53.5t117 144.5l219 701h293l-223 -717q-146 -468 -366.5 -587t-428.5 -119q-109 0 -167 54.5t-58 144.5t56.5 143t125.5 53
t104 -38.5t35 -82.5q0 -101 -67 -133q-27 -14 -93.5 -18t-82.5 -23z" />
    <glyph glyph-name="thorn" unicode="&#xfe;" horiz-adv-x="1079" 
d="M432 27q43 0 97.5 78.5t104.5 204.5t83 266.5t33 244.5q0 64 -45 64t-88 -39.5t-111 -128.5l-178 -563q32 -127 104 -127zM422 1409q0 55 -82 66q-35 4 -131 8v16l553 21l-182 -568q-28 -96 -70 -182l6 -4q68 92 129 145.5t170 53.5t170.5 -89t61.5 -221
q0 -251 -170 -456q-87 -104 -195.5 -165t-210.5 -61q-59 0 -99.5 40t-52.5 91h-8l-106 -352q-29 -91 -29 -137q0 -55 84 -66q40 -5 121 -8l-6 -20h-688l6 18q107 -1 139 37q26 29 34.5 48.5t15.5 34t10 23.5l13 40q11 33 11 34l475 1516q31 94 31 137z" />
    <glyph glyph-name="ydieresis" unicode="&#xff;" horiz-adv-x="1120" 
d="M834 1225q0 59 40 101t96 42t97 -42.5t41 -100.5t-41 -101t-97 -43t-96 42.5t-40 101.5zM449 1225q0 59 40.5 101t96.5 42t96.5 -42.5t40.5 -100.5t-40.5 -101t-96.5 -43t-96.5 42.5t-40.5 101.5zM-12 -389q18 -74 159 -74q162 0 267 143t211 470l-9 2
q-66 -85 -128.5 -132t-155.5 -47t-160.5 69t-67.5 163q0 55 41 153l125 318q72 186 72 219t-33 33q-125 0 -237 -285l-23 10q94 239 169.5 275.5t151.5 36.5t144 -51.5t68 -129.5t-29 -153l-133 -336q-64 -170 -64 -201q0 -59 64 -59q44 0 104 53.5t117 144.5l219 701h293
l-223 -717q-146 -468 -366.5 -587t-428.5 -119q-109 0 -167 54.5t-58 144.5t56.5 143t125.5 53t104 -38.5t35 -82.5q0 -101 -67 -133q-27 -14 -93.5 -18t-82.5 -23z" />
    <glyph glyph-name="dotlessi" unicode="&#x131;" horiz-adv-x="684" 
d="M336 47q0 -33 41 -33q65 0 128.5 74.5t115.5 206.5l24 -8q-62 -152 -131.5 -231t-169.5 -79t-176 47t-76 134q0 58 35 149l145 369q68 170 68 212t-29 42q-128 0 -239 -285l-25 8q97 239 169.5 275.5t125.5 36.5q104 0 175 -53.5t71 -141.5q0 -50 -53 -186l-125 -322
q-10 -23 -21 -52.5t-18 -47t-10.5 -27.5t-8.5 -23t-7 -21t-5.5 -20.5t-3.5 -23.5z" />
    <glyph glyph-name="Lslash" unicode="&#x141;" horiz-adv-x="1288" 
d="M463 97q0 -45 46.5 -58.5t174.5 -13.5t184.5 15.5t102.5 51.5q104 83 268 301h25l-134 -393h-1234l4 14q84 0 150 22t87 109l131 471l-192 -63l-10 43l217 70l163 587q20 79 -32 103t-135 28l4 15h743l-4 -15q-94 -4 -158 -24t-88 -103l-137 -493l309 102l10 -45
q-222 -73 -335 -110l-138 -494q-22 -75 -22 -120z" />
    <glyph glyph-name="lslash" unicode="&#x142;" horiz-adv-x="622" 
d="M410 1406q0 52 -82 62q-49 6 -129 9v22l559 21l-232 -721l158 53l4 -41l-176 -59l-158 -494q-63 -196 -63 -215q0 -27 52 -27t115.5 74t114.5 205l25 -8q-95 -234 -172 -272t-134 -38t-113 18.5t-97 61t-41 91.5t16.5 97t20.5 62l110 348l-149 -51l-6 41l172 57l176 564
q29 88 29 140z" />
    <glyph glyph-name="OE" unicode="&#x152;" horiz-adv-x="2101" 
d="M1007 1376q-107 0 -260 -85.5t-273.5 -539t-15 -591t225.5 -137.5t154.5 18.5t49.5 29.5t32.5 52t29.5 88q12 48 12.5 49.5t1 4.5t1.5 5l235 893q40 153 -23 183t-170 30zM1012 1399h1186l-97 -346h-20q-17 125 -73.5 215t-118.5 98t-189 8h-117l-178 -637h147
q53 0 105.5 25.5t84.5 57.5t72 89.5t54 94.5h20l-159 -570h-17q17 105 -26 203q-37 76 -148 76h-139l-137 -496q-23 -79 -23 -111q0 -54 46.5 -67.5t174.5 -13.5t184.5 15.5t102.5 51.5q104 83 268 301h25l-133 -393h-1227q-307 0 -447.5 154.5t-138.5 365.5q1 210 90.5 390
t249.5 302q115 89 266.5 138t311.5 49z" />
    <glyph glyph-name="oe" unicode="&#x153;" horiz-adv-x="1419" 
d="M1169 940q-55 0 -119.5 -142.5t-105.5 -328.5q123 22 187 120.5t73 224.5t-35 126zM373 -8q103 0 210 289t113 548q2 115 -56 115t-117 -84t-109 -221q-100 -274 -103 -526q-2 -121 62 -121zM33 350q0 100 45.5 211t127.5 203t196 146.5t219 54.5t163.5 -31t106.5 -105
q148 136 338 136q93 0 153 -46t60 -116q0 -135 -110 -225t-390 -132q-29 -156 -29 -260q0 -163 99 -163q203 0 356 282l23 -10q-171 -324 -422 -324q-182 0 -277 119q-144 -119 -325 -119q-131 0 -232.5 93.5t-101.5 285.5z" />
    <glyph glyph-name="Scaron" unicode="&#x160;" horiz-adv-x="1161" 
d="M768 1509q-55 0 -69.5 8.5t-31.5 53.5t-58.5 189.5t-45.5 156.5l15 6l225 -215l366 215l13 -10q-76 -88 -165 -198.5t-121 -148.5t-52.5 -47.5t-75.5 -9.5zM462 -4q154 0 234 81.5t80 215.5q0 96 -57 164.5t-211 152.5t-220.5 172t-66.5 214t71.5 221.5t199.5 151.5
t252 56t231.5 -31.5t146.5 -70.5l117 96h23l-117 -465h-19q-18 181 -104.5 315t-247.5 134q-107 0 -180.5 -77t-73.5 -183t46 -169t206 -148t236.5 -177.5t76.5 -220.5t-76.5 -233t-214.5 -163.5t-280 -58.5t-268.5 32.5t-171.5 70.5l-115 -96h-22l114 479h21
q32 -219 134 -341t256 -122z" />
    <glyph glyph-name="scaron" unicode="&#x161;" horiz-adv-x="866" 
d="M553 1067q-55 0 -70 8t-31 53t-58 189.5t-46 157.5l14 6l226 -215l366 215l13 -11q-76 -88 -164.5 -198.5t-120.5 -148.5t-53 -47t-76 -9zM12 192q0 88 48 144.5t118 56.5t101.5 -38.5t31.5 -84.5t-29.5 -82t-95.5 -36q-13 0 -66.5 6t-53.5 -17q0 -50 73.5 -94.5
t168.5 -44.5t146.5 45.5t51.5 131.5t-118.5 185.5t-172 166t-53.5 155.5q0 118 109.5 198.5t289.5 80.5q119 0 198 -58.5t79 -141.5t-35 -130t-95 -47t-98.5 27t-38.5 75t31.5 75.5t69 38.5t71 20t35.5 16q-4 27 -64.5 60.5t-129.5 33.5t-109.5 -43.5t-40.5 -109.5
t44.5 -118t74.5 -76t33 -26.5t26 -22.5q56 -48 109 -115t53 -173q0 -107 -118.5 -193t-319.5 -86q-146 0 -235 66.5t-89 154.5z" />
    <glyph glyph-name="Ydieresis" unicode="&#x178;" horiz-adv-x="1503" 
d="M1096 1669q0 59 40 101t96 42t97 -42.5t41 -100.5t-41 -100.5t-97 -42.5t-96 42t-40 101zM711 1669q0 59 40.5 101t96.5 42t96.5 -42.5t40.5 -100.5t-40.5 -100.5t-96.5 -42.5t-96.5 42t-40.5 101zM550 1423q132 0 261 -81.5t129 -321.5q0 -126 -27 -279h21
q93 265 209 433q170 251 366 251q79 0 132 -47.5t53 -129.5t-50 -130.5t-115 -48.5t-104 43.5t-39 93.5q0 102 82 166l-8 10q-228 -40 -358.5 -324.5t-163.5 -416.5l-125 -500q-17 -74 41 -100q15 -7 75.5 -17t90.5 -10l-4 -14h-762l4 14q105 6 145 19q66 23 84 100l131 533
q17 68 17 236t-58.5 255.5t-158.5 87.5q-195 0 -273 -205l-18 7q57 166 174 271t249 105z" />
    <glyph glyph-name="Zcaron" unicode="&#x17d;" horiz-adv-x="1261" 
d="M856 1509q-55 0 -69.5 8.5t-31.5 53.5t-58.5 189.5t-45.5 156.5l15 6l225 -215l366 215l13 -10q-76 -88 -165 -198.5t-121 -148.5t-52.5 -47.5t-75.5 -9.5zM840 1374q-124 0 -186 -12t-186.5 -103.5t-221.5 -236.5h-23l139 377h1086l-6 -19l-1161 -1355h231q246 0 329 53
t191 162.5t152 179.5h22l-149 -420h-1194l4 16l1165 1358h-192z" />
    <glyph glyph-name="zcaron" unicode="&#x17e;" horiz-adv-x="907" 
d="M571 1067q-55 0 -70 8t-31 53t-57 188t-46 159l14 6l225 -215l367 215l12 -11q-76 -88 -164.5 -198.5t-120.5 -148.5t-53 -47t-76 -9zM170 80q0 -107 -121 -107q-30 0 -56 23.5t-26 61.5t20.5 66t78.5 74t162.5 120.5t238 165t182.5 124.5l-4 10q-47 0 -186.5 30
t-175.5 30q-64 0 -64 -41q0 -21 35.5 -48t85.5 -42l-10 -17q-203 68 -203 176t55.5 181.5t122.5 73.5t117.5 -32.5t85.5 -79t64.5 -93t54 -79t41.5 -32.5q46 0 69 58.5t23 124.5q0 135 92 135q104 0 104 -86q0 -71 -86 -142q-54 -44 -286 -203t-299 -208l2 -13
q49 0 177 -29.5t184 -29.5t82 15t26 37t-28.5 44t-68.5 29l7 18q163 -35 163 -159q0 -103 -54 -182t-150 -79q-54 0 -101.5 32t-80 78t-79.5 124t-83 80q-48 -13 -79.5 -79t-31.5 -130z" />
    <glyph glyph-name="florin" unicode="&#x192;" horiz-adv-x="1093" 
d="M1081 952q-125 0 -125 113q0 78 101 162q-7 12 -33 22.5t-59 10.5q-98 0 -167.5 -108.5t-135.5 -340.5l-37 -129h258l-13 -33h-254q-120 -407 -157 -512q-82 -244 -277 -391q-178 -141 -387 -141q-91 0 -151 41.5t-60 112.5t41 117t103 46q122 0 122 -121
q0 -43 -33.5 -86t-74.5 -63q9 -31 61 -31q100 0 182 112t153 322t119 382t60 212h-217l11 33h215q49 168 110.5 277.5t157.5 189.5q157 129 379 129q107 0 176.5 -48t69.5 -138q0 -56 -38.5 -98t-99.5 -42z" />
    <glyph glyph-name="circumflex" unicode="&#x2c6;" 
d="M768 1460q55 0 70.5 -8t31.5 -53t57.5 -189.5t45.5 -156.5l-15 -6l-225 215l-366 -215l-13 10q76 88 165 198.5t121 148.5t52.5 47t75.5 9z" />
    <glyph glyph-name="caron" unicode="&#x2c7;" 
d="M659 1067q-55 0 -70 8t-31 53t-57 188t-46 159l14 6l225 -215l367 215l12 -11q-76 -88 -164.5 -198.5t-120.5 -148.5t-53 -47t-76 -9z" />
    <glyph glyph-name="breve" unicode="&#x2d8;" 
d="M696 1264q100 0 194 43t159 133l24 -6q-114 -221 -215.5 -296t-193.5 -75q-216 0 -226 371l23 6q22 -103 78.5 -139.5t156.5 -36.5z" />
    <glyph glyph-name="dotaccent" unicode="&#x2d9;" 
d="M565 1236q0 64 44.5 109.5t110.5 45.5t111.5 -43.5t45.5 -105.5t-46 -110.5t-111 -48.5t-110 44.5t-45 108.5z" />
    <glyph glyph-name="ring" unicode="&#x2da;" 
d="M676 1067q48 0 90 51t50 152q8 102 -20 138t-74 36t-81.5 -65t-41.5 -139t11.5 -123.5t65.5 -49.5zM724 1470q102 0 175 -61t65 -154t-88 -152t-184 -59t-176 56.5t-64 150.5t89 156.5t183 62.5z" />
    <glyph glyph-name="ogonek" unicode="&#x2db;" 
d="M264 -298q0 -58 44 -94t122 -42l-8 -29q-190 2 -280.5 33.5t-90.5 112.5t111 162.5t268 154.5h39q-92 -72 -148.5 -156t-56.5 -142z" />
    <glyph glyph-name="tilde" unicode="&#x2dc;" 
d="M500 1223q-95 0 -189 -142l-22 11q90 165 154 235t118 70q93 0 177.5 -77t146.5 -77q99 0 192 139l19 -10q-115 -219 -176 -262t-104 -43q-82 0 -169.5 78t-146.5 78z" />
    <glyph glyph-name="hungarumlaut" unicode="&#x2dd;" 
d="M1032 1479q45 0 71.5 -25t24.5 -66t-35 -85t-100 -78l-334 -172l-12 14l209 289q88 123 176 123zM657 1479q45 0 72 -25t25 -66t-35 -85t-101 -78l-333 -172l-13 14l209 289q88 123 176 123z" />
    <glyph glyph-name="pi" unicode="&#x3c0;" horiz-adv-x="1341" 
d="M938 86q0 -47 51 -47q127 0 230 256l20 -8q-58 -145 -113.5 -206t-107.5 -82.5t-143 -21.5t-159.5 45.5t-68.5 119.5t35 165l217 627h-264q-116 -338 -309 -688q-95 -169 -129 -201q-59 -53 -129 -53t-88 22t12 65t91.5 110t86.5 96q206 243 356 649h-34q-48 0 -88 -12
t-139.5 -114.5t-151.5 -172.5h-17l111 319h1239l-6 -16q-125 -4 -221 -4l-220 -641q-61 -177 -61 -207z" />
    <glyph glyph-name="endash" unicode="&#x2013;" horiz-adv-x="1114" 
d="M72 440l45 160h909l-45 -160h-909z" />
    <glyph glyph-name="emdash" unicode="&#x2014;" horiz-adv-x="1810" 
d="M72 440l45 160h1605l-45 -160h-1605z" />
    <glyph glyph-name="quoteleft" unicode="&#x2018;" horiz-adv-x="460" 
d="M240 1116q0 106 98.5 208t253.5 183l10 -22q-95 -53 -162.5 -125t-81.5 -150h68q86 0 127 -37t41 -101t-51.5 -116.5t-128.5 -52.5t-125.5 53.5t-48.5 159.5z" />
    <glyph glyph-name="quoteright" unicode="&#x2019;" horiz-adv-x="460" 
d="M459 1202q-86 0 -127 37t-41 101t51.5 116.5t128.5 52.5t125.5 -52.5t48.5 -158.5t-98.5 -209t-253.5 -184l-10 23q95 53 162 124.5t81 149.5h-67z" />
    <glyph glyph-name="quotesinglbase" unicode="&#x201a;" horiz-adv-x="483" 
d="M182 0q-86 0 -127 37t-41 101t52 116.5t129 52.5t125.5 -53.5t48.5 -159.5t-98.5 -208t-254.5 -183l-10 23q96 53 163 124.5t81 149.5h-68z" />
    <glyph glyph-name="quotedblleft" unicode="&#x201c;" horiz-adv-x="866" 
d="M645 1116q0 106 98.5 208t253.5 183l11 -22q-95 -53 -162.5 -125t-81.5 -150h67q86 0 127 -37t41 -101t-51.5 -116.5t-128.5 -52.5t-125.5 53.5t-48.5 159.5zM240 1116q0 106 98.5 208t253.5 183l10 -22q-95 -53 -162.5 -125t-81.5 -150h68q86 0 127 -37t41 -101
t-51.5 -116.5t-128.5 -52.5t-125.5 53.5t-48.5 159.5z" />
    <glyph glyph-name="quotedblright" unicode="&#x201d;" horiz-adv-x="866" 
d="M864 1202q-86 0 -127 37t-41 101t52 116.5t129 52.5t125.5 -52.5t48.5 -158.5t-99 -209t-254 -184l-10 23q96 53 163 124.5t81 149.5h-68zM459 1202q-86 0 -127 37t-41 101t51.5 116.5t128.5 52.5t125.5 -52.5t48.5 -158.5t-98.5 -209t-253.5 -184l-10 23
q95 53 162 124.5t81 149.5h-67z" />
    <glyph glyph-name="quotedblbase" unicode="&#x201e;" horiz-adv-x="888" 
d="M588 0q-86 0 -127 37t-41 101t51.5 116.5t128.5 52.5t125.5 -53.5t48.5 -159.5t-98.5 -208t-253.5 -183l-10 23q95 53 162 124.5t81 149.5h-67zM182 0q-86 0 -127 37t-41 101t52 116.5t129 52.5t125.5 -53.5t48.5 -159.5t-98.5 -208t-254.5 -183l-10 23q96 53 163 124.5
t81 149.5h-68z" />
    <glyph glyph-name="dagger" unicode="&#x2020;" horiz-adv-x="870" 
d="M195 1039.5q-19 35.5 -9 76.5t38 60.5t56 11.5q61 -16 58 -96q10 1 50.5 10t80.5 6q50 -11 72 -53q3 38 -6.5 147.5t2.5 143.5t42.5 58t71.5 14t55.5 -46.5t3.5 -78.5t-70.5 -124t-76.5 -120q67 33 106.5 4.5t61.5 -48t29 -24.5q17 31 44.5 45t56.5 6t42 -35.5t3 -68.5
t-46 -60.5t-82 -5.5q-55 13 -82 91t-40 81q-12 3 -19.5 -8t-123.5 -318t-175 -491l-14 4q29 137 80.5 450t59.5 361t-11 55q-4 0 -5.5 0.5t-6 -2t-6.5 -3t-7.5 -4.5t-8 -6.5t-9 -7t-9.5 -7.5q-87 -73 -137 -63t-69 45.5z" />
    <glyph glyph-name="daggerdbl" unicode="&#x2021;" horiz-adv-x="870" 
d="M245.5 1186.5q-16.5 32.5 -5.5 66.5t38.5 53t55.5 13q62 -15 59 -105q85 8 125.5 -22t52.5 -47q1 19 -18 89t-9 112t41 62.5t69 10.5t55 -43.5t7 -69.5t-36.5 -66t-53.5 -55.5t-36 -43.5q60 28 111.5 9t76.5 -44q17 38 46 54t59 7t43 -39t4 -64t-40 -53t-63 -9
q-54 17 -73.5 68t-51.5 60q-15 4 -30.5 -13.5t-87.5 -153.5q-72 -137 -101 -203l-14 4q18 211 18 340q9 82 -19 90t-79 -24t-89 -24t-54.5 40.5zM9 334q-12 30 -3 64t39 54t63 12q54 -14 74.5 -68.5t44.5 -61.5q23 -6 37 10t78 136t111 225l14 -7q-6 -71 -13 -226
t-3.5 -177.5t25.5 -28.5t74.5 27t91.5 25t52 -40t3 -68t-39.5 -55t-59.5 -10q-59 15 -53 103q-53 -6 -81 2t-57.5 28.5t-41.5 38.5q-1 -19 19 -87.5t10 -110.5t-42.5 -64t-70.5 -12t-54.5 43.5t-6.5 69.5t36.5 66.5t54.5 56.5t37 43q-65 -28 -107.5 -12.5t-53 23.5t-19 14.5
t-10.5 8.5q-17 -36 -47 -52t-60 -8t-42 38z" />
    <glyph glyph-name="bullet" unicode="&#x2022;" horiz-adv-x="813" 
d="M184 666q0 109 75.5 185.5t184.5 76.5t186 -77t77 -185t-77 -184t-186 -76t-184.5 75.5t-75.5 184.5z" />
    <glyph glyph-name="ellipsis" unicode="&#x2026;" horiz-adv-x="1804" 
d="M1286 146q0 72 51 122.5t123 50.5t122 -50.5t50 -122.5t-50 -121.5t-122 -49.5t-123 49.5t-51 121.5zM670 146q0 72 51 122.5t123 50.5t122 -50.5t50 -122.5t-50 -121.5t-122 -49.5t-123 49.5t-51 121.5zM53 146q0 72 51 122.5t123 50.5t122 -50.5t50 -122.5t-50 -121.5
t-122 -49.5t-123 49.5t-51 121.5z" />
    <glyph glyph-name="perthousand" unicode="&#x2030;" horiz-adv-x="2557" 
d="M2005 -8q66 0 127 92t93.5 211.5t30.5 197.5q-5 152 -104 152q-58 0 -107.5 -54.5t-93.5 -175t-48 -255.5q-4 -168 102 -168zM2152 668q138 0 225.5 -73t84.5 -197t-70.5 -222.5t-172.5 -152.5t-231 -54t-208.5 72.5t-79.5 194.5q3 173 137.5 302.5t314.5 129.5zM1163 -6
q67 0 128.5 92t94 211t29.5 197q-6 153 -104 153q-58 0 -107 -54.5t-94 -175t-49 -255.5q-4 -168 102 -168zM1322 668q128 0 214.5 -72t83.5 -195t-70 -222t-172 -153.5t-231 -54.5t-207.5 72.5t-79.5 190.5t63.5 216.5t166 158t232.5 59.5zM426 596q66 0 127 92t93 211.5
t30 197.5q-5 152 -103 152q-58 0 -107 -54.5t-94.5 -177.5t-49.5 -253q-7 -168 104 -168zM186 -174l1309 1585l31 -25l-1309 -1583zM121 836q0 118 61.5 216.5t165.5 158t233 59.5t216 -72t84 -196t-70.5 -222.5t-172 -152.5t-229.5 -54t-206.5 72.5t-81.5 190.5z" />
    <glyph glyph-name="guilsinglleft" unicode="&#x2039;" horiz-adv-x="720" 
d="M80 402q-4 14 6 54t22.5 55.5t47.5 37.5q478 288 563 338l8 -10l-387 -420l158 -418l-13 -8q-75 62 -210 185.5t-163 147.5t-32 38z" />
    <glyph glyph-name="guilsinglright" unicode="&#x203a;" horiz-adv-x="720" 
d="M-12 41l391 420l-162 418l14 8q107 -89 377 -338q23 -22 28 -36t-5 -54t-23.5 -55.5t-52.5 -36.5l-557 -336z" />
    <glyph glyph-name="fraction" unicode="&#x2044;" horiz-adv-x="667" 
d="M-496 -391l1559 1931l41 -29l-1561 -1931z" />
    <glyph glyph-name="Euro" unicode="&#x20ac;" horiz-adv-x="1228" 
d="M980 1270q158 0 244.5 -65.5t86.5 -155.5t-49.5 -151.5t-126.5 -61.5q-48 0 -74.5 25t-26.5 61q0 64 58 111.5t75 99.5q5 44 -45.5 80t-136.5 36q-131 0 -243 -141t-193 -389h438l-8 -31h-440q-32 -101 -41 -168h379l-5 -31h-380q-32 -178 1.5 -273.5t84.5 -131
t127 -35.5q218 0 409 254l16 -10q-218 -322 -524 -322q-230 0 -347.5 139.5t-88.5 378.5h-145l6 31h145q8 66 41 168h-137l6 31h143q60 155 172 279t266.5 198t312.5 74z" />
    <glyph glyph-name="copyrightsound" unicode="&#x2117;" horiz-adv-x="1937" 
d="M922 473h45q149 0 172.5 99.5t23.5 153.5t-15 105.5t-55 90.5t-100 39h-71v-488zM530 979h545q153 0 240.5 -61t87.5 -166q0 -141 -107 -219t-282 -78h-92v-310q0 -48 43 -61q14 -5 66 -12.5t83 -8.5v-12h-577v12q72 3 121 20t49 62v734q0 50 -48 63q-88 23 -129 25v12z
M135 512q0 -168 63.5 -320t171.5 -262.5t258 -175.5t316 -65t317 65t259.5 175.5t172.5 262.5t64 320t-64 319.5t-172.5 261.5t-259.5 175t-317 65t-316 -65t-258 -175t-171.5 -261.5t-63.5 -319.5zM57 514q0 178 70.5 341t190 281t284.5 188.5t345 70.5t344 -70.5
t283 -188.5t190 -281t71 -341t-71 -342.5t-190 -283t-282.5 -189t-343.5 -70.5t-345 70.5t-284.5 189t-190.5 283t-71 342.5z" />
    <glyph glyph-name="trademark" unicode="&#x2122;" horiz-adv-x="1447" 
d="M1212 899q97 0 97 49v371h-13l-180 -426h-16l-164 416h-12v-293q0 -77 18 -92t51.5 -20t34.5 -5v-12h-233v12q62 10 81 24t19 95v282q0 84 -94 84v15h215l139 -350l117 282q12 36 16 68h219v-15q-21 0 -63 -12q-21 -9 -21 -35v-389q0 -26 21 -35q10 -6 65 -14v-12h-297
v12zM360 899q93 0 93 43v438h-31q-42 0 -62 -2t-51 -51.5t-39 -79.5h-10v152h498v-152h-10q-11 33 -40 81t-49 50t-61 2h-29v-434q0 -25 23 -35l65 -12v-12h-297v12z" />
    <glyph glyph-name="Omega" unicode="&#x2126;" horiz-adv-x="1556" 
d="M920 1432q160 0 272 -43t186 -120.5t104.5 -192.5t4.5 -251q-69 -359 -553 -577h315q106 0 224 192l18 -4l-201 -436h-524l-2 119q88 71 152 153t122 223t84 293t29 247.5t-12 184t-65.5 139t-125.5 50.5t-208.5 -72t-262.5 -509q-105 -355 -72 -494.5t82 -214.5
l-49 -119h-532l41 436l16 4q10 -112 35.5 -152t75.5 -40h332q-231 128 -270 290.5t-9 286.5q38 174 162.5 314t297.5 216.5t333 76.5z" />
    <glyph glyph-name="partialdiff" unicode="&#x2202;" horiz-adv-x="1114" 
d="M412 -10q108 0 211 235q55 125 89 284t36 303t-82 144q-65 0 -129.5 -85.5t-116.5 -225.5q-98 -265 -101 -489q0 -89 27 -127.5t66 -38.5zM18 358q0 118 54 233t148 201q198 184 454 183q103 0 155 -64l9 2q13 104 2 199q-25 248 -242 248q-143 0 -221 -109h-19
q92 170 308 170q167 0 283 -94t143 -274q32 -248 -22 -497t-206 -392q-199 -193 -461 -193q-99 0 -185.5 44.5t-143 134.5t-56.5 208z" />
    <glyph glyph-name="Delta" unicode="&#x2206;" horiz-adv-x="1292" 
d="M160 25h403q98 0 123 38q33 30 25 138l-29 915q-6 -3 -310 -453q-303 -449 -334 -499.5t-18 -85.5q14 -53 140 -53zM-264 0l8 14q69 4 117 29q82 48 155 166q77 107 418 604.5t420 607.5h109q8 -106 35.5 -681.5t30.5 -625.5t39 -73t106 -27l-5 -14h-1433z" />
    <glyph glyph-name="product" unicode="&#x220f;" horiz-adv-x="1734" 
d="M1112 1245h-205q-124 0 -158 -40.5t-44 -76.5l-312 -1124q-23 -77 35 -100q43 -17 131 -21l-2 -14h-760l4 14q109 3 169 21t81 94l316 1135q23 77 -35 100q-43 15 -152 24l4 13h1661l-4 -13q-118 -10 -162 -20q-67 -15 -90 -100l-315 -1131q-24 -80 35 -102
q42 -15 151 -21l-2 -14h-760l4 14q88 5 142 19q67 17 88 96l313 1126q16 63 -22.5 92t-110.5 29z" />
    <glyph glyph-name="summation" unicode="&#x2211;" horiz-adv-x="1359" 
d="M907 1243h-323l274 -602l-668 -743h304q149 0 223 12.5t112 44.5q180 161 345 364h18l-158 -450h-1280l6 14q47 6 123 101l609 684l-234 510q-24 46 -41 60t-37 19l4 13h1209l-88 -400h-17q-38 121 -91.5 228.5t-103.5 125.5t-186 19z" />
    <glyph glyph-name="minus" unicode="&#x2212;" horiz-adv-x="1159" 
d="M98 483v99h971v-99h-971z" />
    <glyph glyph-name="radical" unicode="&#x221a;" horiz-adv-x="1247" 
d="M59 639l426 190l248 -716h4l643 1259l23 -4l-729 -1434l-187 -34l-280 782l-144 -64z" />
    <glyph glyph-name="infinity" unicode="&#x221e;" horiz-adv-x="1163" 
d="M836 395q58 0 97.5 43.5t39.5 101.5t-40.5 96t-94.5 38t-95 -29t-127 -110q75 -80 118.5 -110t101.5 -30zM145 534q0 -60 40 -99.5t85 -39.5t81.5 13t148.5 122q-63 72 -111.5 108t-108.5 36t-97.5 -40t-37.5 -100zM45 534q0 96 69.5 162t159.5 66t153 -41t134 -119
q120 126 177.5 143t101.5 17q100 0 163.5 -62t63.5 -163t-71.5 -165.5t-177.5 -64.5t-261 156q-69 -73 -135 -114.5t-152 -41.5t-155.5 65.5t-69.5 161.5z" />
    <glyph glyph-name="integral" unicode="&#x222b;" horiz-adv-x="1112" 
d="M885 1074q0 68 94 153q-8 12 -35.5 22.5t-60.5 10.5q-97 0 -156 -108.5t-104 -340.5q-108 -548 -140 -674q-64 -248 -242 -391t-391 -143q-133 0 -183 62.5t-50 124.5t39.5 102t99.5 40t97.5 -35t37.5 -91q0 -99 -102 -154q15 -31 68 -31q99 0 190.5 140.5t158 507.5
t89.5 477q55 262 207 397q153 135 383 135q110 0 191 -54.5t81 -146.5q0 -57 -33.5 -96t-95.5 -39t-102.5 32t-40.5 100z" />
    <glyph glyph-name="approxequal" unicode="&#x2248;" horiz-adv-x="1161" 
d="M370 774q102 0 255 -30.5t221 -30.5t105.5 21.5t68.5 66.5h12q-72 -180 -254 -180q-109 0 -256.5 27.5t-222.5 27.5q-129 0 -182 -76h-15q21 69 93.5 121.5t174.5 52.5zM370 469q102 0 255.5 -29.5t220.5 -29.5t105 21t69 65h12q-73 -179 -254 -179q-109 0 -256.5 28
t-222.5 28q-128 0 -182 -78h-15q20 70 93 122t175 52z" />
    <glyph glyph-name="notequal" unicode="&#x2260;" horiz-adv-x="1159" 
d="M139 313v101h269l237 237h-506v101h606l222 221l63 -66l-156 -155h170v-101h-270l-237 -237h507v-101h-608l-227 -229l-66 66l164 163h-168z" />
    <glyph glyph-name="lessequal" unicode="&#x2264;" horiz-adv-x="1159" 
d="M123 594v84l905 412v-107l-772 -348l772 -348v-105zM106 0v94h945v-94h-945z" />
    <glyph glyph-name="greaterequal" unicode="&#x2265;" horiz-adv-x="1159" 
d="M129 182v105l774 348l-774 348v107l905 -412v-84zM106 0v94h945v-94h-945z" />
    <glyph glyph-name="lozenge" unicode="&#x25ca;" horiz-adv-x="929" 
d="M221 623l139 -461l326 465l-145 460zM59 625l430 624h156l203 -624l-436 -625h-154z" />
    <glyph glyph-name="uniE000" unicode="&#xe000;" horiz-adv-x="942" 
d="M0 0v942h942v-942h-942z" />
    <glyph glyph-name="apple" unicode="&#xf8ff;" horiz-adv-x="1263" 
d="M504 568q0 -60 40 -101t98 -41t97 41t39 101t-39 100.5t-97 40.5t-98 -40.5t-40 -100.5zM98 793q0 64 45.5 110.5t110.5 46.5q91 0 137 -86q8 -15 25.5 -72t52.5 -94l31 2q59 62 141 62l23 14q0 58 -35 127t-35 121t45 93.5t111 41.5t108.5 -45.5t42.5 -95.5t-15 -82
t-75.5 -73t-89.5 -97l8 -25q78 -41 98 -118l25 -13q62 22 114.5 83t121.5 61q68 0 111.5 -46t43.5 -111t-44.5 -109t-96.5 -44t-87.5 21.5t-75.5 48t-87 33.5l-18 -17q-11 -70 -80 -122l-2 -21q34 -44 108 -80q113 -54 113 -155q0 -62 -47.5 -109t-111.5 -47t-109.5 44.5
t-45.5 109.5q0 29 18.5 88t18.5 104v23l-14 10q-14 -2 -58 -2t-98 37l-26 -2q-31 -46 -43 -123q-27 -172 -160 -172q-63 0 -110.5 45.5t-47.5 111.5t49 110t121 44h49q49 0 103 27l6 28q-21 47 -21 79t7 60l-11 27q-18 6 -55 6l-131 -14q-67 0 -112.5 46t-45.5 110z" />
    <glyph glyph-name="e.ordn" horiz-adv-x="808" 
d="M606 1251q-48 0 -102.5 -102.5t-83.5 -233.5q202 33 227 252q7 84 -41 84zM438 563q-117 0 -194.5 63t-77.5 189q0 75 35 155.5t94 147.5t146 110.5t175 43.5t136.5 -32.5t48.5 -86.5q0 -98 -98.5 -163t-284.5 -93q-19 -81 -19 -166q0 -129 86 -129q75 0 142 56.5
t112 142.5l17 -10q-117 -228 -318 -228z" />
    <glyph glyph-name="R.salt" horiz-adv-x="1513" 
d="M680 715q166 0 271 102.5t111 258.5t-52.5 226t-155.5 70h-47l-182 -657h55zM942 1399q463 1 463 -293q0 -150 -148 -256.5t-368 -132.5l-2 -12q129 -9 202.5 -68t96.5 -174q19 -80 34 -216t43 -180t177 -53l-4 -14h-541q-4 202 -15 332t-42 221q-43 133 -185 133h-37
q-77 -289 -151 -543q-23 -72 37 -98q16 -8 63.5 -19t75.5 -12l-4 -14h-741l4 14q100 6 147 21q66 23 88 100l309 1118q25 74 -32 103q-50 21 -133 28l4 15h659z" />
    <glyph glyph-name="J.salt" horiz-adv-x="1099" 
d="M-61 188q0 61 41 105.5t111 44.5t110.5 -41.5t40.5 -106.5q0 -28 -6 -43.5t-9 -23.5t-11.5 -19.5t-11.5 -17t-14 -16.5t-13.5 -14t-26.5 -27q4 -18 34 -30.5t61 -12.5t62.5 13.5t69.5 59t63.5 120t44.5 143.5q18 69 21 79l237 852q23 79 -28 102t-146 29l4 15h740l-4 -15
q-81 -4 -147 -24t-89 -103l-252 -903q-37 -136 -198 -261.5t-407 -125.5q-132 0 -204.5 64t-72.5 157z" />
    <glyph glyph-name="Q.salt" horiz-adv-x="1482" 
d="M623 -8q84 0 149 47q0 319 -119 319q-60 0 -110 -33.5t-107 -117.5q34 -215 187 -215zM762 457q161 0 217 -164q37 74 74 188q83 265 91 493t-36 329.5t-161 101.5t-232 -147t-197.5 -386t-91.5 -481q-3 -84 6 -151q147 217 330 217zM96 526q0 187 78 364.5t204 295.5
t268 181t278 63q246 0 398.5 -149t152.5 -400q0 -373 -269 -654q-75 -81 -192 -149q22 -127 80 -208t149 -81q155 0 242 164l16 -8q-81 -184 -186.5 -261t-237.5 -77q-179 0 -236 131.5t-63 245.5q-76 -17 -137 -17q-239 0 -392 149t-153 410z" />
    <glyph glyph-name="Y.salt" horiz-adv-x="1413" 
d="M135 0l4 14q145 10 168 17q67 20 88 98l92 338q18 63 19 94.5t-14 91.5q-112 432 -136 514t-45 125t-53 66q-33 22 -102 26l4 15h751l-4 -15q-223 -12 -233 -51q-9 -31 64 -319.5t104 -390.5q369 436 460 547q91 112 98 134t-1.5 32.5t-50.5 25t-179 22.5l5 15h501
l-4 -15q-97 -12 -140.5 -43.5t-48.5 -36.5l-54 -54q-49 -49 -488 -562q-64 -74 -85 -115.5t-48 -140.5l-82 -301q-21 -77 37 -98q30 -9 149 -19l-2 -14h-774z" />
    <glyph glyph-name="ampersand.salt" horiz-adv-x="1521" 
d="M940 1407q-95 0 -183.5 -127.5t29.5 -415.5q134 65 215.5 163t75.5 218q-2 67 -38.5 114.5t-98.5 47.5zM299 336q0 -118 62.5 -186t150.5 -68q181 0 289 119q-232 397 -287 524q-215 -152 -215 -389zM442 984q0 96 40 196t169.5 173.5t288.5 73.5q104 0 171.5 -55
t68.5 -143q0 -176 -149.5 -260.5t-235.5 -124.5q46 -110 123.5 -249t95.5 -173q88 193 132 263q102 162 212 163q77 0 116 -44t39 -90t-22.5 -78t-58.5 -32t-55.5 10.5t-29 26t-17.5 30.5t-22.5 25.5t-37.5 10.5t-56 -21t-80 -97t-106 -194q143 -246 143 -403
q0 -111 -42.5 -202t-155.5 -183.5t-338 -102.5l-8 70q183 -25 262.5 26.5t79.5 185.5t-154 394q-194 -211 -453 -211q-151 0 -256.5 69.5t-107.5 215.5q-2 189 144 303t364 188q-64 143 -64 239z" />
    </font>
</defs>
</svg>
