<?xml version="1.0" encoding="utf-8"?>
<!-- Generator: Adobe Illustrator 16.0.0, SVG Export Plug-In . SVG Version: 6.00 Build 0)  -->
<!DOCTYPE svg PUBLIC "-//W3C//DTD SVG 1.1//EN" "http://www.w3.org/Graphics/SVG/1.1/DTD/svg11.dtd">
<svg version="1.1" id="Layer_1" xmlns="http://www.w3.org/2000/svg" xmlns:xlink="http://www.w3.org/1999/xlink" x="0px" y="0px"
	 width="43.882px" height="43.156px" viewBox="0 0 43.882 43.156" enable-background="new 0 0 43.882 43.156" xml:space="preserve">
<path fill="#C7C7C6" d="M7.584,9.458H4.987c-0.019,0.366-0.055,0.731-0.201,1.006c-0.146,0.311-0.421,0.512-0.896,0.512
	s-0.713-0.219-0.86-0.512C2.718,9.86,2.682,8.232,2.682,6.659s0.036-3.201,0.347-3.805c0.146-0.292,0.384-0.512,0.86-0.512
	s0.732,0.183,0.878,0.494C4.914,3.11,4.95,3.476,4.968,3.841h2.598C7.511,2.598,7.09,1.573,6.414,0.933C5.755,0.311,4.968,0,3.889,0
	C2.426,0,1.658,0.585,1.054,1.299C0.011,2.543,0.084,4.921,0.084,6.677c0,1.756-0.073,4.098,0.969,5.342
	c0.604,0.713,1.372,1.299,2.835,1.299c1.079,0,1.866-0.311,2.524-0.933C7.09,11.744,7.529,10.701,7.584,9.458z"/>
<path fill="#C7C7C6" d="M16.305,13.171V0.146h-2.598v5.231h-2.158V0.146H8.951v13.024h2.598V7.72h2.158v5.451H16.305z"/>
<path fill="#C7C7C6" d="M25.895,13.171l-1.902-5.634c1.262-0.787,1.481-2.03,1.481-3.421c0-2.488-0.787-3.969-3.622-3.969h-3.713
	v13.024h2.598V8.104h0.86l1.591,5.067H25.895z M22.876,4.116c0,0.75-0.055,1.646-1.042,1.646h-1.098V2.488h1.098
	C22.822,2.488,22.876,3.366,22.876,4.116z"/>
<path fill="#C7C7C6" d="M29.778,13.171V0.146H27.18v13.024H29.778z"/>
<path fill="#C7C7C6" d="M38.542,9.458c0-2.36-0.476-3.092-2.122-3.769l-1.628-0.658c-0.75-0.311-0.896-0.549-0.896-1.372
	c0-0.439,0.055-0.713,0.219-0.933c0.146-0.201,0.384-0.348,0.75-0.348c0.384,0,0.604,0.128,0.75,0.33
	c0.22,0.292,0.22,0.713,0.22,1.17h2.598c0-1.317-0.293-2.359-1.006-3.018c-0.567-0.531-1.408-0.823-2.561-0.823
	c-0.988,0-1.774,0.292-2.396,0.823c-0.787,0.677-1.171,1.683-1.171,2.89c0,2.031,0.549,2.726,1.866,3.274l1.646,0.677
	c0.933,0.384,1.134,0.604,1.134,1.848c0,0.53-0.073,0.878-0.256,1.098c-0.165,0.219-0.42,0.329-0.823,0.329
	c-0.402,0-0.658-0.146-0.805-0.311c-0.238-0.274-0.274-0.658-0.274-1.189h-2.598c0,1.335,0.22,2.25,0.86,2.89
	c0.585,0.585,1.537,0.952,2.817,0.952c1.262,0,2.25-0.403,2.835-0.97C38.377,11.689,38.542,10.774,38.542,9.458z"/>
<path fill="#C7C7C6" d="M7.804,19.161c0-2.542-0.841-4.134-3.658-4.134H0.468v13.024h2.598V23.35h1.08
	C6.962,23.35,7.804,21.722,7.804,19.161z M5.207,19.18c0,0.823-0.055,1.829-1.043,1.829H3.066v-3.64h1.098
	C5.151,17.369,5.207,18.356,5.207,19.18z"/>
<path fill="#C7C7C6" d="M15.199,28.051V25.71h-3.402v-3.055h2.927v-2.342h-2.927v-2.945h3.402v-2.342h-6v13.024H15.199z"/>
<path fill="#C7C7C6" d="M22.959,17.369v-2.342h-6.988v2.342h2.195v10.683h2.598V17.369H22.959z"/>
<path fill="#C7C7C6" d="M30.035,28.051V25.71h-3.402v-3.055h2.927v-2.342h-2.927v-2.945h3.402v-2.342h-6v13.024H30.035z"/>
<path fill="#C7C7C6" d="M39.223,28.051l-1.902-5.634c1.262-0.787,1.481-2.031,1.481-3.421c0-2.488-0.787-3.97-3.622-3.97h-3.714
	v13.024h2.598v-5.067h0.86l1.591,5.067H39.223z M36.205,18.997c0,0.75-0.055,1.646-1.043,1.646h-1.098v-3.274h1.098
	C36.149,17.369,36.205,18.247,36.205,18.997z"/>
<path fill="#C7C7C6" d="M43.874,23.826v-2.341h-3.805v2.341H43.874z"/>
<path fill="#C7C7C6" d="M7.401,39.219c0-2.36-0.476-3.092-2.122-3.769l-1.628-0.659c-0.75-0.311-0.896-0.548-0.896-1.372
	c0-0.439,0.055-0.713,0.22-0.933c0.146-0.201,0.384-0.348,0.75-0.348c0.384,0,0.604,0.128,0.75,0.33
	c0.219,0.292,0.219,0.713,0.219,1.17h2.598c0-1.317-0.292-2.359-1.006-3.018c-0.567-0.531-1.409-0.823-2.561-0.823
	c-0.988,0-1.774,0.292-2.396,0.823c-0.787,0.677-1.17,1.683-1.17,2.89c0,2.03,0.549,2.726,1.866,3.274l1.646,0.677
	c0.933,0.384,1.134,0.604,1.134,1.848c0,0.53-0.073,0.878-0.256,1.098c-0.165,0.219-0.421,0.329-0.823,0.329
	S3.066,40.59,2.92,40.426c-0.238-0.274-0.274-0.658-0.274-1.189H0.048c0,1.335,0.219,2.25,0.86,2.89
	c0.585,0.585,1.536,0.951,2.817,0.951c1.262,0,2.25-0.402,2.835-0.969C7.237,41.45,7.401,40.536,7.401,39.219z"/>
<path fill="#C7C7C6" d="M14.851,42.932V40.59h-3.402v-3.055h2.927v-2.341h-2.927v-2.945h3.402v-2.341h-6v13.024H14.851z"/>
<path fill="#C7C7C6" d="M23.934,42.932V29.908h-2.598v6.366l-2.707-6.366h-2.269v13.024h2.598v-6.366l2.762,6.366H23.934z"/>
</svg>
