<?xml version="1.0" encoding="utf-8"?>
<!-- Generator: Adobe Illustrator 16.0.0, SVG Export Plug-In . SVG Version: 6.00 Build 0)  -->
<!DOCTYPE svg PUBLIC "-//W3C//DTD SVG 1.1//EN" "http://www.w3.org/Graphics/SVG/1.1/DTD/svg11.dtd">
<svg version="1.1" id="Layer_1" xmlns="http://www.w3.org/2000/svg" xmlns:xlink="http://www.w3.org/1999/xlink" x="0px" y="0px"
	 width="313.906px" height="39.312px" viewBox="0 0 313.906 39.312" enable-background="new 0 0 313.906 39.312"
	 xml:space="preserve">
<path fill="#C7C7C6" d="M22.182,27.902H14.53c-0.054,1.077-0.162,2.153-0.593,2.96c-0.431,0.915-1.239,1.507-2.64,1.507
	s-2.102-0.646-2.532-1.507c-0.916-1.776-1.024-6.565-1.024-11.194S7.849,10.25,8.765,8.475c0.431-0.861,1.131-1.507,2.532-1.507
	s2.155,0.538,2.586,1.453c0.431,0.807,0.539,1.883,0.593,2.96h7.651c-0.162-3.66-1.401-6.673-3.395-8.557
	c-1.94-1.83-4.257-2.745-7.436-2.745c-4.311,0-6.574,1.722-8.352,3.821C-0.125,7.56,0.09,14.556,0.09,19.722
	c0,5.167-0.215,12.055,2.856,15.715c1.778,2.099,4.041,3.821,8.352,3.821c3.179,0,5.496-0.915,7.436-2.745
	C20.727,34.63,22.02,31.562,22.182,27.902z"/>
<path fill="#C7C7C6" d="M47.897,38.828V0.51h-7.651v15.392h-6.358V0.51h-7.651v38.318h7.651V22.79h6.358v16.038H47.897z"/>
<path fill="#C7C7C6" d="M76.246,38.828l-5.604-16.576c3.718-2.314,4.365-5.974,4.365-10.064c0-7.319-2.317-11.678-10.669-11.678
	H53.4v38.318h7.651V23.92h2.532l4.688,14.908H76.246z M67.355,12.188c0,2.207-0.162,4.844-3.071,4.844h-3.233V7.398h3.233
	C67.194,7.398,67.355,9.981,67.355,12.188z"/>
<path fill="#C7C7C6" d="M87.683,38.828V0.51h-7.651v38.318H87.683z"/>
<path fill="#C7C7C6" d="M113.5,27.902c0-6.942-1.401-9.095-6.25-11.086l-4.795-1.938c-2.209-0.915-2.64-1.615-2.64-4.036
	c0-1.292,0.162-2.099,0.646-2.745c0.431-0.592,1.131-1.022,2.209-1.022c1.132,0,1.778,0.377,2.209,0.969
	c0.646,0.861,0.646,2.099,0.646,3.444h7.651c0-3.875-0.862-6.942-2.963-8.88c-1.67-1.561-4.149-2.422-7.544-2.422
	c-2.91,0-5.227,0.861-7.059,2.422c-2.317,1.991-3.448,4.951-3.448,8.503c0,5.974,1.616,8.019,5.496,9.633l4.849,1.992
	c2.748,1.13,3.341,1.776,3.341,5.436c0,1.561-0.215,2.583-0.754,3.229c-0.485,0.646-1.239,0.968-2.425,0.968
	c-1.185,0-1.939-0.43-2.371-0.915c-0.701-0.807-0.808-1.938-0.808-3.498h-7.651c0,3.929,0.646,6.619,2.532,8.503
	c1.724,1.722,4.526,2.798,8.298,2.798c3.718,0,6.628-1.184,8.352-2.852C113.015,34.468,113.5,31.777,113.5,27.902z"/>
<path fill="#C7C7C6" d="M148.003,12.672c0-7.48-2.479-12.163-10.777-12.163h-10.831v38.318h7.651V24.997h3.179
	C145.524,24.997,148.003,20.207,148.003,12.672z M140.351,12.726c0,2.422-0.161,5.382-3.071,5.382h-3.233V7.398h3.233
	C140.19,7.398,140.351,10.304,140.351,12.726z"/>
<path fill="#C7C7C6" d="M169.785,38.828v-6.889h-10.022v-8.988h8.621v-6.888h-8.621V7.398h10.022V0.51h-17.674v38.318H169.785z"/>
<path fill="#C7C7C6" d="M193.343,7.398V0.51H172.76v6.889h6.466v31.429h7.651V7.398H193.343z"/>
<path fill="#C7C7C6" d="M214.231,38.828v-6.889h-10.022v-8.988h8.622v-6.888h-8.622V7.398h10.022V0.51h-17.673v38.318H214.231z"/>
<path fill="#C7C7C6" d="M241.238,38.828l-5.604-16.576c3.718-2.314,4.365-5.974,4.365-10.064c0-7.319-2.317-11.678-10.669-11.678
	h-10.938v38.318h7.651V23.92h2.532l4.688,14.908H241.238z M232.347,12.188c0,2.207-0.162,4.844-3.071,4.844h-3.233V7.398h3.233
	C232.186,7.398,232.347,9.981,232.347,12.188z"/>
<path fill="#C7C7C6" d="M265.445,27.902c0-6.942-1.401-9.095-6.25-11.086l-4.796-1.938c-2.209-0.915-2.64-1.615-2.64-4.036
	c0-1.292,0.162-2.099,0.647-2.745c0.431-0.592,1.131-1.022,2.209-1.022c1.131,0,1.778,0.377,2.209,0.969
	c0.647,0.861,0.647,2.099,0.647,3.444h7.651c0-3.875-0.862-6.942-2.964-8.88c-1.67-1.561-4.149-2.422-7.543-2.422
	c-2.91,0-5.227,0.861-7.059,2.422c-2.317,1.991-3.449,4.951-3.449,8.503c0,5.974,1.617,8.019,5.496,9.633l4.85,1.992
	c2.748,1.13,3.341,1.776,3.341,5.436c0,1.561-0.216,2.583-0.754,3.229c-0.485,0.646-1.239,0.968-2.425,0.968s-1.94-0.43-2.371-0.915
	c-0.7-0.807-0.808-1.938-0.808-3.498h-7.651c0,3.929,0.646,6.619,2.533,8.503c1.724,1.722,4.526,2.798,8.298,2.798
	c3.718,0,6.627-1.184,8.352-2.852C264.96,34.468,265.445,31.777,265.445,27.902z"/>
<path fill="#C7C7C6" d="M287.389,38.828v-6.889h-10.022v-8.988h8.622v-6.888h-8.622V7.398h10.022V0.51h-17.674v38.318H287.389z"/>
<path fill="#C7C7C6" d="M313.856,38.828V0.51h-7.651v18.729L298.23,0.51h-6.681v38.318h7.651V20.099l8.136,18.729H313.856z"/>
</svg>
